<svg id="Capa_1" data-name="Capa 1" xmlns="http://www.w3.org/2000/svg" viewBox="0 0 1274.77 1874.63"><defs><style>.cls-1{fill:#d36e5b;}.cls-2{fill:#f7b07c;}.cls-3{fill:#f5a055;}.cls-4{fill:#ffe5c1;}.cls-5{fill:#9bd2ca;}.cls-6{fill:#f7c266;}.cls-7{fill:#ca554d;}.cls-8{fill:#551e1f;}.cls-9{fill:#e94a3c;}.cls-10{fill:#59684f;}.cls-11{fill:#92b158;}</style></defs><path class="cls-1" d="M1589.25,1251.71l-32.93-.75-21.61-157a52.83,52.83,0,0,0-52.33-45.63h-396c-1-16.2,4.09-33.83,12.07-49.66a8,8,0,0,0,0,1.29c1.26-1.23,3.37-1.68,4.84-2.77a29.91,29.91,0,0,0,4.53-4.54,17.89,17.89,0,0,0,4.61-9.19,11.77,11.77,0,0,0-.8-6.24,17.25,17.25,0,0,0,3.85-8.29,12,12,0,0,0-.28-4.74l.07-.09a16.43,16.43,0,0,0,4.23-8.44,9.94,9.94,0,0,0-2.87-8.74,14.35,14.35,0,0,0-5.56-2.74c9.58-43,8.71-70.78,9.57-77.73,2.48-19.88-11.2-29.21-21.81-35.11l2.9-8,6.62-.23,3.46-19.67-35.8-9.07L1070,813.54l6.36,3.69-1,8c-12.14.41-37.53,10.71-40.39,20.75-3.44,12.1-15,41.67-27.45,91l-11.42.73c-30.5-13.43-62.39-28.44-91.61-41.89l9.67-66.46,54.08-4.08-39-103.76L923.3,716c6.68-18.64,12.11-37.94,8.55-57.82-1.5-8.39-4-19-10.33-26.29l1.39-3.88,2.18.78,4.84-18.61-1.52-.54a1.59,1.59,0,0,0-.69-.25l-28.28-10.18-8.14,17.42,2.18.79-2.08,5.81c-8.22,2-15,6.85-20.64,11.62-16.51,14-24.12,36-31.3,55.73-3.13,8.6-6.84,16.78-9.85,25.42h-10.2c-1.75-8.78-3.88-17.48-6.23-26.11-1.53-5.59-3.08-11.18-4.38-16.83-1.16-5.1-4.55-19.88-3.66-20.26-1.62-5.15-2.14-6-3.2-7.1-5-5.39-13.76-8.46-22.26-9.05l-1.08-5.27,3.71-.75-5.65-14.83-19.43,3.22c-6.25-5.15-12.81-10.84-20.28-14.3l.91-4.91,1.12-1.39-1.91-17.75L704.74,583l.54,17.31,1.38,1.75.43,6.16a55.46,55.46,0,0,0-4.28,3.71c-8.43-2.8-19.63,2.16-28.11.59-16.9-3.12-31.67-13.26-48.84-15.82.16-15.93.35-41,.22-61.23a102.21,102.21,0,0,0,20.58-5.16c37.63-13.76,56.06-46.84,62.34-84.82l.14,0c10.7-2.94,20.1-11.71,25.59-21.08,7.43-12.67,9.36-28,7.6-42.61-1.7-14.08-6.84-28-16.11-38.7a31.68,31.68,0,0,0-6.24-5.73c8.06-22.52,1.95-50.94-12.59-71.48-14.2-20.07-39.26-34.83-64.2-33.82a66.23,66.23,0,0,0-27.12,7.12c-1.66.84-19.88,12.15-17.85,14.4a64.6,64.6,0,0,0-51.44-20.73c-20,1.36-42.92,13.75-51.11,32.84-.78,1.81-4.14,18.22-3.09,18.11-22.64,2.3-43.33,18.3-51.25,39.64s-2.65,47,13,63.46a50.27,50.27,0,0,0-5.83,51.67,47.69,47.69,0,0,0,28.08,24.85c-.44,12.58,4.22,26.19,12.69,34.49,7.12,7,18.26,12.08,29.24,13.7l.82,87.41c-12.35,2.11-15.87,11.27-28.06,13.53-10.57,2-24.64,1.69-34.83,5.81-9.41.56-24.18,10.75-33.67,15.09-37.92,17.34-48.25,33.13-55.72,72-9.86,51.3-10.56,96-17.41,156.71l4.59,8.59c-1.3,14.87-2.4,28.75-3.18,40.83-1.32,20.56-5,38.83,3.29,56.42a45.38,45.38,0,0,0,6.21,12.2c9.34,13.07,22.4,19.32,36.7,22.38a120,120,0,0,0,13.22,2,120,120,0,0,1-13.22-2c7,86,2.31,139.35,2.31,139.35l8.18,15.41c-5.31,103.19-.63,235.27-14.9,374.74-17.48,171-39.39,333.25-63.24,413.37l19,7.48h0q.68,20.85,1.34,41.69c-2.08-.21-3.48-2.14-5.64-.67-1.9,1.28-2.65,6.7-3,8.74-1,5.73-.49,51.15-.64,56.93-.26,10.27-.34,20.57.38,30.83.28,4-.21,11.37,1.45,16.22H497.54c-.37-11.35.71-24.3-2.53-34.63-5.16-16.42-14.6-16.27-24.47-21.46-7.74-4.06-16.75-47.22-18.92-56.1-1.14-4.67-1.1-16-3-20.47-.5-1.15-3.67-2.14-8.58-3q1.22-9.06,2.53-18.13h0l57.49-7.48c-4.49-135.34,39.58-391.47,76.35-617.16l.28,0c7.73,51.09,9.65,105.84,10.47,162.26,1.74,120.08-22,457.67-22,457.67l8,5.8h0l1,29.7-11,.62c.87,21.27-2.63,120.35,2.8,120.34,4.43,0,208.7,1.84,208.71,1.94-.27-10.94,2-23.63-2.22-33.75-5.87-14.18-18.74-13.17-31.26-17.38A87,87,0,0,1,708.88,2035c.1,0,.17-.69.27-.73.53-.23.27-2-1-2.22s-1.51-.84-2.81-.94c-.44-.53-.87-1.05-1.29-1.58a16.88,16.88,0,0,1-2.21-4.11c.76.09.85-.57,1.61-.47,2.25.32,2.62-1.93.36-2.26a17.18,17.18,0,0,1-3.19-1c-.46-1.65-.87-3.44-1.24-5.33a2.23,2.23,0,0,1,1.63-.32,1.36,1.36,0,0,0-.17-2.5,3.18,3.18,0,0,1-2.12-.83c-2.61-16-3-36.84-4.76-39.53-1.43-2.17-15-3.54-29.08-4.1q1.2-8.78,2.47-17.57h0l66.16-8,17.15-503.39-3.4-282.87,11-13.09s-2.33-62.68,2.27-145.91l-2.17.25,2.17-.25c10.38-1.22,19-2.3,23.08-2.73s8.86-.14,13.15-.83a4.92,4.92,0,0,0,4-3.39h89.78l1.21-8.31c28.17,6.15,57.5,11.9,82.43,15.78a.5.5,0,0,0,0,.13c.22.49,6.88,3.49,16.3,7.43-3.82,16.08-1.73,24.17-4,33.83l8.08,4c10.33,4.36,16.56,5.66,21.67,14.45a52.82,52.82,0,0,0-20.71,33.68L971,1237.76l-35.33-.8a10.5,10.5,0,0,0-10.73,10.5v66.91a10.49,10.49,0,0,0,10.5,10.5h73.73l.35,8.92,37.87,730.07c.8,20.94,17.64,33.69,38.59,33.69l358.73-3.31c21.06,0,35.07-10.76,35.72-31.81l34.46-709,.89-28.54H1589a10.5,10.5,0,0,0,10.5-10.5V1262.2A10.5,10.5,0,0,0,1589.25,1251.71Z" transform="translate(-324.74 -231.97)"/><path class="cls-2" d="M930.61,716H923.3c6.68-18.64,12.11-37.94,8.55-57.82-1.5-8.39-4-19-10.33-26.29l1.39-3.88,2.18.78,4.84-18.61-1.52-.54a1.59,1.59,0,0,0-.69-.25l-28.28-10.18-8.14,17.42,2.18.79-2.08,5.81c-8.22,2-15,6.85-20.64,11.62-16.51,14-24.12,36-31.3,55.73-3.13,8.6-6.84,16.78-9.85,25.42h-10.2c-1.75-8.78-3.88-17.48-6.23-26.11-1.53-5.59-3.08-11.18-4.38-16.83-1.16-5.1-4.55-19.88-3.66-20.26-1.62-5.15-2.14-6-3.2-7.1-5-5.39-13.76-8.46-22.26-9.05l-1.08-5.27,3.71-.75-5.65-14.83-19.43,3.22A55.47,55.47,0,0,0,738.14,604l-.28-4.11,1.12-1.39-1.91-17.75L704.74,583l.54,17.31,1.38,1.75.43,6.16a55.46,55.46,0,0,0-4.28,3.71,194,194,0,0,0-25.75-6.22c-16.9-3.13-34-6.45-51.2-9-.1,9.52-.19,15.78-.19,15.78a89.58,89.58,0,0,1-102.53-1.78L519.43,608l-.08-9c-12.35,2.11-24.67,4.47-36.85,6.72-10.57,1.95-21.7,4.34-31.88,8.46a80,80,0,0,0-28.48,7.33c-37.92,17.34-57.63,40.06-65.1,78.9-9.86,51.3-11.33,109.8-18.18,170.48l15.39-.19,108.28-1.3c-.72,10.16-1.46,20-2.21,29.16h1.75a1.66,1.66,0,0,1,1.7,1.46c34,3.44,79.57,10.54,125.76,17.13,17.48,2.48,35.05,4.9,52.11,7,20-6.1,50.15-15.43,55.54-15.45,10,0,58,18.8,59,21.33,2.83,7.2-13.25,10.75-17.39,10.42-2.4-.19-4.4-1.28-6.73-1.63-3.7-.56-7.82.13-11.54.29-2.92.12-6.6.8-6.76,4.13a4.45,4.45,0,0,0,1.46,3.39c12.27,11.55,28.45,19.54,44.63,24,9.49,2.59,18.87,4.89,27.55,8.7a63.87,63.87,0,0,1,11.51,6.42,4.89,4.89,0,0,1,1.82,5.61h89.78l1.21-8.31,12.69-87.21,9.67-66.46h62.2Z" transform="translate(-324.74 -231.97)"/><path class="cls-3" d="M865.64,716h0L796.94,829.34H584.69l4.84,87.8c17.48,2.48,35.05,4.9,52.11,7,20-6.1,50.15-15.43,55.54-15.45,10,0,58,18.8,59,21.33,2.83,7.2-13.25,10.75-17.39,10.42-2.4-.19-4.4-1.28-6.73-1.63-3.7-.56-7.82.13-11.54.29-2.92.12-6.6.8-6.76,4.13a4.45,4.45,0,0,0,1.46,3.39c12.27,11.55,28.45,19.54,44.63,24,9.49,2.59,18.87,4.89,27.55,8.7a63.87,63.87,0,0,1,11.51,6.42,4.89,4.89,0,0,1,1.82,5.61h49.71l15.17-275.27Z" transform="translate(-324.74 -231.97)"/><path class="cls-4" d="M813.18,689.92c-1.53-5.59-3.08-11.18-4.38-16.83-1.16-5.1-4.55-19.88-3.66-20.26-1.62-5.15-2.14-6-3.2-7.1-5-5.39-13.76-8.46-22.26-9.05l-1.08-5.27,3.71-.75-5.65-14.83-19.43,3.22A55.47,55.47,0,0,0,738.14,604l-.28-4.11,1.12-1.39-1.91-17.75L704.74,583l.54,17.31,1.38,1.75.43,6.16a55.42,55.42,0,0,0-15.43,18.84c-9.45,19.47-7,42.72-5.6,63.62.56,8.46,1.21,16.91,1.89,25.36H819.41C817.66,707.25,815.53,698.55,813.18,689.92Z" transform="translate(-324.74 -231.97)"/><path class="cls-5" d="M820.17,713c-.06-.25-.12-.49-.17-.74s-.16-.72-.23-1.08l0-.11c-.69-3.18-1.39-6.31-2.08-9.39,0-.11,0-.22-.08-.33-4.62-20.53-9.11-38.76-12.44-48.52l-65.25,13.34c.19,2.53.52,5.55,1,9v0a159.39,159.39,0,0,1-50.93-.1c-2.25-.37-3.21,3.07-.94,3.44a163.9,163.9,0,0,0,52.35.19h0l2.25,14.68a131.45,131.45,0,0,1-53-.22c-2.25-.47-3.21,3-1,3.44a135.27,135.27,0,0,0,54.55.25h0c1,6.05,2.18,12.53,3.42,19.24h73.26Z" transform="translate(-324.74 -231.97)"/><path class="cls-6" d="M677.06,605.7c-16.9-3.13-34-6.45-51.2-9-.1,9.52-.19,15.78-.19,15.78a89.58,89.58,0,0,1-102.53-1.78L519.43,608l-.08-9c-12.35,2.11-24.67,4.47-36.85,6.72-10.57,1.95-21.7,4.34-31.88,8.46a80,80,0,0,0-28.48,7.33c-37.92,17.34-57.63,40.06-65.1,78.9-9.86,51.3-11.33,109.8-18.18,170.48l15.39-.19,108.28-1.3c-.72,10.16-1.46,20-2.21,29.16h1.75a1.66,1.66,0,0,1,1.7,1.46c34,3.44,79.57,10.54,125.76,17.13l-4.84-87.8h-44.6L578.45,716H688c-.68-8.45-1.33-16.9-1.89-25.36-1.39-20.9-3.85-44.15,5.6-63.62a55,55,0,0,1,11.15-15.13A194,194,0,0,0,677.06,605.7Z" transform="translate(-324.74 -231.97)"/><path class="cls-7" d="M707.16,424.05c-3.67-10.09-16.11-17.46-26.39-14.17-5-5.3-14.16-4.6-17.46,3.78-1.85,4.69-.6,10.28,2.59,14.18a14,14,0,0,0,2.48,2.39A23.33,23.33,0,0,0,672.1,442c5.29,7.89,16.42,11.6,25,7.64C706.31,445.46,710.6,433.51,707.16,424.05Z" transform="translate(-324.74 -231.97)"/><path class="cls-7" d="M583.07,409.88c-10.28-3.29-22.73,4.08-26.39,14.17-3.45,9.46.85,21.41,10,25.61,8.63,4,19.76.25,25.05-7.64a23.24,23.24,0,0,0,3.72-11.79,13.37,13.37,0,0,0,2.48-2.39c3.19-3.9,4.44-9.49,2.59-14.18C597.22,405.28,588.08,404.58,583.07,409.88Z" transform="translate(-324.74 -231.97)"/><path class="cls-8" d="M772.49,2072.85c-5.87-14.18-18.74-13.17-31.26-17.38A87,87,0,0,1,708.88,2035c.1,0,.17-.69.27-.73.53-.23.27-2-1-2.22s-1.51-.84-2.81-.94c-.44-.53-.87-1.05-1.29-1.58a16.88,16.88,0,0,1-2.21-4.11c.76.09.85-.57,1.61-.47,2.25.32,2.62-1.93.36-2.26a17.18,17.18,0,0,1-3.19-1c-.46-1.65-.87-3.44-1.24-5.33a2.23,2.23,0,0,1,1.63-.32,1.36,1.36,0,0,0-.17-2.5,3.18,3.18,0,0,1-2.12-.83c-2.61-16-3-36.84-4.76-39.53-1.43-2.17-15-3.54-29.08-4.1-14.75-.58-30-.27-32.45,1-4.72,2.4-4.21,8.48-2.77,13.58-18.57-1.63-37-1-55.47,0l-11,.62c.87,21.27-2.63,120.35,2.8,120.34,4.43,0,208.7,1.84,208.71,1.94C774.44,2095.66,776.68,2083,772.49,2072.85Z" transform="translate(-324.74 -231.97)"/><path class="cls-8" d="M470.54,2050.51c-7.74-4.06-16.75-47.22-18.92-56.1-1.14-4.67-1.1-16-3-20.47-.5-1.15-3.67-2.14-8.58-3-23.47-3.87-86.57-3.48-87.11,4.47-.13,2.06.18,18.63-1.93,19a3.41,3.41,0,0,1-1.05,0c-2.08-.21-3.48-2.14-5.64-.67-1.9,1.28-2.65,6.7-3,8.74-1,5.73-.49,51.15-.64,56.93-.26,10.27-.34,20.57.38,30.83.28,4-.21,11.37,1.45,16.22H497.54c-.37-11.35.71-24.3-2.53-34.63C489.85,2055.55,480.41,2055.7,470.54,2050.51Z" transform="translate(-324.74 -231.97)"/><path class="cls-6" d="M765.29,1157.27s-2.25-73.82-4.73-159c-22.92,2.68-54.61,6.06-66.29,4.7-11.93-1.38-52.81-6.67-65.22-10.24-65.28,8.55-158.27,13.7-192.76,13-12.82-.26-26.4-.49-39-3.2-3,83.38-5.69,154.76-5.69,154.76h16.18c-5.31,103.19-14.8,241.66-29.06,381.14-17.5,171-25.23,326.85-49.08,407l19,7.48h94l57.49-7.48c-4.49-135.34,39.58-391.47,76.35-617.16l.28,0c7.73,51.09,9.65,105.84,10.47,162.26,1.74,120.08-22,457.67-22,457.67l8,5.8,94.12-2.44,66.16-8,17.15-503.39-3.4-282.87Z" transform="translate(-324.74 -231.97)"/><path class="cls-4" d="M747.24,1157.27H407.76c-5.31,103.19-14.8,241.66-29.06,381.14-17.5,171-47.13,338.23-54,414.45H504.39c12.86-124.48,45.09-398.73,72-624.64a1.51,1.51,0,0,0,.28,0c1.35,51.15,2.58,106.1,3.4,162.52,1.74,120.08-3.89,240.94-9.69,329.14q-.5,7.69-1,15c-5,72.49-9.76,119.38-9.76,119.38l13.6-.36,94.12-2.44,72.68-1.89,14.49-509.16Z" transform="translate(-324.74 -231.97)"/><path class="cls-4" d="M656.41,670.66c-3.84-4.39-10.78-7-17.54-7.65l-.75-4.22,3-.53-3.47-12.65-21.75,3.88L617,662.56l3-.53.76,4.22c-6.13,2.93-11.74,7.8-13.82,13.25-1.15,3,.54,17.88,3.35,36.53h57.68C663.36,693.05,658.89,673.5,656.41,670.66Z" transform="translate(-324.74 -231.97)"/><path class="cls-4" d="M933.72,657.3a55.14,55.14,0,0,0-12.2-25.38l1.39-3.88,2.18.78,4.84-18.61-1.52-.54a1.59,1.59,0,0,0-.69-.25l-28.28-10.18-8.14,17.42,2.18.79-2.08,5.81a55.22,55.22,0,0,0-21.74,11c-16.52,14-23.68,36.24-30.85,55.92q-4.71,12.89-9.2,25.86H923.3C930,697.39,937.28,677.17,933.72,657.3Z" transform="translate(-324.74 -231.97)"/><path class="cls-9" d="M928.41,609.67a1.59,1.59,0,0,0-.69-.25l-28.28-10.18-8.14,17.42,2.18.79L922.91,628l2.18.78,4.84-18.61Z" transform="translate(-324.74 -231.97)"/><path class="cls-10" d="M1589.25,1251.71l-32.93-.75-21.61-157a52.83,52.83,0,0,0-52.33-45.63h-396c-1-16.2,4.09-33.83,12.07-49.66a25.72,25.72,0,0,1,.43-2.78c.38-2.15.67-4.29-.7-5.8-1.77-2-4.45-3.3-6.8-4.39l-.91-.44c-1.12-.55-2.2-1.13-3.28-1.73-1.76-1-3.51-2-5.31-2.89-2.93-1.47-6-2.7-7.86-5.51-.84-1.29-1.51-2.89-1-4.36a5.29,5.29,0,0,1,2.75-2.74c2.93-1.54,6.45-1.82,10.1-1.45l-.92-.47c-2.93-1.47-6-2.7-7.86-5.5-.83-1.3-1.5-2.9-1-4.37a5.22,5.22,0,0,1,2.75-2.74c3.09-1.62,6.84-1.84,10.7-1.38a12.46,12.46,0,0,1-5.27-4.1,3.94,3.94,0,0,1,1.58-6.52c3.28-1.72,7.36-1.72,11.47-1,1.18.2,2.35.45,3.51.73,3.33.82,6.56,1.91,9.24,2.69.35.09.69.2,1,.3h0c9.58-43,8.71-70.78,9.57-77.73,2.48-19.88-11.2-29.21-21.81-35.11l2.9-8,6.62-.23,3.46-19.67-35.8-9.07L1070,813.54l6.36,3.69-1,8c-12.14.41-37.53,10.71-40.39,20.75-3.44,12.1-15,41.67-27.45,91-6.05,23.93-12,48.52-17,69.39-3.82,16.08-1.73,24.17-4,33.83l8.08,4c10.33,4.36,16.56,5.66,21.67,14.45a52.82,52.82,0,0,0-20.71,33.68L971,1237.76l-35.33-.8a10.5,10.5,0,0,0-10.73,10.5v66.91a10.49,10.49,0,0,0,10.5,10.5h73.73l.35,8.92,37.87,730.07c.8,20.94,17.64,33.69,38.59,33.69l358.73-3.31c21.06,0,35.07-10.76,35.72-31.81l34.46-709,.89-28.54H1589a10.5,10.5,0,0,0,10.5-10.5V1262.2A10.5,10.5,0,0,0,1589.25,1251.71Z" transform="translate(-324.74 -231.97)"/><path class="cls-4" d="M1125.93,856.58c-3.15-10-12.64-19.23-23.26-25.13l1.8-7.45,3.91-.88,3.46-19.67-35.8-9.07L1070,813.54l2.38,2.73-1.8,7.45c-12.14.42-24.81,4.36-32.15,11.79-5.56,5.63-18.47,52.17-30.94,101.45-6.05,23.93-12,48.52-17,69.39-3.82,16.08-7,30-9.26,39.62l3.45,1.46A294.81,294.81,0,0,0,1081,1070c1.46-5.82,3.31-13.18,5.41-21.65,3.5-14.15,7.71-31.38,12.07-49.66a25.72,25.72,0,0,1,.43-2.78c.38-2.15.67-4.29-.7-5.8-1.77-2-4.45-3.3-6.8-4.39l-.91-.44c-.61,2.72-1.2,5.44-1.79,8.17-4.6,21.08-9.1,42.18-14.38,63.06-.56,2.23-4,1.28-3.44-1,5.26-20.84,9.76-41.91,14.35-62.94q1-4.54,2-9.07c-1.76-1-3.51-2-5.31-2.89-2.93-1.47-6-2.7-7.86-5.51-.84-1.29-1.51-2.89-1-4.36a5.29,5.29,0,0,1,2.75-2.74c2.93-1.54,6.45-1.82,10.1-1.45l-.92-.47c-2.93-1.47-6-2.7-7.86-5.5-.83-1.3-1.5-2.9-1-4.37a5.22,5.22,0,0,1,2.75-2.74c3.09-1.62,6.84-1.84,10.7-1.38a12.46,12.46,0,0,1-5.27-4.1,3.94,3.94,0,0,1,1.58-6.52c3.28-1.72,7.36-1.72,11.47-1,2.14-8.36,4.4-16.69,6.85-25,.64-2.2,4.09-1.26,3.44,1q-3.63,12.31-6.78,24.75c3.33.82,6.56,1.91,9.24,2.69.35.09.69.2,1,.3h0C1120.68,901.17,1128,863.27,1125.93,856.58Z" transform="translate(-324.74 -231.97)"/><path class="cls-5" d="M1033.49,845.46c-8.58,22.59-22.78,77.61-34.67,126.34l86.44,20.81c-4.59,21-9.09,42.1-14.35,62.94-.57,2.23,2.88,3.18,3.44,1,5.28-20.88,9.78-42,14.38-63.06l10.2,2.46c.38-2.15.67-4.29-.7-5.8-1.77-2-4.45-3.3-6.8-4.39l-.91-.44c-1.12-.55-2.2-1.13-3.28-1.73-1.76-1-3.51-2-5.31-2.89-2.93-1.47-6-2.7-7.86-5.51-.84-1.29-1.51-2.89-1-4.36a5.29,5.29,0,0,1,2.75-2.74c2.93-1.54,6.45-1.82,10.1-1.45l-.92-.47c-2.93-1.47-6-2.7-7.86-5.5-.83-1.3-1.5-2.9-1-4.37a5.22,5.22,0,0,1,2.75-2.74c3.09-1.62,6.84-1.84,10.7-1.38a12.46,12.46,0,0,1-5.27-4.1,3.94,3.94,0,0,1,1.58-6.52c3.28-1.72,7.36-1.72,11.47-1,1.18.2,2.35.45,3.51.73,3.33.82,6.56,1.91,9.24,2.69.35.09.69.2,1,.3,7.09-31.83,13-60.85,14.68-76.5Z" transform="translate(-324.74 -231.97)"/><path class="cls-11" d="M1009.51,1333.79l28,735.31a39,39,0,0,0,39,37.5h377.21a39,39,0,0,0,39-37.78l22.18-715.41Z" transform="translate(-324.74 -231.97)"/><path class="cls-4" d="M1391.66,1434.44H1132.77a22.56,22.56,0,0,0-22.54,23.42l17.65,382.76a23.3,23.3,0,0,0,23.28,22.42h225.42a23.3,23.3,0,0,0,23.29-22.58l14.35-382.76A22.56,22.56,0,0,0,1391.66,1434.44Z" transform="translate(-324.74 -231.97)"/><path class="cls-4" d="M1115.53,1087.1c22,0,43.91,1.25,65.86.85,2.3,0,2.31-3.61,0-3.57-20.89.38-41.78-.77-62.68-.85-17-.07-34.78-.69-51.18,4.35-14.91,4.59-25.6,13.89-31.79,28.18-6,13.79-9.25,29.24-12.9,43.77-5.31,21.15-8.84,42.69-14.41,63.78-.58,2.23,2.87,3.18,3.45,1,8.5-32.2,13.59-65.18,23.47-97,5-16.23,13.36-29,29.84-35.08C1081.1,1086.51,1098.82,1087.12,1115.53,1087.1Z" transform="translate(-324.74 -231.97)"/><path class="cls-4" d="M1574.43,1271.1l-256.35-4.84-72.31-1.37c-2.3,0-2.3,3.53,0,3.57q128.19,2.43,256.36,4.84l72.3,1.38C1576.73,1274.72,1576.73,1271.14,1574.43,1271.1Z" transform="translate(-324.74 -231.97)"/><path class="cls-4" d="M767.41,2093.75q-95.77,1.34-191.45-5.07c-2.29-.14-2.28,3.43,0,3.58q95.58,6.39,191.45,5.06C769.71,2097.29,769.71,2093.72,767.41,2093.75Z" transform="translate(-324.74 -231.97)"/><path class="cls-4" d="M648.21,2026.62c-2.19.66-1.25,4.11,1,3.44a126.6,126.6,0,0,1,52.65-4.61l2.29.3c2.25.32,3.22-3.12.95-3.45-1.48-.21-3-.39-4.46-.56A130.84,130.84,0,0,0,648.21,2026.62Z" transform="translate(-324.74 -231.97)"/><path class="cls-4" d="M702.37,2013.23c-1.23-.17-2.44-.33-3.67-.47a131,131,0,0,0-50.56,4c-2.21.62-1.27,4.07,1,3.44a126.8,126.8,0,0,1,50.27-3.8l2.06.27C703.66,2017,704.63,2013.56,702.37,2013.23Z" transform="translate(-324.74 -231.97)"/><path class="cls-4" d="M649.13,2040.88a152.48,152.48,0,0,1,59.75-5.85l.33,0c2.28.24,2.26-3.34,0-3.57-1.3-.14-2.59-.25-3.89-.35a155.39,155.39,0,0,0-57.14,6.29C646,2038.1,646.93,2041.55,649.13,2040.88Z" transform="translate(-324.74 -231.97)"/><path class="cls-4" d="M445.85,2028.07a210.79,210.79,0,0,0-72.14,4.82c-2.23.54-1.29,4,1,3.44a208,208,0,0,1,71.19-4.69C448.14,2031.88,448.12,2028.31,445.85,2028.07Z" transform="translate(-324.74 -231.97)"/><path class="cls-4" d="M442.41,2019.23a211.29,211.29,0,0,0-68.81,3.59c-2.25.49-1.3,3.94.95,3.45a208.24,208.24,0,0,1,67.86-3.47C444.69,2023.05,444.67,2019.48,442.41,2019.23Z" transform="translate(-324.74 -231.97)"/><path class="cls-4" d="M373.65,2043.48c-2.24.53-1.29,4,1,3.44a248.92,248.92,0,0,1,77.19-5.81c2.29.18,2.28-3.39,0-3.57A252,252,0,0,0,373.65,2043.48Z" transform="translate(-324.74 -231.97)"/><path class="cls-4" d="M493.16,2090.79a520.89,520.89,0,0,1-68.36,4.38c-22.94-.07-46.55-.92-69.09-5.4-2.25-.44-3.21,3-.95,3.45,22.19,4.4,45.32,5.35,67.89,5.51a521,521,0,0,0,70.51-4.37C495.41,2094.07,495.44,2090.49,493.16,2090.79Z" transform="translate(-324.74 -231.97)"/><path class="cls-11" d="M1384.67,1640.7c-.15-1.33-.36-2.65-.61-4a1.52,1.52,0,0,0-1-1.19c-4.75-13.66-20.09-36.2-20.09-36.2l-36.49,36.54,25.66,54.86c-12,4.54-25.57,5.2-38.25,5.58a1.77,1.77,0,0,0-1.73,1.86c-2.85.09-5.28.14-7,.16l-3.09-11.12c-.51-1.82-3.56-1.83-4.57,0l-25.62,45.92a1.71,1.71,0,0,0,.68,2.41l45.6,25.92c1.79,1,4.4-.57,3.89-2.39l-3.21-11.52a82.21,82.21,0,0,0,32.91-13.73,88.61,88.61,0,0,0,35.83-66A85.84,85.84,0,0,0,1384.67,1640.7Z" transform="translate(-324.74 -231.97)"/><path class="cls-11" d="M1291.89,1582.48c1.5,2.45,2.73,4.53,3.59,6l-8.16,8.17c-1.33,1.33.16,4,2.23,4l52.57-.27a1.69,1.69,0,0,0,1.76-1.76l.15-52.46c0-2.07-2.65-3.55-4-2.22l-8.45,8.45a82.26,82.26,0,0,0-28.14-21.89,88.58,88.58,0,0,0-75.09,1.26,86,86,0,0,0-22.18,15.93q-1.62,1.17-3.12,2.46a1.5,1.5,0,0,0-.57,1.41c-9.56,10.86-21.64,35.29-21.64,35.29l49.76,13.8,35.16-49.32c9.88,8.24,17.12,19.77,23.68,30.59A1.73,1.73,0,0,0,1291.89,1582.48Z" transform="translate(-324.74 -231.97)"/><path class="cls-11" d="M1190.42,1695.82c1.29-12.75,6.85-25.31,12.06-36.62a1.9,1.9,0,0,0-.83-2.47c1.19-2.62,2.23-4.81,3-6.35l11.33,2.19c1.85.36,3.23-2.37,2.06-4.08l-29.65-43.41a1.73,1.73,0,0,0-2.47-.47l-43.53,29.25c-1.72,1.16-1.46,4.19.39,4.55l11.73,2.27a82.22,82.22,0,0,0-2.37,35.58,88.61,88.61,0,0,0,43.09,61.51,86,86,0,0,0,25.53,9.43c1.23.45,2.48.85,3.73,1.19a1.62,1.62,0,0,0,1.54-.3c14.32,1.88,41.44-1.81,41.44-1.81l-16.43-49Z" transform="translate(-324.74 -231.97)"/><polygon class="cls-8" points="1191.03 1092.9 684.42 1092.9 684.77 1101.82 684.77 1101.82 1190.14 1121.44 1191.03 1092.9"/><path class="cls-8" d="M994,1240.07c69.3,2.25,138.64,3.63,208,4.93,73.51,1.4,147,2.63,220.52,4.27q56.27,1.26,112.49,3c2.3.08,2.3-3.5,0-3.57q-27.93-.92-55.86-1.65l-14.92-102.37c-2.66-18.3-19.23-31.94-38.79-31.94H1103.22c-19.1,0-35.42,13-38.61,30.81l-16.93,94.52q-26.85-.72-53.69-1.58C991.69,1236.42,991.69,1240,994,1240.07Z" transform="translate(-324.74 -231.97)"/><path class="cls-8" d="M1142.08,2079.73c-22.46,3.66-51.55,7.54-69.44-10.09-19.14-18.86-15-52.21-15.18-76.6l-1.83-188.68q-.51-53.76-1-107.51c0-2.3-3.6-2.31-3.57,0l2,201.85q.49,50.46,1,100.92c.23,23.5-2.37,52.79,15.06,71.42,18.63,19.91,49.82,16.08,74,12.13C1145.29,2082.8,1144.33,2079.36,1142.08,2079.73Z" transform="translate(-324.74 -231.97)"/><path class="cls-8" d="M1486.78,1388.52q-3.73,133.8-7.48,267.6-1.07,38.39-2.14,76.77c-.07,2.3,3.51,2.3,3.57,0q3.74-133.8,7.48-267.6l2.15-76.77C1490.41,1386.21,1486.84,1386.21,1486.78,1388.52Z" transform="translate(-324.74 -231.97)"/><path class="cls-8" d="M1291.89,1582.48a1.66,1.66,0,0,0,.64-2.38c-9.12-15-19.81-31.65-36.45-39.17-15.82-7.14-36-3.35-49.9,6.75q-1.62,1.17-3.12,2.46a1.5,1.5,0,0,0-.57,1.41c-9.56,10.86-21.64,35.29-21.64,35.29l49.76,13.8,35.16-49.32c9.88,8.24,17.12,19.77,23.68,30.59A1.73,1.73,0,0,0,1291.89,1582.48Z" transform="translate(-324.74 -231.97)"/><path class="cls-8" d="M1313.94,1699.91c16.62-.5,34.82-1.54,49.31-10.6,15.82-9.88,23.52-30.36,21.42-48.61-.15-1.33-.36-2.65-.61-4a1.52,1.52,0,0,0-1-1.19c-4.75-13.66-20.09-36.2-20.09-36.2l-36.49,36.54,25.66,54.86c-12,4.54-25.57,5.2-38.25,5.58a1.77,1.77,0,0,0-1.73,1.86A1.63,1.63,0,0,0,1313.94,1699.91Z" transform="translate(-324.74 -231.97)"/><path class="cls-8" d="M1190.42,1695.82c1.29-12.75,6.85-25.31,12.06-36.62a1.9,1.9,0,0,0-.83-2.47,1.51,1.51,0,0,0-2.26.66c-7.59,16.49-15.61,35.22-11.84,53.74,3.33,16.36,17.57,30.39,33.18,36.07,1.23.45,2.48.85,3.73,1.19a1.62,1.62,0,0,0,1.54-.3c14.32,1.88,41.44-1.81,41.44-1.81l-16.43-49Z" transform="translate(-324.74 -231.97)"/><path class="cls-8" d="M578.32,1327q4.92-28.53,8.36-57.27c16.62-4.1,25.18-20.45,29.14-35.93,4.44-17.29,7-35.2,9.73-52.82q19.58-.09,39.14-.08,40.18,0,80.39.16a1.79,1.79,0,0,0,0-3.58c-84.77-.16-169.54-.57-254.3,1.85q-40.06,1.14-80.1,2.84c-2.29.09-2.3,3.66,0,3.57q89.86-3.69,179.72-4.5-1.95,43.14-7,86a1.72,1.72,0,0,0-.16,1.3q-3.43,28.83-8.36,57.46a1.89,1.89,0,0,0,1.51,2.18,1.51,1.51,0,0,0,.28,0A1.45,1.45,0,0,0,578.32,1327ZM622,1181c-2.41,15.3-4.89,30.62-8.16,45.76-3.4,15.73-9.93,34.08-26.66,39.14q4.93-42.21,6.83-84.69Q608,1181.06,622,1181Z" transform="translate(-324.74 -231.97)"/><polygon class="cls-5" points="749.92 560.82 742.37 583.04 747.61 584.29 779.73 592.03 784.97 593.29 788.35 570.07 749.92 560.82"/><path class="cls-8" d="M1042.38,842.72a57,57,0,0,1,65.9,1.37c1.84,1.37,3.63-1.73,1.79-3.09a60.44,60.44,0,0,0-69.5-1.36C1038.68,840.92,1040.46,844,1042.38,842.72Z" transform="translate(-324.74 -231.97)"/><path class="cls-8" d="M1104.17,915.5c-2.45,8.28-4.71,16.61-6.85,25,1.18.2,2.35.45,3.51.73q3.17-12.44,6.78-24.75C1108.26,914.24,1104.81,913.3,1104.17,915.5Z" transform="translate(-324.74 -231.97)"/><path class="cls-8" d="M1087.24,983.54q-1,4.53-2,9.07c-4.59,21-9.09,42.1-14.35,62.94-.57,2.23,2.88,3.18,3.44,1,5.28-20.88,9.78-42,14.38-63.06.59-2.73,1.18-5.45,1.79-8.17C1089.4,984.72,1088.32,984.14,1087.24,983.54Z" transform="translate(-324.74 -231.97)"/><path class="cls-8" d="M1081.12,798.28c.63-2.21-2.82-3.16-3.44-.95l-4.37,15.48c-.63,2.22,2.82,3.16,3.44,1Z" transform="translate(-324.74 -231.97)"/><path class="cls-8" d="M1090,800.41a1.82,1.82,0,0,0-1.24-2.2,1.8,1.8,0,0,0-2.2,1.25q-1.55,7.6-3.11,15.23a1.84,1.84,0,0,0,1.25,2.2,1.81,1.81,0,0,0,2.2-1.25Q1088.41,808,1090,800.41Z" transform="translate(-324.74 -231.97)"/><path class="cls-8" d="M1100.4,802.92c.6-2.22-2.85-3.17-3.45-.95q-2.07,7.63-3.5,15.43a1.84,1.84,0,0,0,1.25,2.2,1.79,1.79,0,0,0,2.19-1.25Q1098.33,810.57,1100.4,802.92Z" transform="translate(-324.74 -231.97)"/><path class="cls-8" d="M1106.27,819.76q1-7.34,2.09-14.65a1.85,1.85,0,0,0-1.25-2.2,1.8,1.8,0,0,0-2.2,1.25c-.7,4.88-1.39,9.77-2.09,14.64a1.85,1.85,0,0,0,1.26,2.2A1.8,1.8,0,0,0,1106.27,819.76Z" transform="translate(-324.74 -231.97)"/><path class="cls-8" d="M510.41,433.84c1.39.18,2.74.42,4,.71A35.31,35.31,0,0,1,531,443.41a93,93,0,0,0,14-23c4.57-10.67,6.14-21.42,8.13-32.79a97.12,97.12,0,0,0,72.42-34.8c-3.8,4.61,22.14,15.36,24.72,16.16,12.69,3.94,26.68,4.24,39.17-.67a55.23,55.23,0,0,0,16.37-9.83c5.89,27.77,7.94,58.75,3.27,87l.14,0c10.7-2.94,20.1-11.71,25.59-21.08,7.43-12.67,9.36-28,7.6-42.61-1.7-14.08-6.84-28-16.11-38.7a31.68,31.68,0,0,0-6.24-5.73c8.06-22.52,1.95-50.94-12.59-71.48-14.2-20.07-39.26-34.83-64.2-33.82a66.23,66.23,0,0,0-27.12,7.12c-1.66.84-19.88,12.15-17.85,14.4a64.6,64.6,0,0,0-51.44-20.73c-20,1.36-42.92,13.75-51.11,32.84-.78,1.81-4.14,18.22-3.09,18.11-22.64,2.3-43.33,18.3-51.25,39.64s-2.65,47,13,63.46a50.27,50.27,0,0,0-5.83,51.67,47.69,47.69,0,0,0,28.08,24.85C477.2,446.15,487.37,430.86,510.41,433.84Z" transform="translate(-324.74 -231.97)"/><path class="cls-8" d="M668.38,430.23a9.78,9.78,0,0,0,4.17,1.83c4,.66,8-1.74,10-5.22a15.57,15.57,0,0,0,1.1-11.67,12.09,12.09,0,0,0-2.88-5.29c-5-5.3-14.16-4.6-17.46,3.78-1.85,4.69-.6,10.28,2.59,14.18A14,14,0,0,0,668.38,430.23Z" transform="translate(-324.74 -231.97)"/><path class="cls-8" d="M581.28,426.84c2,3.48,6.05,5.88,10,5.22a9.79,9.79,0,0,0,4.16-1.83,13.37,13.37,0,0,0,2.48-2.39c3.19-3.9,4.44-9.49,2.59-14.18-3.3-8.38-12.44-9.08-17.45-3.78a12.11,12.11,0,0,0-2.89,5.29A15.66,15.66,0,0,0,581.28,426.84Z" transform="translate(-324.74 -231.97)"/><path class="cls-8" d="M578.07,401.41a27,27,0,0,1,23.25-8.65,1.81,1.81,0,0,0,1.79-1.79,1.83,1.83,0,0,0-1.79-1.79,30.36,30.36,0,0,0-25.78,9.71C574,400.59,576.52,403.13,578.07,401.41Z" transform="translate(-324.74 -231.97)"/><path class="cls-8" d="M665.89,392.37a27,27,0,0,1,23,9.35c1.49,1.75,4-.79,2.52-2.53a30.33,30.33,0,0,0-25.51-10.39C663.62,389,663.59,392.58,665.89,392.37Z" transform="translate(-324.74 -231.97)"/><path class="cls-8" d="M637.3,461.25a19.35,19.35,0,0,0,15.29,1.49c4.5-1.49,9.21-4.95,9.71-10,.54-5.43-4.25-8.87-8.69-10.7-4.23-1.74-10.08-2.93-11.73-7.81s-.68-10.34-1.12-15.4c-.2-2.28-3.78-2.3-3.58,0,.45,5.11-.31,10.36,1,15.39,1.36,5.34,5.71,7.91,10.57,9.77,2.66,1,5.56,1.84,7.77,3.72,2.74,2.32,2.86,5.66.47,8.29-4.4,4.86-12.39,5.17-17.87,2.17C637.08,457.06,635.28,460.14,637.3,461.25Z" transform="translate(-324.74 -231.97)"/><path class="cls-8" d="M491,464.66c-.07-5.21-.07-12.34,5.5-15s10.6,3.23,13.73,7a73.52,73.52,0,0,1,12.67,22.57,12.27,12.27,0,0,0-5.83-2.71c-3.94-.62-8.47.91-9.82,5-1.47,4.53,1.41,9.45,4.39,12.67,3.42,3.68,8.38,5.45,13.1,3.26,2.09-1,.28-4-1.79-3.08-3.52,1.63-7-.63-9.27-3.28-2-2.31-4.75-6.74-2.38-9.61,1.81-2.21,5.46-1.77,7.7-.6,2.7,1.41,4.65,4,6.49,6.37,1.17,1.5,3.36-.16,3-1.74-3.09-12.85-9.65-26.4-19.48-35.49-4.23-3.91-10.2-6.36-15.45-2.78-5.74,3.92-6.2,11-6.11,17.35C487.45,467,491,467,491,464.66Z" transform="translate(-324.74 -231.97)"/><path class="cls-8" d="M622.73,535a209.35,209.35,0,0,1-79.34-14.64c-2.13-.84-3.07,2.61-.94,3.45a212,212,0,0,0,80.28,14.76C625,538.5,625,534.93,622.73,535Z" transform="translate(-324.74 -231.97)"/><path class="cls-8" d="M626.19,488.13a21.93,21.93,0,0,0,19.55-5.27c1.7-1.56-.83-4.08-2.53-2.53a18.1,18.1,0,0,1-16.51,4.24,18.38,18.38,0,0,1-12.07-10.32c-.94-2.1-4-.28-3.08,1.8A21.76,21.76,0,0,0,626.19,488.13Z" transform="translate(-324.74 -231.97)"/><path class="cls-8" d="M629.05,493.55a8.94,8.94,0,0,1-3.69-.55l-.52-.19h0l-.18-.08-1-.54a1.79,1.79,0,0,0-1.81,3.08,13.39,13.39,0,0,0,7.22,1.86,1.79,1.79,0,1,0,0-3.58Z" transform="translate(-324.74 -231.97)"/><polygon class="cls-11" points="412.32 348.73 380 351.02 379.61 370.24 381.92 370.08 413.11 367.87 415.42 367.7 412.32 348.73"/><path class="cls-8" d="M736.08,584.14c2.08-1,.27-4-1.81-3.09C725.73,585,716,583.91,707,583c-2.29-.24-2.27,3.33,0,3.57C716.79,587.56,726.86,588.34,736.08,584.14Z" transform="translate(-324.74 -231.97)"/><path class="cls-8" d="M737.13,608.75a1.8,1.8,0,0,0,.64-2.44,1.83,1.83,0,0,0-2.45-.64,39.08,39.08,0,0,1-24.77,2c-2.23-.56-3.19,2.88-.95,3.44A43.05,43.05,0,0,0,737.13,608.75Z" transform="translate(-324.74 -231.97)"/><path class="cls-8" d="M739.71,661.05a9.81,9.81,0,0,1,.35-2.67q.2-.54.42-1.08a194.26,194.26,0,0,1-52.72,1.3c-2.28-.26-2.26,3.32,0,3.57A196.4,196.4,0,0,0,739.71,661.05Z" transform="translate(-324.74 -231.97)"/><path class="cls-8" d="M689.91,675c-2.25-.37-3.21,3.07-.94,3.44a163.9,163.9,0,0,0,52.35.19c-.17-1.22-.33-2.4-.48-3.53A159.39,159.39,0,0,1,689.91,675Z" transform="translate(-324.74 -231.97)"/><path class="cls-8" d="M690.56,693.1c-2.25-.47-3.21,3-1,3.44a135.27,135.27,0,0,0,54.55.25c-.2-1.17-.39-2.33-.58-3.47A131.45,131.45,0,0,1,690.56,693.1Z" transform="translate(-324.74 -231.97)"/><polygon class="cls-5" points="452.82 382.92 432.48 387.08 425.64 388.48 427.45 404.84 453.86 399.44 457.57 398.69 452.82 382.92"/><path class="cls-8" d="M742.15,660.17c-1.17,2,1.91,3.78,3.09,1.8a39.34,39.34,0,0,1,41.4-18.45c2.25.45,3.21-3,1-3.45A43,43,0,0,0,742.15,660.17Z" transform="translate(-324.74 -231.97)"/><path class="cls-8" d="M805.15,689.9c1.33,8.76,3,17.46,4.71,26.13h3.64c-1.84-9-3.52-18-4.9-27.07C808.25,686.69,804.81,687.65,805.15,689.9Z" transform="translate(-324.74 -231.97)"/><path class="cls-8" d="M755,633.84a1.8,1.8,0,0,0,2.2,1.25,1.85,1.85,0,0,0,1.25-2.2l-1.83-11.14a1.8,1.8,0,0,0-2.2-1.24,1.83,1.83,0,0,0-1.25,2.19Z" transform="translate(-324.74 -231.97)"/><path class="cls-8" d="M762,632a1.8,1.8,0,0,0,2.2,1.25,1.82,1.82,0,0,0,1.25-2.19q-1.27-5.31-2.56-10.61a1.81,1.81,0,0,0-2.2-1.25,1.84,1.84,0,0,0-1.25,2.2Z" transform="translate(-324.74 -231.97)"/><path class="cls-8" d="M769.16,630.76a1.81,1.81,0,0,0,2.2,1.25,1.83,1.83,0,0,0,1.24-2.2q-1.41-5.37-2.36-10.84a1.8,1.8,0,0,0-2.2-1.25,1.84,1.84,0,0,0-1.25,2.19Q767.75,625.39,769.16,630.76Z" transform="translate(-324.74 -231.97)"/><path class="cls-8" d="M775.53,628.87a1.79,1.79,0,0,0,3.45-1c-1-3.3-2-6.61-3-9.92a1.78,1.78,0,1,0-3.44.94Z" transform="translate(-324.74 -231.97)"/><polygon class="cls-9" points="312.87 413.64 291.11 417.52 292.23 430.59 295.2 430.06 313.38 426.82 316.34 426.29 312.87 413.64"/><path class="cls-8" d="M645.16,665.51a34.64,34.64,0,0,0-37,15.3c-1.23,2,1.86,3.74,3.08,1.8a31,31,0,0,1,33-13.66C646.45,669.46,647.41,666,645.16,665.51Z" transform="translate(-324.74 -231.97)"/><path class="cls-8" d="M657.69,705.57c.43,3.49.93,7,1.48,10.46h3.57c-.54-3.48-1-7-1.48-10.46C661,703.32,657.39,703.29,657.69,705.57Z" transform="translate(-324.74 -231.97)"/><path class="cls-8" d="M621.13,650.52a1.79,1.79,0,0,0-2.2-1.24,1.83,1.83,0,0,0-1.24,2.19c.4,3,.82,5.94,1.23,8.91a1.8,1.8,0,0,0,2.2,1.25,1.85,1.85,0,0,0,1.25-2.2C622,656.46,621.54,653.49,621.13,650.52Z" transform="translate(-324.74 -231.97)"/><path class="cls-8" d="M626.14,649.63a1.8,1.8,0,0,0-2.2-1.25,1.84,1.84,0,0,0-1.25,2.2l1.83,8.49a1.78,1.78,0,0,0,2.19,1.25,1.82,1.82,0,0,0,1.25-2.2C627.35,655.29,626.75,652.46,626.14,649.63Z" transform="translate(-324.74 -231.97)"/><path class="cls-8" d="M632,648.58a1.79,1.79,0,0,0-2.2-1.25,1.84,1.84,0,0,0-1.24,2.2q.66,4.38,1.66,8.68a1.79,1.79,0,1,0,3.45-1C633,654.39,632.48,651.5,632,648.58Z" transform="translate(-324.74 -231.97)"/><path class="cls-8" d="M638.82,655.88c-.73-2.66-1.48-5.31-2.21-8a1.79,1.79,0,0,0-3.45,1l2.22,8a1.78,1.78,0,1,0,3.44-1Z" transform="translate(-324.74 -231.97)"/><path class="cls-8" d="M901.68,600.23c-2-1.15-3.8,1.94-1.8,3.08,8.5,4.86,17.47,9.78,27.55,9.66a1.82,1.82,0,0,0,1-3.3,1.59,1.59,0,0,0-.69-.25l-.29,0C918,609.51,909.63,604.77,901.68,600.23Z" transform="translate(-324.74 -231.97)"/><path class="cls-8" d="M918.44,635.91c2.3,0,2.3-3.55,0-3.57a39.09,39.09,0,0,1-23.54-8.06,1.85,1.85,0,0,0-2.52,0,1.79,1.79,0,0,0,0,2.53A42.9,42.9,0,0,0,918.44,635.91Z" transform="translate(-324.74 -231.97)"/><path class="cls-8" d="M852.87,664.56a192.35,192.35,0,0,0,76,25.57c2.25.26,2.23-3.32,0-3.57a188,188,0,0,1-74.22-25.09C852.68,660.32,850.91,663.4,852.87,664.56Z" transform="translate(-324.74 -231.97)"/><path class="cls-8" d="M846.63,680.34a163.33,163.33,0,0,0,73.83,25.88c2.28.23,2.27-3.35,0-3.57a159.48,159.48,0,0,1-72-25.4C846.5,676,844.71,679.08,846.63,680.34Z" transform="translate(-324.74 -231.97)"/><path class="cls-8" d="M839.9,697.13A134.33,134.33,0,0,0,877.41,716h13.87a132.06,132.06,0,0,1-49.57-22C839.84,692.7,838.05,695.8,839.9,697.13Z" transform="translate(-324.74 -231.97)"/><path class="cls-8" d="M808.86,836.91c.7-2.11,56-119.3,56.77-120.86L796.94,829.34H610.23C675.05,832.38,808.32,838.51,808.86,836.91Z" transform="translate(-324.74 -231.97)"/><polygon class="cls-8" points="572.16 600.46 588.86 600.91 589.36 597.37 580.61 597.37 540.92 484.14 572.16 600.46"/><path class="cls-8" d="M589.61,730.85c1-2.06-2.07-3.87-3.09-1.8a507.79,507.79,0,0,0-32.24,84.65,1.78,1.78,0,0,0,3.44.94A502.78,502.78,0,0,1,589.61,730.85Z" transform="translate(-324.74 -231.97)"/><path class="cls-8" d="M462.07,898.55h-1.75a259.14,259.14,0,0,0-70.4,9.85c-2.21.63-1.27,4.08.95,3.45a255.1,255.1,0,0,1,71.2-9.72,1.73,1.73,0,0,0,1.7-2.11A1.66,1.66,0,0,0,462.07,898.55Z" transform="translate(-324.74 -231.97)"/><path class="cls-8" d="M512,748.71c-.83-17.59-2-35.23-4-52.71-1.57-13.26-3.95-26.59-8.88-39-5.16-13.06-13.14-24.5-25-32.22-1.93-1.25-3.72,1.84-1.8,3.09,31.2,20.23,32.44,64.91,34.82,98a937.26,937.26,0,0,1-.18,136.24c-.17,2.29,3.41,2.28,3.58,0A940.45,940.45,0,0,0,512,748.71Z" transform="translate(-324.74 -231.97)"/></svg>