<svg xmlns="http://www.w3.org/2000/svg" xmlns:xlink="http://www.w3.org/1999/xlink" viewBox="0 0 500 500"><defs><style>.cls-1,.cls-12,.cls-14,.cls-15,.cls-16,.cls-18,.cls-20,.cls-21,.cls-8{fill:none;}.cls-2{isolation:isolate;}.cls-3{fill:#f7f4ee;}.cls-4{fill:#fff;}.cls-5,.cls-7{fill:#42301f;}.cls-5{mix-blend-mode:multiply;opacity:0.22;}.cls-6{fill:#c6cc1e;}.cls-8{stroke:#42301f;}.cls-12,.cls-14,.cls-16,.cls-18,.cls-20,.cls-21,.cls-22,.cls-8{stroke-miterlimit:10;}.cls-12,.cls-15,.cls-16,.cls-18,.cls-20,.cls-22,.cls-8{stroke-width:0.5px;}.cls-9{fill:#c47c39;}.cls-10{fill:#5a733b;}.cls-11{fill:#191919;}.cls-12{stroke:#121212;}.cls-13{fill:#5e5e5e;}.cls-14{stroke:#5e5e5e;stroke-width:4px;}.cls-14,.cls-15,.cls-16,.cls-20,.cls-22{stroke-linecap:round;}.cls-15,.cls-16,.cls-22{stroke:#191919;}.cls-15{stroke-linejoin:round;}.cls-17,.cls-22{fill:#ffc2a8;}.cls-18{stroke:#c47c39;}.cls-19{clip-path:url(#clip-path);}.cls-20{stroke:#c6cc1e;}.cls-21{stroke:#383838;}.cls-23{fill:#e2ae73;}.cls-24{fill:#63482f;}</style><clipPath id="clip-path"><path class="cls-1" d="M165.73,180.81c12.73-40.29,22.33-48,22.33-48,40.49-27.59,70.86-5.57,70.86-5.57v0a5.93,5.93,0,0,1,1.06.62,12.34,12.34,0,0,1,2.77,2.77c3.62,4.91,12.44,17.91,15.26,49.5,0,0-6.37,12.08-21.8,10l-.24,0c-3.5,9.73-7.39,18-7.39,18-24.74,17.18-45-3.33-45-3.33a73.94,73.94,0,0,1-8.73-19.55C175.77,184.16,165.73,180.81,165.73,180.81Z"/></clipPath></defs><g class="cls-2"><g id="BACKGROUND"><rect class="cls-3" width="500" height="500"/><circle class="cls-4" cx="237.62" cy="193.28" r="160.6" transform="translate(-67.08 224.63) rotate(-45)"/></g><g id="OBJECTS"><path class="cls-5" d="M67.65,440.08c0,2.11,8.28,3.81,18.48,3.81s18.47-1.7,18.47-3.81-8.27-3.8-18.47-3.8S67.65,438,67.65,440.08Z"/><path class="cls-6" d="M94,222.26s-15.33-5.2-14.36-25.72,5.13-20,11.37-37.47,45-15.19,45-15.19-11.49.88-14.46,9.47-1.88,36.4-8.06,42.52S100.4,216.52,94,222.26Z"/><path class="cls-7" d="M115.91,191.52l-12.75-4.12s-23,3.34-22.3,20.08A22.81,22.81,0,0,0,94,222.26c6.42-5.74,13.33-20.28,19.51-26.39A11.47,11.47,0,0,0,115.91,191.52Z"/><path class="cls-6" d="M77.81,312.63s.67-4.27-2.59-11.2a18.85,18.85,0,0,0-10.77-9.93c-1.75-.59-18.19,1.17-18.19,1.17s5.59,4.75,14.52,12.18S77.81,312.63,77.81,312.63Z"/><path class="cls-7" d="M126.23,217.92s7.34-14.65,0-23L99.65,209.62S126.47,199.89,126.23,217.92Z"/><path class="cls-6" d="M99.39,302.87s-10-12.75,2.08-29.38,15.25-13.9,30-25.11,46,12,46,12-10.1-5.56-17.29,0-21.52,29.41-30,31.14S107.91,301.59,99.39,302.87Z"/><path class="cls-8" d="M83.25,353.77c3.34-24.54,16-72.38,63.54-101.79"/><path class="cls-8" d="M83.25,353.77c16.4-94.59-1.18-149.39,22.49-200.06"/><path class="cls-6" d="M71.62,252s-5.38,4.08-16.26-10.06-12.69-22.19-20.7-28.18-.67-22.69-18-22.4c0,0,22.91-.87,40.06,5.44s20,22.09,22.7,29.05S71.62,252,71.62,252Z"/><path class="cls-8" d="M49.55,203.6s42.4,64,33.79,149.6"/><path class="cls-6" d="M88.8,232.22S85.11,202.53,94.86,192s29.38-1.89,32.61,4.83C127.47,196.78,116.67,193.4,88.8,232.22Z"/><path class="cls-8" d="M79,279.13s6.06-58.91,28.89-85.73"/><path class="cls-8" d="M84.46,326.69s-1.33-11-17.44-28.13"/><path class="cls-9" d="M102.44,440.19l-.14,0a64,64,0,0,1-32.48,0h0l-15.38-106h63.38Z"/><path class="cls-7" d="M117.74,334.2c0,1.64-14.19,3-31.69,3s-31.69-1.32-31.69-3,14.19-3,31.69-3S117.74,332.57,117.74,334.2Z"/><path class="cls-10" d="M196,392.08a3.42,3.42,0,0,1-.71-.07,2.94,2.94,0,0,1-2.16-2l-29-98.36,5.65-1.67,27.51,93.36,92.39-100.88,4.34,4L198.14,391.13A2.93,2.93,0,0,1,196,392.08Z"/><rect class="cls-11" x="160.37" y="256.59" width="3.36" height="34.89" transform="translate(-70.86 56.99) rotate(-16.42)"/><path class="cls-9" d="M130.2,253.86s-1.94-6.54,1.73-6.45,10.73,2.12,20.18.74,34.94-3,32,2.68-19.33,4.59-21.61,5.4-11.27,4-15.23,3C141.56,257.8,129.47,255.86,130.2,253.86Z"/><polyline class="cls-12" points="93.47 316.55 107.52 362.18 111.85 360.73 104.83 313.86"/><polyline class="cls-12" points="118.78 314.12 107.75 360.58 112.22 361.52 129.94 317.57"/><polyline class="cls-12" points="56.53 342.51 98.73 364.84 100.77 360.76 62.67 332.58"/><polyline class="cls-12" points="72.71 322.89 97.76 363.54 101.59 361.05 83.04 317.44"/><polyline class="cls-12" points="48.77 386.99 94.4 372.94 92.95 368.61 46.09 375.62"/><polyline class="cls-12" points="46.34 361.67 92.8 372.7 93.75 368.24 49.79 350.52"/><polyline class="cls-12" points="74.73 423.93 97.06 381.73 92.98 379.69 64.8 417.79"/><polyline class="cls-12" points="55.11 407.75 95.76 382.69 93.27 378.86 49.66 397.42"/><polyline class="cls-12" points="119.21 431.69 105.16 386.06 100.83 387.5 107.84 434.37"/><polyline class="cls-12" points="93.89 434.12 104.92 387.66 100.45 386.71 82.74 430.67"/><polyline class="cls-12" points="156.15 405.73 113.95 383.39 111.91 387.48 150.01 415.66"/><polyline class="cls-12" points="139.97 425.34 114.91 384.69 111.08 387.18 129.63 430.79"/><polyline class="cls-12" points="163.91 361.25 118.28 375.3 119.72 379.63 166.59 372.61"/><polyline class="cls-12" points="166.34 386.56 119.88 375.54 118.93 380 162.89 397.72"/><polyline class="cls-12" points="137.95 324.31 115.61 366.51 119.7 368.55 147.88 330.45"/><polyline class="cls-12" points="157.56 340.49 116.92 365.54 119.4 369.37 163.01 350.82"/><polyline class="cls-12" points="317.49 312.84 331.54 358.48 335.87 357.03 328.86 310.16"/><polyline class="cls-12" points="342.8 310.41 331.78 356.87 336.24 357.82 353.96 313.86"/><polyline class="cls-12" points="280.55 338.8 322.75 361.14 324.79 357.05 286.69 328.87"/><polyline class="cls-12" points="296.73 319.19 321.79 359.83 325.61 357.35 307.06 313.74"/><polyline class="cls-12" points="272.79 383.28 318.42 369.24 316.98 364.9 270.11 371.92"/><polyline class="cls-12" points="270.36 357.97 316.82 369 317.76 364.53 273.81 346.81"/><polyline class="cls-12" points="298.75 420.22 321.08 378.02 317 375.98 288.82 414.08"/><polyline class="cls-12" points="279.13 404.04 319.78 378.99 317.29 375.16 273.69 393.71"/><polyline class="cls-12" points="343.23 427.98 329.18 382.35 324.85 383.8 331.86 430.67"/><polyline class="cls-12" points="317.92 430.41 328.94 383.95 324.48 383.01 306.76 426.96"/><polyline class="cls-12" points="380.17 402.02 337.97 379.69 335.93 383.77 374.03 411.95"/><polyline class="cls-12" points="363.99 421.64 338.93 380.99 335.1 383.48 353.66 427.09"/><polyline class="cls-12" points="387.93 357.54 342.3 371.59 343.74 375.92 390.61 368.91"/><polyline class="cls-12" points="390.36 382.86 343.9 371.83 342.95 376.3 386.91 394.01"/><polyline class="cls-12" points="361.97 320.6 339.63 362.8 343.72 364.84 371.9 326.74"/><polyline class="cls-12" points="381.58 336.79 340.94 361.84 343.42 365.67 387.03 347.12"/><path class="cls-11" d="M107,444.57a68.16,68.16,0,1,1,67-69.28A68.23,68.23,0,0,1,107,444.57ZM105,321.3a55.12,55.12,0,1,0,56,54.21A55.2,55.2,0,0,0,105,321.3Z"/><path class="cls-11" d="M331,440.87a68.16,68.16,0,1,1,67-69.28A68.24,68.24,0,0,1,331,440.87ZM329,317.6a55.12,55.12,0,1,0,56,54.2A55.19,55.19,0,0,0,329,317.6Z"/><path class="cls-11" d="M195.67,374.93a12.32,12.32,0,1,0,12.52,12.12A12.32,12.32,0,0,0,195.67,374.93Zm.06,3.56a8.11,8.11,0,0,1,1,0c.07,2,.1,7.64-1.64,7.39s-3.88-4.07-4.64-5.53A8.64,8.64,0,0,1,195.73,378.49Zm-6.61,14.33a8.76,8.76,0,0,1-2-5.43c0-.12,0-.24,0-.37,2.4,0,6.81.12,6.59,1.67S190.86,391.84,189.12,392.82ZM196,396a7.9,7.9,0,0,1-1.2-.07c0-2.47.26-6.09,1.67-5.89s3.12,2.83,4.11,4.57A8.75,8.75,0,0,1,196,396Zm8.45-7.07c-2.4,0-6.85-.1-6.63-1.66s4-3.83,5.49-4.62a8.64,8.64,0,0,1,1.3,4.44A9.27,9.27,0,0,1,204.47,388.94Z"/><rect class="cls-13" x="200.95" y="397.35" width="21.03" height="8.72" rx="2.37" transform="translate(422.92 803.42) rotate(180)"/><line class="cls-14" x1="212.04" y1="399.93" x2="196.21" y2="388.08"/><path class="cls-11" d="M106.23,359.41a15,15,0,1,0,15.24,14.74A15,15,0,0,0,106.23,359.41Zm-2,3.86c.71,3.11,1.51,8-.37,8.12-1.72.15-4.37-2.32-6.13-4.2A11.37,11.37,0,0,1,104.2,363.27Zm-9.09,11.32a11.85,11.85,0,0,1,.08-1.47c3.17.29,8.06,1,7.62,2.86s-3.57,3.45-5.9,4.54A11.34,11.34,0,0,1,95.11,374.59Zm11.56,11.18a11.31,11.31,0,0,1-4.9-1c1.26-2.92,3.48-7.35,5.09-6.37s2.18,4.47,2.49,7A11.25,11.25,0,0,1,106.67,385.77ZM108.51,371c-.67-1.6.86-4.88,2.1-7.13a11.36,11.36,0,0,1,5.75,5C113.63,370.41,109.24,372.69,108.51,371Zm6.36,11.11c-2.4-2.09-5.92-5.57-4.49-6.8s4.91-.69,7.44-.2A11.28,11.28,0,0,1,114.87,382.06Z"/><path class="cls-13" d="M106.46,373.54a1.28,1.28,0,1,0,1.29,1.25A1.27,1.27,0,0,0,106.46,373.54Z"/><path class="cls-11" d="M329.23,355.45a15,15,0,1,0,15.23,14.74A15,15,0,0,0,329.23,355.45Zm-2,3.86c.7,3.11,1.5,8-.38,8.12-1.72.14-4.37-2.32-6.12-4.2A11.34,11.34,0,0,1,327.2,359.31Zm-9.1,11.32a12.12,12.12,0,0,1,.09-1.48c3.17.29,8.05,1,7.61,2.87s-3.57,3.45-5.9,4.54A11.34,11.34,0,0,1,318.1,370.63Zm11.56,11.18a11.26,11.26,0,0,1-4.89-1c1.25-2.92,3.47-7.35,5.08-6.37s2.18,4.47,2.49,7A11.25,11.25,0,0,1,329.66,381.81ZM331.5,367c-.67-1.59.86-4.87,2.11-7.13a11.51,11.51,0,0,1,5.75,5C336.62,366.45,332.23,368.72,331.5,367Zm6.36,11.12c-2.39-2.09-5.92-5.58-4.49-6.81s4.92-.68,7.44-.19A11.28,11.28,0,0,1,337.86,378.1Z"/><path class="cls-13" d="M329.45,369.58a1.27,1.27,0,1,0,1.3,1.25A1.27,1.27,0,0,0,329.45,369.58Z"/><path class="cls-10" d="M196.25,386.2l-77.53-10.94-7.29-14.55,61.33-52.6L286.69,274,285,268.34,169.87,302.82l-64.36,54.45a3.28,3.28,0,0,0-.83,4l8.56,17.6h0a2.92,2.92,0,0,0,2.35,2l80,11.28a3.71,3.71,0,0,0,.47,0,2.94,2.94,0,0,0,2.89-2.87A3,3,0,0,0,196.25,386.2Z"/><path class="cls-10" d="M329.8,373.83a3,3,0,0,1-2.72-1.71l-35.95-77.68,0-.12-11-30.53a2.94,2.94,0,1,1,5.54-2l11,30.41,35.84,77.44a3,3,0,0,1-1.43,3.91A3,3,0,0,1,329.8,373.83Z"/><path class="cls-11" d="M280.21,267.94l-6.46-15.85a4.21,4.21,0,0,1,2.26-5.47l13.58-5.72,3.27,7.75-9.76,4.11,4.9,12Z"/><path class="cls-11" d="M296.65,244a6.14,6.14,0,1,1-6.24-6A6.14,6.14,0,0,1,296.65,244Z"/><path class="cls-5" d="M71.49,444.09c0,1.92,65.87,2,147,.25s146.93-4.77,146.89-6.68-65.87-2-147-.25S71.44,442.18,71.49,444.09Z"/><path class="cls-5" d="M337.32,456.76c0,1.91,19.08,3.47,42.61,3.47s42.61-1.56,42.61-3.47-19.08-3.47-42.61-3.47S337.32,454.84,337.32,456.76Z"/><path class="cls-10" d="M385.71,262.56s-9.14,23.17-16.28,31.44-16.69,46,16.28,41.48c0,0,12.31,10.18,23.43,1.69,0,0,20.26-1.36,19.47-11.87s-12.32-37.25-23.44-50.06l-11.12-12.81Z"/><path class="cls-10" d="M386,263.34s-3-16.89,0-19.55,1.19,3.05,6.26,3.78,6.57-2.27,8.95,1.31-8.27,15.6-8.27,15.6Z"/><path class="cls-15" d="M388,266.28S382.42,297,389.47,299s.5-34.54.5-34.54,2.55,6.32,4.3,5.07-3.32-6.21-3.32-6.21a13.62,13.62,0,0,0,2.13-5.15"/><path class="cls-6" d="M343.71,448.69h76.12a3.9,3.9,0,0,0,3.89-3.65l8.75-136.42a3.9,3.9,0,0,0-3.89-4.15H335a3.9,3.9,0,0,0-3.89,4.15L339.82,445A3.9,3.9,0,0,0,343.71,448.69Z"/><rect class="cls-6" x="325.96" y="300.55" width="111.61" height="12.58" rx="3.06" transform="translate(763.54 613.68) rotate(180)"/><line class="cls-16" x1="434.52" y1="313.13" x2="329.02" y2="313.13"/><polygon class="cls-10" points="378.89 370.82 364.28 362.51 369.46 370.17 378.89 370.82"/><polygon class="cls-10" points="374.8 350.25 388.15 349.81 376.46 369.47 366.63 363.99 374.8 350.25"/><polygon class="cls-6" points="382.79 358.93 383.48 357.57 379.88 349.73 382.79 358.93"/><path class="cls-10" d="M392.5,349.67a1.4,1.4,0,0,1,.35.45l7.5,16.34a1.54,1.54,0,0,1-.75,2l-7.84,3.91a1.42,1.42,0,0,1-1.95-.64l-9.88-21.63Z"/><polygon class="cls-10" points="375.79 387.97 374.92 405.16 379.35 396.55 375.79 387.97"/><polygon class="cls-10" points="359.55 402.5 353.31 391.06 375.67 390.81 375.18 402.32 359.55 402.5"/><path class="cls-10" d="M351.28,387.35a1.64,1.64,0,0,1,.24-.56l11-15.25a1.52,1.52,0,0,1,2.07-.41l6.86,4.77a1.43,1.43,0,0,1,.3,2l-14.63,20.17Z"/><polygon class="cls-6" points="362.34 390.96 363.64 389.16 353.31 391.06 362.34 390.96"/><polygon class="cls-10" points="390.62 381.73 405.04 371.58 395.64 373.43 390.62 381.73"/><polygon class="cls-10" points="411.25 385.69 405.37 397.96 392.99 380.04 402.6 373.16 411.25 385.69"/><path class="cls-10" d="M403.45,402a1.42,1.42,0,0,1-.58.15l-18.38.71A1.38,1.38,0,0,1,383,401.4l.13-8.57a1.58,1.58,0,0,1,1.5-1.53l24.32-.9Z"/><polygon class="cls-6" points="400.37 390.72 398.2 390.8 405.37 397.96 400.37 390.72"/><rect class="cls-7" x="347.69" y="439.73" width="9.95" height="17.92" rx="3.77"/><rect class="cls-7" x="407.04" y="439.73" width="9.95" height="17.92" rx="3.77"/><rect class="cls-6" x="399.06" y="253.09" width="111.61" height="12.58" rx="3.06" transform="translate(30.99 566.8) rotate(-65.65)"/><ellipse class="cls-5" cx="250.71" cy="456.44" rx="73.41" ry="8.15"/><path class="cls-17" d="M225,241s.21,109.83-13,115.45c0,0-8.35,50.55-2.7,88.53,0,0-6.29,4.28-15.93-1.84,0,0-23.94-64.27-7.06-99.7,0,0-14-88.51-2.14-109.32S225,241,225,241Z"/><path class="cls-4" d="M183,403.53s17.44,2.84,24.59,0c0,0-.18,36.25,1.76,41.49l-15.9-1.83S185.13,420.11,183,403.53Z"/><path class="cls-16" d="M184.87,412.63a43.63,43.63,0,0,0,22.43,0"/><line class="cls-16" x1="186.32" y1="403.99" x2="187.6" y2="413.36"/><line class="cls-16" x1="193.19" y1="404.63" x2="193.78" y2="413.89"/><line class="cls-16" x1="200.61" y1="404.73" x2="200.21" y2="413.89"/><line class="cls-16" x1="206.54" y1="403.87" x2="206.19" y2="412.63"/><path class="cls-17" d="M273.7,333.73c-5.44-17.7-5.32-63.05-24.85-106.78L197,232.82S208.23,274,247.1,341.76c0,0,.75,18.91,5.8,31.24,16.29,39.77,19.77,47.74,27.49,66.43,3.19.64,4.57,5,13.26,2.56C293.76,413.17,285.81,373.16,273.7,333.73Z"/><path class="cls-4" d="M265,402.36s16.69-.66,24.08-6.16c0,0,5.21,27.46,4.59,47.52l-12.24-2.12S268.8,411.6,265,402.36Z"/><path class="cls-16" d="M268.63,411.13s14.19,1.18,22-4.63"/><line class="cls-16" x1="269.25" y1="402.2" x2="273.1" y2="411.23"/><line class="cls-16" x1="276.18" y1="401.2" x2="278.82" y2="410.62"/><line class="cls-16" x1="282.76" y1="399.38" x2="284.81" y2="409.39"/><line class="cls-16" x1="288.26" y1="397.01" x2="289.54" y2="407.24"/><path class="cls-9" d="M280,438.9s-4.93,11.74-3.44,16.55l44.44,1s2.38-10.4-23.66-17.23Z"/><path class="cls-9" d="M288.91,440.08l-3.36-4.9s6.57-3.74,11.56-1.36l.5,5.54Z"/><path class="cls-16" d="M294.27,441.69c3.15-2.6,7.29-1.28,7.29-1.28"/><path class="cls-16" d="M304.76,442s-4.26-1.1-7.15,1.15"/><path class="cls-16" d="M277.58,445.83s8.84,1.06,8.84,7"/><line class="cls-16" x1="320.6" y1="453.35" x2="276.27" y2="452.79"/><path class="cls-7" d="M200.82,200.94s-17.62,27.65-19.33,40.8l75.18,5.73s-.35-15.12-8.09-39.3C248.58,208.17,225.06,215.2,200.82,200.94Z"/><path class="cls-17" d="M194.15,129.34h0c-2.65,1-5.36,2.39-6.85,4.81C177.53,150.1,162.19,201,162.19,201L191,195.64l3.89-32.29S218.88,141.65,194.15,129.34Z"/><path class="cls-17" d="M259.48,128.21a42.19,42.19,0,0,1,9.83,25.13c.56,15.16,7.83,41.06,7.83,41.06L311,216.92s-10,4-12.6,13.32L259.16,211a4.64,4.64,0,0,1-2.57-3.62l-6.32-53.9Z"/><path class="cls-10" d="M278,180.19s-6.37,12.08-21.8,10,0-63.09,0-63.09h2.19a4.11,4.11,0,0,1,1.58.78,12.34,12.34,0,0,1,2.77,2.77C266.37,135.6,275.19,148.6,278,180.19Z"/><path class="cls-10" d="M258.92,127.26s-30.37-22-70.86,5.57L193,175.62s.85,13.82,10.6,29.22c0,0,20.25,20.51,45,3.33,0,0,14.25-30.27,12.75-43.22Z"/><path class="cls-7" d="M177.52,338.85c.3-33.6-12.93-60.17,11-116l65.06,3.61S276.13,324.63,278,346.94c0,0-23.52,10.62-32,7-6.17-2.61-21.22-53.89-21.22-53.89s-4.49,39.48-6.51,50.87S177.34,359.42,177.52,338.85Z"/><polyline class="cls-18" points="224.8 300.09 234.22 271.95 245.06 260.56"/><path class="cls-9" d="M213,443.53l-19.55-.34s-2.71,3.47-4.69,18.95l38,.65s1.19-9.14-8.72-12.84Z"/><path class="cls-9" d="M202.69,445.35l-2.33-5.5s4.76-3.84,13.66-1.12l-.12,6.62Z"/><polyline class="cls-16" points="226.4 459.04 200.45 459.04 189.24 458.44"/><path class="cls-16" d="M190.59,451.29s7.51-.42,8.39,7.45"/><path class="cls-16" d="M217.1,448.84s-6.43-1.89-9.28,1.36"/><path class="cls-16" d="M214.7,445.77s-6.29-1.62-8.94,1.53"/><path class="cls-10" d="M188.06,132.83s-9.6,7.69-22.33,48c0,0,10.06,3.36,29.19,4.48l-1.36-12,3.36-12.72c1.16-9.61,1.76-24.35-7.47-27.25Z"/><g class="cls-19"><path class="cls-20" d="M260.86,120.57s-27.17,7.89-68.09-3.29"/><path class="cls-20" d="M272.42,128.62s-34.91,11.78-88.78-.48"/><path class="cls-20" d="M277.08,140.94s-39.6,12-100.53,0"/><path class="cls-20" d="M282.89,156.3S238.14,166.57,170.74,152"/><path class="cls-20" d="M279,170.62s-44,19.49-112.36-2.51"/><path class="cls-20" d="M284.78,187.5S240.83,207,172.43,185"/></g><path class="cls-16" d="M265,152.37l-3.32,10.22s9.69,20.35-5,23.1l-.46,4.54"/><polyline class="cls-16" points="199.69 158.8 196.22 173.34 194.87 185.29"/><path class="cls-21" d="M277.14,194.4a12.31,12.31,0,0,0-10.32,6"/><path class="cls-7" d="M241.08,101.1s6.16,5.53,14.64,25.26c9.83,22.89,5.48,26.14,5.48,26.14s-7.11-6.87-14.95-21.32S241.08,101.1,241.08,101.1Z"/><path class="cls-17" d="M239.34,112.87,238,122.71s7.31,9.27,3.94,11.24-10.77.28-22.58-11.93L221,93.92Z"/><path class="cls-17" d="M226,58.4c27.41-7.09,30.35,24.92,30.49,25.71,2.51,14.67-4.65,32.79-11.36,33.22-20.33,1.33-24.24-18.67-24.24-18.67-.49-1.18-9-12.82-9.35-14.1C207.8,69.62,210,62.54,226,58.4Z"/><path class="cls-7" d="M246.86,66.73s-1.89,23-26.19,25.06h0l-.55,16.88c.54,6.52-7.59,4.38-13.89-4.2C194.05,87.9,201,64,220,56.07c15-6.25,36,9.07,39.8,15.15,6.37,10.19-4,10.66-3.25,12.89C256.5,84.11,254.05,70.62,246.86,66.73Z"/><path class="cls-17" d="M213.23,100.08c1,3.5,4.46,5.58,7.62,4.64s4.89-4.55,3.84-8-4.45-5.58-7.61-4.64S212.19,96.57,213.23,100.08Z"/><path class="cls-8" d="M246.86,66.73s1.27,10.78-5.83,16.83"/><path class="cls-8" d="M202.26,83.4s-5.9,30.88,16.8,28.06"/><path class="cls-7" d="M251.31,86.28a.82.82,0,0,1-.62-1.25,2.84,2.84,0,0,1,2.5-1.47c2.48,0,3.15,1.49,2.76,2.27C255.67,86.38,252.88,86.34,251.31,86.28Z"/><path class="cls-7" d="M233.35,88.68a.79.79,0,0,1-1-1,2.88,2.88,0,0,1,1.89-2.22c2.35-.87,3.47.33,3.35,1.19C237.52,87.3,234.87,88.21,233.35,88.68Z"/><path class="cls-16" d="M236.13,102.08s2.73,2.91,7.9,1.59"/><path class="cls-11" d="M237.4,92.4c.09.9-.33,1.67-.92,1.72s-1.13-.62-1.21-1.52.33-1.66.92-1.72S237.32,91.51,237.4,92.4Z"/><path class="cls-11" d="M253.62,91.53c.07.8-.3,1.48-.82,1.53s-1-.56-1.08-1.35.3-1.48.82-1.52S253.54,90.74,253.62,91.53Z"/><path class="cls-22" d="M248.5,91.83s-.23,1.8,2,2.17c1.29.22-.55,4.71-2.71,4"/><path class="cls-16" d="M234.68,91.62a4.11,4.11,0,0,1,4-.47"/><path class="cls-16" d="M251.53,90.72a2.75,2.75,0,0,1,3.18-.38"/><path class="cls-15" d="M217.88,96.47a6.66,6.66,0,0,1,3.19,2.76,4.87,4.87,0,0,0-3,1.06"/><path class="cls-16" d="M240.41,117s-10-.45-15.47-9.17"/><path class="cls-7" d="M218,109.11s5.92,6.76,7.69,28.17c2.37,28.52-1.37,26.67-1.37,26.67s-5.12-8.47-9-24.43S218,109.11,218,109.11Z"/><path class="cls-10" d="M237,213.12a9,9,0,0,1-4,1.3l.79,1.73a11.63,11.63,0,0,1-7.47,1.22l.33.64s-1.49,2.61-2.54,2.87L223,204.19Z"/><path class="cls-10" d="M305,234.32l-.15,2.34s-5.58-.87-7.6-4.77Z"/><polygon class="cls-23" points="283.76 251.8 219.13 248.97 219.13 185.68 283.76 186.46 283.76 251.8"/><polygon class="cls-9" points="305.83 248.62 282.89 251.8 282.89 186.46 305.83 183.28 305.83 248.62"/><polygon class="cls-24" points="219.13 185.68 283.76 186.46 305.83 183.28 235.89 183.28 219.13 185.68"/><path class="cls-17" d="M314.38,210s-4.51-5.33-3.57-7.85c2.29-6.18-.73-5.54-2.72-3.34-1.27,1.4-.95,1.74-2,4.32a18.55,18.55,0,0,1-3.76,5.28Z"/><path class="cls-17" d="M305.4,208.38c.66,0,6.37-1.26,7-.87,6.58,4.42,4.31,22.68-3.55,23.33a20.47,20.47,0,0,1-9.14-1.49c-5.44-2.46-2-5.2-2-5.2s-2.94-1.13-2.6-3.58c.41-3.07,3.58-.94,3.58-.94s-5-.76-6-3.29c-.9-2.16,2.79-2.44,3.28-2.61,0,0-2.9-1.55.36-3.91S303.14,208.4,305.4,208.38Z"/><polyline class="cls-16" points="295.84 213.73 303.92 214.73 309.9 213.34"/><polyline class="cls-16" points="296.04 219.03 304.12 220.03 310.1 218.64"/><polyline class="cls-16" points="297.5 224.16 305 225.14 310.98 223.75"/><polygon class="cls-9" points="319.13 206.34 296.19 209.53 282.89 186.46 305.83 183.28 319.13 206.34"/><polygon class="cls-9" points="219.13 208.07 219.13 212.28 274.63 213.83 285.52 186.46 219.13 208.07"/><path class="cls-17" d="M179.52,186.26s22,9.78,34.63,11.7L206,212s-.93.11-10.66,2c-17.17,3.38-30.82,2.1-33.59-7C158.45,196,179.52,186.26,179.52,186.26Z"/><path class="cls-17" d="M213.94,216.92c-.66-.11-7.5-3.81-7.9-4.9-.53-1.44-4.24-15.1,12-14.29,4.91.24,13.5,5.22,14.47,5.83,4.86,3.07,1.13,4.65,1.13,4.65s5.13,2,4.23,4.09c-1.11,2.53-7.17-.18-7.17-.18s4.6,2,3.09,4c-1.25,1.69-6.66-.37-7.18-.31,0,0,1.83,2.61-2.28,3C221.07,219.17,216.2,217.31,213.94,216.92Z"/><path class="cls-17" d="M212,198.43a18.06,18.06,0,0,0,7.61-5.94c3.81-5.63,5.72-6,5.9-3.74a7,7,0,0,1-1.35,5c-2.4,2.81.68,6.33.68,6.33S213.15,200.18,212,198.43Z"/><path class="cls-16" d="M194.92,192.44s-10.85-5-23.92,3.2"/><line class="cls-16" x1="233.62" y1="208.21" x2="222.59" y2="203.5"/><line class="cls-16" x1="231.54" y1="212.39" x2="220.37" y2="207.47"/><line class="cls-16" x1="226.81" y1="215.75" x2="218.77" y2="212.1"/><polygon class="cls-23" points="269.82 210.16 205.18 208.57 219.13 185.68 283.76 186.46 269.82 210.16"/></g></g></svg>