<svg xmlns="http://www.w3.org/2000/svg" viewBox="0 0 360.34 207.62"><defs><style>.cls-1{isolation:isolate;}.cls-2{fill:#5a733b;}.cls-3{fill:#191919;}.cls-4{fill:#c47c39;}.cls-5,.cls-7{fill:none;stroke-miterlimit:10;}.cls-5{stroke:#121212;stroke-width:0.5px;}.cls-6{fill:#5e5e5e;}.cls-7{stroke:#5e5e5e;stroke-linecap:round;stroke-width:4px;}.cls-8{fill:#42301f;mix-blend-mode:multiply;opacity:0.22;}</style></defs><g class="cls-1"><g id="Layer_2" data-name="Layer 2"><g id="OBJECTS"><path class="cls-2" d="M158.31,154.09a3,3,0,0,1-2.87-2.11l-29-98.37L132.1,52l27.52,93.36L252,44.43l4.34,4-95.9,104.72A2.94,2.94,0,0,1,158.31,154.09Z"/><rect class="cls-3" x="122.66" y="18.6" width="3.36" height="34.89" transform="translate(-5.12 36.62) rotate(-16.42)"/><path class="cls-4" d="M92.49,15.87s-1.94-6.54,1.73-6.45,10.73,2.11,20.18.74,34.94-3,32,2.68-19.33,4.59-21.61,5.4-11.27,4-15.23,3C103.85,19.81,91.76,17.86,92.49,15.87Z"/><polyline class="cls-5" points="55.76 78.56 69.81 124.19 74.14 122.74 67.13 75.87"/><polyline class="cls-5" points="81.07 76.13 70.05 122.58 74.51 123.53 92.23 79.58"/><polyline class="cls-5" points="18.82 104.52 61.02 126.85 63.06 122.77 24.96 94.58"/><polyline class="cls-5" points="35 84.9 60.06 125.55 63.89 123.06 45.33 79.45"/><polyline class="cls-5" points="11.06 149 56.69 134.95 55.25 130.62 8.38 137.63"/><polyline class="cls-5" points="8.63 123.68 55.09 134.71 56.04 130.24 12.08 112.53"/><polyline class="cls-5" points="37.02 185.94 59.36 143.74 55.27 141.7 27.09 179.8"/><polyline class="cls-5" points="17.41 169.75 58.05 144.7 55.56 140.87 11.96 159.42"/><polyline class="cls-5" points="81.5 193.7 67.45 148.06 63.12 149.51 70.13 196.38"/><polyline class="cls-5" points="56.19 196.13 67.21 149.67 62.75 148.72 45.03 192.68"/><polyline class="cls-5" points="118.44 167.74 76.24 145.4 74.2 149.49 112.3 177.67"/><polyline class="cls-5" points="102.26 187.35 77.2 146.71 73.38 149.19 91.93 192.8"/><polyline class="cls-5" points="126.2 123.26 80.57 137.31 82.02 141.64 128.88 134.62"/><polyline class="cls-5" points="128.63 148.57 82.17 137.54 81.22 142.01 125.18 159.73"/><polyline class="cls-5" points="100.24 86.32 77.9 128.52 81.99 130.56 110.17 92.46"/><polyline class="cls-5" points="119.86 102.5 79.21 127.55 81.7 131.38 125.3 112.83"/><polyline class="cls-5" points="279.78 74.85 293.83 120.48 298.16 119.04 291.15 72.17"/><polyline class="cls-5" points="305.1 72.42 294.07 118.88 298.54 119.83 316.25 75.87"/><polyline class="cls-5" points="242.84 100.81 285.04 123.15 287.08 119.06 248.98 90.88"/><polyline class="cls-5" points="259.02 81.2 284.08 121.84 287.91 119.36 269.35 75.75"/><polyline class="cls-5" points="235.08 145.29 280.71 131.24 279.27 126.91 232.4 133.93"/><polyline class="cls-5" points="232.65 119.98 279.11 131 280.06 126.54 236.1 108.82"/><polyline class="cls-5" points="261.04 182.23 283.38 140.03 279.29 137.99 251.11 176.09"/><polyline class="cls-5" points="241.43 166.05 282.07 141 279.59 137.17 235.98 155.72"/><polyline class="cls-5" points="305.52 189.99 291.47 144.36 287.14 145.81 294.15 192.68"/><polyline class="cls-5" points="280.21 192.42 291.24 145.96 286.77 145.01 269.05 188.97"/><polyline class="cls-5" points="342.46 164.03 300.26 141.69 298.22 145.78 336.32 173.96"/><polyline class="cls-5" points="326.28 183.65 301.23 143 297.4 145.49 315.95 189.09"/><polyline class="cls-5" points="350.22 119.55 304.59 133.6 306.04 137.93 352.9 130.92"/><polyline class="cls-5" points="352.65 144.87 306.19 133.84 305.25 138.31 349.2 156.02"/><polyline class="cls-5" points="324.26 82.61 301.93 124.81 306.01 126.85 334.19 88.75"/><polyline class="cls-5" points="343.88 98.8 303.23 123.85 305.72 127.68 349.32 109.12"/><path class="cls-3" d="M69.29,206.58a68.16,68.16,0,1,1,67-69.28A68.24,68.24,0,0,1,69.29,206.58Zm-2-123.27a55.12,55.12,0,1,0,56,54.21A55.19,55.19,0,0,0,67.25,83.31Z"/><path class="cls-3" d="M293.31,202.87a68.16,68.16,0,1,1,67-69.27A68.23,68.23,0,0,1,293.31,202.87Zm-2-123.26a55.12,55.12,0,1,0,56,54.2A55.17,55.17,0,0,0,291.27,79.61Z"/><path class="cls-3" d="M158,136.94a12.32,12.32,0,1,0,12.52,12.12A12.32,12.32,0,0,0,158,136.94Zm.06,3.56a8,8,0,0,1,1,0c.07,2,.1,7.64-1.64,7.39s-3.88-4.07-4.64-5.53A8.68,8.68,0,0,1,158,140.5Zm-6.61,14.33a8.7,8.7,0,0,1-2-5.43c0-.12,0-.24,0-.37,2.4,0,6.81.12,6.59,1.67S153.15,153.85,151.41,154.83Zm6.9,3.19a9.44,9.44,0,0,1-1.2-.07c0-2.47.26-6.09,1.67-5.89s3.12,2.83,4.11,4.57A8.72,8.72,0,0,1,158.31,158Zm8.45-7.07c-2.4,0-6.85-.1-6.63-1.66s4-3.84,5.49-4.62a8.74,8.74,0,0,1,1.31,4.44A8.57,8.57,0,0,1,166.76,151Z"/><rect class="cls-6" x="163.24" y="159.36" width="21.03" height="8.72" rx="2.37" transform="translate(347.5 327.44) rotate(180)"/><line class="cls-7" x1="174.33" y1="161.94" x2="158.5" y2="150.08"/><path class="cls-3" d="M68.53,121.42a15,15,0,1,0,15.23,14.74A15,15,0,0,0,68.53,121.42Zm-2,3.86c.7,3.11,1.5,8-.38,8.12-1.72.14-4.37-2.32-6.13-4.2A11.39,11.39,0,0,1,66.5,125.28ZM57.4,136.6a11.84,11.84,0,0,1,.09-1.47c3.17.28,8.05,1,7.61,2.86s-3.57,3.45-5.9,4.54A11.34,11.34,0,0,1,57.4,136.6ZM69,147.78a11.34,11.34,0,0,1-4.9-1c1.26-2.92,3.48-7.35,5.09-6.37s2.18,4.47,2.49,7A11.25,11.25,0,0,1,69,147.78ZM70.8,133c-.67-1.59.86-4.87,2.11-7.12a11.38,11.38,0,0,1,5.74,5C75.92,132.42,71.53,134.7,70.8,133Zm6.36,11.12c-2.39-2.09-5.92-5.57-4.49-6.8s4.92-.69,7.44-.2A11.28,11.28,0,0,1,77.16,144.07Z"/><path class="cls-6" d="M68.75,135.55a1.28,1.28,0,0,0,0,2.55,1.29,1.29,0,0,0,1.26-1.3A1.27,1.27,0,0,0,68.75,135.55Z"/><path class="cls-3" d="M291.52,117.46a15,15,0,1,0,15.23,14.74A15,15,0,0,0,291.52,117.46Zm-2,3.86c.7,3.11,1.5,8-.38,8.12-1.72.14-4.37-2.32-6.12-4.2A11.34,11.34,0,0,1,289.49,121.32Zm-9.09,11.32a10.41,10.41,0,0,1,.08-1.48c3.17.29,8,1,7.62,2.87-.4,1.68-3.58,3.45-5.91,4.54A11.24,11.24,0,0,1,280.4,132.64ZM292,143.82a11.29,11.29,0,0,1-4.89-1c1.25-2.92,3.47-7.36,5.09-6.37s2.17,4.47,2.49,7A11.33,11.33,0,0,1,292,143.82ZM293.79,129c-.66-1.59.86-4.87,2.11-7.13a11.51,11.51,0,0,1,5.75,5C298.91,128.46,294.52,130.73,293.79,129Zm6.37,11.12c-2.4-2.1-5.93-5.58-4.49-6.81s4.91-.69,7.44-.2A11.36,11.36,0,0,1,300.16,140.11Z"/><path class="cls-6" d="M291.75,131.59a1.27,1.27,0,1,0,1.29,1.25A1.27,1.27,0,0,0,291.75,131.59Z"/><path class="cls-2" d="M158.54,148.21,81,137.27l-7.28-14.55,61.32-52.6L249,36l-1.69-5.64L132.16,64.83,67.8,119.28a3.3,3.3,0,0,0-.83,4l8.57,17.59h0a2.94,2.94,0,0,0,2.36,2l79.94,11.28a3.71,3.71,0,0,0,.47,0,2.94,2.94,0,0,0,2.89-2.87A3,3,0,0,0,158.54,148.21Z"/><path class="cls-2" d="M292.09,135.83a2.94,2.94,0,0,1-2.72-1.7L253.43,56.45l-.05-.12-11-30.53a2.94,2.94,0,0,1,5.54-2l11,30.41,35.83,77.44a2.94,2.94,0,0,1-1.43,3.91A2.82,2.82,0,0,1,292.09,135.83Z"/><path class="cls-3" d="M242.5,30,236,14.09a4.21,4.21,0,0,1,2.26-5.46l13.58-5.72,3.27,7.75-9.75,4.11,4.89,12Z"/><path class="cls-3" d="M258.94,6a6.14,6.14,0,1,1-6.24-6A6.13,6.13,0,0,1,258.94,6Z"/><path class="cls-8" d="M33.78,206.1c0,1.92,65.87,2,147,.25s146.94-4.77,146.89-6.69-65.87-2-147-.24S33.74,204.19,33.78,206.1Z"/></g></g></g></svg>