<svg xmlns="http://www.w3.org/2000/svg" viewBox="0 0 160.87 300.11"><defs><style>.cls-1{isolation:isolate;}.cls-2,.cls-4{fill:#42301f;}.cls-2{mix-blend-mode:multiply;opacity:0.22;}.cls-3{fill:#c6cc1e;}.cls-5{fill:none;stroke:#42301f;stroke-miterlimit:10;stroke-width:0.5px;}.cls-6{fill:#c47c39;}</style></defs><g class="cls-1"><g id="Layer_2" data-name="Layer 2"><g id="OBJECTS"><path class="cls-2" d="M51,296.3c0,2.11,8.28,3.81,18.48,3.81S88,298.41,88,296.3s-8.27-3.8-18.47-3.8S51,294.2,51,296.3Z"/><path class="cls-3" d="M77.35,78.48S62,73.28,63,52.76s5.13-20,11.37-37.47S119.38.1,119.38.1,107.89,1,104.92,9.57,103,46,96.86,52.09,83.77,72.74,77.35,78.48Z"/><path class="cls-4" d="M99.28,47.74,86.53,43.62S63.58,47,64.23,63.7A22.81,22.81,0,0,0,77.35,78.48c6.42-5.74,13.33-20.28,19.51-26.39A11.61,11.61,0,0,0,99.28,47.74Z"/><path class="cls-3" d="M61.18,168.85s.66-4.27-2.59-11.2a18.88,18.88,0,0,0-10.77-9.93c-1.75-.59-18.19,1.16-18.19,1.16s5.59,4.76,14.52,12.19S61.18,168.85,61.18,168.85Z"/><path class="cls-4" d="M109.6,74.14s7.34-14.65,0-23L83,65.84S109.84,56.11,109.6,74.14Z"/><path class="cls-3" d="M82.76,159.09s-10-12.75,2.08-29.38,15.25-13.9,30-25.11,46,12,46,12-10.1-5.56-17.29,0-21.52,29.41-30,31.14S91.28,157.81,82.76,159.09Z"/><path class="cls-5" d="M66.62,210c3.34-24.54,16-72.38,63.54-101.79"/><path class="cls-5" d="M66.62,210C83,115.4,65.44,60.6,89.11,9.93"/><path class="cls-3" d="M55,108.2s-5.38,4.08-16.26-10.06S26,76,18,70s-.67-22.69-18-22.4c0,0,22.9-.87,40.06,5.44s20,22.09,22.7,29.05S55,108.2,55,108.2Z"/><path class="cls-5" d="M32.92,59.82s42.4,64,33.78,149.6"/><path class="cls-3" d="M72.17,88.44s-3.69-29.69,6.06-40.27,29.38-1.89,32.61,4.83C110.84,53,100,49.62,72.17,88.44Z"/><path class="cls-5" d="M62.38,135.35s6.06-58.91,28.89-85.73"/><path class="cls-5" d="M67.83,182.91s-1.34-11-17.44-28.13"/><path class="cls-6" d="M85.81,296.41l-.14,0a64,64,0,0,1-32.48,0h0l-15.38-106h63.38Z"/><path class="cls-4" d="M101.11,190.42c0,1.64-14.19,3-31.69,3s-31.69-1.32-31.69-3,14.19-3,31.69-3S101.11,188.79,101.11,190.42Z"/></g></g></g></svg>