<svg xmlns="http://www.w3.org/2000/svg" xmlns:xlink="http://www.w3.org/1999/xlink" viewBox="0 0 162.68 409.99"><defs><style>.cls-1,.cls-10,.cls-12,.cls-13,.cls-14,.cls-17,.cls-6{fill:none;}.cls-2{isolation:isolate;}.cls-3,.cls-8{fill:#42301f;}.cls-3{mix-blend-mode:multiply;opacity:0.22;}.cls-16,.cls-4{fill:#ffc2a8;}.cls-5{fill:#fff;}.cls-16,.cls-17,.cls-6{stroke:#191919;}.cls-12,.cls-16,.cls-17,.cls-6{stroke-linecap:round;}.cls-10,.cls-12,.cls-13,.cls-14,.cls-16,.cls-6{stroke-miterlimit:10;}.cls-10,.cls-12,.cls-14,.cls-16,.cls-17,.cls-6{stroke-width:0.5px;}.cls-7{fill:#c47c39;}.cls-9{fill:#5a733b;}.cls-10{stroke:#c47c39;}.cls-11{clip-path:url(#clip-path);}.cls-12{stroke:#c6cc1e;}.cls-13{stroke:#383838;}.cls-14{stroke:#42301f;}.cls-15{fill:#191919;}.cls-17{stroke-linejoin:round;}.cls-18{fill:#e2ae73;}.cls-19{fill:#63482f;}</style><clipPath id="clip-path"><path class="cls-1" d="M4.3,126.21c12.72-40.29,22.32-48,22.32-48,40.5-27.59,70.87-5.57,70.87-5.57v0a5.68,5.68,0,0,1,1.06.62,12.34,12.34,0,0,1,2.77,2.77c3.62,4.91,12.44,17.91,15.26,49.5,0,0-6.37,12.08-21.81,10l-.23,0c-3.5,9.73-7.39,18-7.39,18-24.74,17.18-45-3.33-45-3.33a73.94,73.94,0,0,1-8.73-19.55C14.34,129.56,4.3,126.21,4.3,126.21Z"/></clipPath></defs><g class="cls-2"><g id="Layer_2" data-name="Layer 2"><g id="OBJECTS"><ellipse class="cls-3" cx="89.28" cy="401.84" rx="73.41" ry="8.15"/><path class="cls-4" d="M63.57,186.44s.21,109.83-13,115.45c0,0-8.35,50.55-2.69,88.53,0,0-6.29,4.28-15.93-1.84,0,0-23.94-64.27-7.07-99.7,0,0-14-88.51-2.13-109.32S63.57,186.44,63.57,186.44Z"/><path class="cls-5" d="M21.53,348.93s17.43,2.84,24.59,0c0,0-.18,36.25,1.76,41.49L32,388.59S23.7,365.51,21.53,348.93Z"/><path class="cls-6" d="M23.44,358a43.63,43.63,0,0,0,22.43,0"/><line class="cls-6" x1="24.89" y1="349.39" x2="26.17" y2="358.76"/><line class="cls-6" x1="31.76" y1="350.03" x2="32.35" y2="359.29"/><line class="cls-6" x1="39.17" y1="350.13" x2="38.77" y2="359.29"/><line class="cls-6" x1="45.11" y1="349.27" x2="44.76" y2="358.03"/><path class="cls-4" d="M112.27,279.13c-5.44-17.7-5.33-63-24.85-106.78l-51.86,5.87S46.8,219.44,85.67,287.16c0,0,.74,18.91,5.79,31.23,16.3,39.78,19.78,47.75,27.5,66.43,3.19.65,4.57,5,13.26,2.57C132.33,358.57,124.38,318.56,112.27,279.13Z"/><path class="cls-5" d="M103.55,347.76s16.69-.66,24.07-6.16c0,0,5.22,27.46,4.6,47.52L120,387S107.36,357,103.55,347.76Z"/><path class="cls-6" d="M107.2,356.53s14.19,1.18,22-4.63"/><line class="cls-6" x1="107.82" y1="347.6" x2="111.67" y2="356.62"/><line class="cls-6" x1="114.74" y1="346.6" x2="117.39" y2="356.02"/><line class="cls-6" x1="121.32" y1="344.78" x2="123.38" y2="354.79"/><line class="cls-6" x1="126.83" y1="342.41" x2="128.11" y2="352.63"/><path class="cls-7" d="M118.56,384.3s-4.93,11.74-3.44,16.55l44.44,1s2.38-10.41-23.66-17.23Z"/><path class="cls-7" d="M127.47,385.48l-3.35-4.9s6.57-3.74,11.55-1.36l.51,5.54Z"/><path class="cls-6" d="M132.84,387.09c3.15-2.6,7.29-1.28,7.29-1.28"/><path class="cls-6" d="M143.33,387.36s-4.26-1.1-7.15,1.15"/><path class="cls-6" d="M116.15,391.23s8.83,1.06,8.83,6.95"/><line class="cls-6" x1="159.16" y1="398.74" x2="114.84" y2="398.18"/><path class="cls-8" d="M39.39,146.33S21.77,174,20.05,187.14l75.18,5.73s-.34-15.12-8.08-39.3C87.15,153.57,63.63,160.6,39.39,146.33Z"/><path class="cls-4" d="M32.72,74.74h0c-2.65,1-5.36,2.39-6.85,4.81C16.1,95.5.76,146.4.76,146.4L29.54,141l3.9-32.29S57.45,87.05,32.72,74.74Z"/><path class="cls-4" d="M98.05,73.61a42.15,42.15,0,0,1,9.82,25.13c.57,15.16,7.83,41.06,7.83,41.06l33.9,22.52s-10,4-12.61,13.32L97.73,156.42a4.62,4.62,0,0,1-2.57-3.62L88.84,98.9Z"/><path class="cls-9" d="M116.58,125.59s-6.37,12.08-21.81,10,0-63.09,0-63.09H97a4.08,4.08,0,0,1,1.59.78,12.34,12.34,0,0,1,2.77,2.77C104.94,81,113.76,94,116.58,125.59Z"/><path class="cls-9" d="M97.49,72.66s-30.37-22-70.87,5.57L31.56,121s.85,13.82,10.6,29.22c0,0,20.25,20.51,45,3.33,0,0,14.25-30.28,12.75-43.22Z"/><path class="cls-8" d="M16.09,284.25c.3-33.6-12.93-60.17,11-116l65.06,3.61S114.7,270,116.58,292.34c0,0-23.52,10.62-32,7-6.17-2.61-21.22-53.88-21.22-53.88S58.88,285,56.86,296.36,15.9,304.82,16.09,284.25Z"/><polyline class="cls-10" points="63.37 245.49 72.78 217.35 83.63 205.96"/><path class="cls-7" d="M51.53,388.93,32,388.59s-2.71,3.47-4.7,19l38,.65s1.19-9.15-8.72-12.84Z"/><path class="cls-7" d="M41.26,390.75l-2.34-5.5s4.77-3.84,13.67-1.12l-.12,6.62Z"/><polyline class="cls-6" points="64.97 404.44 39.02 404.44 27.81 403.83"/><path class="cls-6" d="M29.16,396.69s7.5-.43,8.39,7.45"/><path class="cls-6" d="M55.66,394.24s-6.42-1.89-9.27,1.35"/><path class="cls-6" d="M53.27,391.17s-6.3-1.62-8.94,1.52"/><path class="cls-9" d="M26.62,78.23s-9.6,7.69-22.32,48c0,0,10.06,3.36,29.19,4.48l-1.36-12,3.36-12.72c1.15-9.61,1.76-24.35-7.47-27.25Z"/><g class="cls-11"><path class="cls-12" d="M99.43,66s-27.17,7.89-68.09-3.29"/><path class="cls-12" d="M111,74S76.08,85.8,22.2,73.54"/><path class="cls-12" d="M115.65,86.34s-39.6,12-100.53,0"/><path class="cls-12" d="M121.46,101.7S76.71,112,9.31,97.42"/><path class="cls-12" d="M117.54,116S73.59,135.51,5.18,113.51"/><path class="cls-12" d="M123.35,132.9S79.4,152.39,11,130.39"/></g><path class="cls-6" d="M103.55,97.77,100.23,108s9.69,20.35-5,23.09l-.46,4.55"/><polyline class="cls-6" points="38.26 104.2 34.78 118.74 33.43 130.69"/><path class="cls-13" d="M115.7,139.8a12.3,12.3,0,0,0-10.31,6"/><path class="cls-8" d="M79.65,46.5S85.8,52,94.28,71.76c9.84,22.89,5.48,26.14,5.48,26.14S92.65,91,84.82,76.58,79.65,46.5,79.65,46.5Z"/><path class="cls-4" d="M77.9,58.27l-1.37,9.84s7.32,9.27,4,11.24-10.77.28-22.58-11.93l1.64-28.1Z"/><path class="cls-4" d="M64.58,3.79C92-3.29,94.93,28.72,95.06,29.51c2.52,14.67-4.64,32.78-11.35,33.22C63.38,64.06,59.47,44.06,59.47,44.06c-.49-1.18-9-12.82-9.35-14.1C46.37,15,48.56,7.94,64.58,3.79Z"/><path class="cls-8" d="M85.43,12.13s-1.89,23-26.19,25.06h0l-.55,16.88c.53,6.52-7.59,4.38-13.9-4.2C32.62,33.29,39.53,9.37,58.52,1.47c15-6.25,36,9.07,39.8,15.15,6.37,10.19-4,10.65-3.26,12.89C95.06,29.51,92.62,16,85.43,12.13Z"/><path class="cls-4" d="M51.8,45.48c1,3.5,4.45,5.58,7.62,4.64s4.88-4.55,3.84-8-4.45-5.58-7.62-4.64S50.76,42,51.8,45.48Z"/><path class="cls-14" d="M85.43,12.13S86.7,22.91,79.6,29"/><path class="cls-14" d="M40.83,28.8s-5.9,30.88,16.8,28.06"/><path class="cls-8" d="M89.87,31.68a.82.82,0,0,1-.61-1.25A2.84,2.84,0,0,1,91.75,29c2.49,0,3.16,1.49,2.76,2.26C94.23,31.78,91.45,31.74,89.87,31.68Z"/><path class="cls-8" d="M71.92,34.08a.8.8,0,0,1-1-1,2.83,2.83,0,0,1,1.89-2.22c2.35-.87,3.47.32,3.35,1.19C76.09,32.7,73.44,33.61,71.92,34.08Z"/><path class="cls-6" d="M74.7,47.48s2.73,2.91,7.9,1.59"/><path class="cls-15" d="M76,37.8c.08.9-.33,1.67-.92,1.72S73.92,38.9,73.83,38s.33-1.66.93-1.72S75.89,36.91,76,37.8Z"/><path class="cls-15" d="M92.18,36.93c.08.79-.29,1.48-.81,1.53s-1-.56-1.08-1.35.29-1.48.82-1.53S92.11,36.14,92.18,36.93Z"/><path class="cls-16" d="M87.07,37.23s-.23,1.8,2,2.17c1.28.22-.55,4.71-2.71,4"/><path class="cls-6" d="M73.24,37a4.12,4.12,0,0,1,4-.47"/><path class="cls-6" d="M90.1,36.12a2.75,2.75,0,0,1,3.18-.38"/><path class="cls-17" d="M56.45,41.87a6.66,6.66,0,0,1,3.19,2.76,4.91,4.91,0,0,0-3,1.06"/><path class="cls-6" d="M79,62.42S69,62,63.51,53.24"/><path class="cls-8" d="M56.55,54.51s5.93,6.76,7.7,28.16c2.37,28.53-1.38,26.68-1.38,26.68s-5.11-8.47-9-24.44S56.55,54.51,56.55,54.51Z"/><path class="cls-9" d="M75.59,158.52a9,9,0,0,1-4,1.3l.79,1.72a11.59,11.59,0,0,1-7.47,1.23l.33.64s-1.5,2.61-2.54,2.87l-1.08-16.69Z"/><path class="cls-9" d="M143.57,179.72l-.14,2.34s-5.58-.87-7.6-4.77Z"/><polygon class="cls-18" points="122.33 197.2 57.69 194.37 57.69 131.08 122.33 131.86 122.33 197.2"/><polygon class="cls-7" points="144.4 194.01 121.46 197.2 121.46 131.86 144.4 128.68 144.4 194.01"/><polygon class="cls-19" points="57.69 131.08 122.33 131.86 144.4 128.68 74.45 128.68 57.69 131.08"/><path class="cls-4" d="M152.94,155.43s-4.5-5.33-3.56-7.85c2.29-6.18-.73-5.54-2.72-3.34-1.27,1.4-1,1.74-2,4.32a18.76,18.76,0,0,1-3.76,5.28Z"/><path class="cls-4" d="M144,153.78c.66,0,6.37-1.26,6.95-.87,6.58,4.42,4.31,22.68-3.55,23.33a20.47,20.47,0,0,1-9.14-1.49c-5.44-2.46-2-5.2-2-5.2s-2.94-1.13-2.61-3.59c.42-3.06,3.59-.93,3.59-.93s-5-.76-6-3.29c-.9-2.16,2.79-2.44,3.28-2.61,0,0-2.9-1.55.35-3.91S141.7,153.8,144,153.78Z"/><polyline class="cls-6" points="134.41 159.13 142.49 160.13 148.47 158.74"/><polyline class="cls-6" points="134.6 164.43 142.69 165.43 148.67 164.04"/><polyline class="cls-6" points="136.06 169.56 143.56 170.54 149.55 169.15"/><polygon class="cls-7" points="157.7 151.74 134.76 154.93 121.46 131.86 144.4 128.68 157.7 151.74"/><polygon class="cls-7" points="57.69 153.47 57.69 157.68 113.2 159.23 124.09 131.86 57.69 153.47"/><path class="cls-4" d="M18.09,131.66s22,9.78,34.63,11.7L44.6,157.42s-.93.11-10.65,2c-17.17,3.37-30.83,2.1-33.59-7C-3,141.41,18.09,131.66,18.09,131.66Z"/><path class="cls-4" d="M52.51,162.32c-.66-.11-7.51-3.81-7.91-4.9-.52-1.44-4.23-15.1,12-14.29,4.91.24,13.5,5.22,14.47,5.83,4.85,3.07,1.13,4.65,1.13,4.65s5.12,2,4.23,4.08c-1.11,2.54-7.17-.17-7.17-.17s4.6,2,3.09,4c-1.25,1.7-6.66-.36-7.18-.31,0,0,1.83,2.62-2.28,3C59.64,164.57,54.77,162.71,52.51,162.32Z"/><path class="cls-4" d="M50.57,143.83a18.12,18.12,0,0,0,7.62-5.94c3.81-5.63,5.72-6,5.89-3.74a7,7,0,0,1-1.34,5c-2.41,2.81.68,6.33.68,6.33S51.72,145.57,50.57,143.83Z"/><path class="cls-6" d="M33.49,137.83s-10.86-5-23.92,3.21"/><line class="cls-6" x1="72.19" y1="153.61" x2="61.16" y2="148.9"/><line class="cls-6" x1="70.1" y1="157.79" x2="58.94" y2="152.87"/><line class="cls-6" x1="65.38" y1="161.15" x2="57.34" y2="157.5"/><polygon class="cls-18" points="108.39 155.56 43.75 153.97 57.69 131.08 122.33 131.86 108.39 155.56"/></g></g></g></svg>