<svg xmlns="http://www.w3.org/2000/svg" xmlns:xlink="http://www.w3.org/1999/xlink" viewBox="0 0 319.11 450.8"><defs><style>.cls-1{fill:none;}.cls-11,.cls-2{fill:#5ea466;}.cls-3{fill:#d39142;}.cls-4{isolation:isolate;}.cls-5{clip-path:url(#clip-path);}.cls-6{fill:#cce5d6;opacity:0.4;}.cls-7{fill:#070b0c;}.cls-8{fill:#4d4d4d;}.cls-9{clip-path:url(#clip-path-3);}.cls-10{clip-path:url(#clip-path-4);}.cls-11,.cls-29,.cls-32{mix-blend-mode:multiply;}.cls-11,.cls-27{opacity:0.5;}.cls-12{clip-path:url(#clip-path-6);}.cls-13{fill:#5ebd75;}.cls-14{fill:#d3efe8;}.cls-15{fill:#aaddce;}.cls-16{clip-path:url(#clip-path-7);}.cls-17{fill:#fff4b6;}.cls-18{clip-path:url(#clip-path-8);}.cls-19{fill:#faaf4c;}.cls-20{clip-path:url(#clip-path-9);}.cls-21{fill:#482d6b;}.cls-22{clip-path:url(#clip-path-10);}.cls-23{fill:#97d19d;}.cls-24{fill:#02595d;}.cls-25{fill:#fad082;}.cls-26{fill:#f7a096;}.cls-27{fill:#e75b5d;}.cls-28{fill:#fff;}.cls-29{fill:#e3d0bd;}.cls-30{fill:#d44f18;}.cls-31{fill:#f2682d;}.cls-32{opacity:0.21;}.cls-33{fill:#f6e7da;}</style><clipPath id="clip-path" transform="translate(1.86)"><path class="cls-1" d="M79.66,90.91c-2,.7-4,1.49-6,2.32a101,101,0,0,0-28.17,14.86,104.83,104.83,0,0,0-22.94,23.69A119.82,119.82,0,0,0,7.21,162.37a141.41,141.41,0,0,0-7,51.52,71.5,71.5,0,0,0,3.2,18.8C6.79,243,13.72,252.18,24,256.24c10.87,4.3,23,2.69,34.37,1.76a204.36,204.36,0,0,1,40.1,1c6.88.81,13.68,2,20.5,3.13a188.33,188.33,0,0,0,19.77,2.62c11.21.73,22.94-.6,32.79-6.34a35.71,35.71,0,0,0,11.72-10.92,62.59,62.59,0,0,0,7.33-16.19,118.81,118.81,0,0,0,5.16-37.93,139.88,139.88,0,0,0-5.31-36.73,96.6,96.6,0,0,0-15.79-31.94,114.24,114.24,0,0,0-25.51-23.9c-9.93-7-21-12.92-33.13-14.57a60.38,60.38,0,0,0-8.17-.54,86.18,86.18,0,0,0-28.19,5.26"/></clipPath><clipPath id="clip-path-3" transform="translate(1.86)"><path class="cls-1" d="M42.9,148.36l5.59,110.45c3.34-.22,6.65-.54,9.9-.81a204.36,204.36,0,0,1,40.1,1c6.88.81,13.68,2,20.5,3.13a188.33,188.33,0,0,0,19.77,2.62c1.32.09,2.65.15,4,.17l5.91-116.52Z"/></clipPath><clipPath id="clip-path-4" transform="translate(1.86)"><rect class="cls-2" x="38.83" y="139.52" width="113.87" height="8.84"/></clipPath><clipPath id="clip-path-6" transform="translate(1.86)"><path class="cls-1" d="M78.05,35.23a7.44,7.44,0,0,0-4.27,5.68A7.43,7.43,0,0,0,63,50.24l.13.27a1.28,1.28,0,0,1,.1.17,5.51,5.51,0,0,0,.45.73l.1.16c1.75,2.56,6.79,8,18.35,9.16,0,0,8.74-9.33,6.32-19.84a16.51,16.51,0,0,0-.59-2A7.43,7.43,0,0,0,78.68,35c-.22.08-.43.16-.63.25"/></clipPath><clipPath id="clip-path-7" transform="translate(1.86)"><path class="cls-1" d="M131.24,89.93a10,10,0,0,0-6.28,7.2,10,10,0,0,0-15.36,11.45l.15.37.11.24a8.48,8.48,0,0,0,.53,1c0,.06.08.14.12.21,2.1,3.62,8.32,11.48,23.72,14.11,0,0,12.65-11.65,10.44-26a22.29,22.29,0,0,0-.59-2.71,10,10,0,0,0-12.84-5.91"/></clipPath><clipPath id="clip-path-8" transform="translate(1.86)"><path class="cls-3" d="M59.88,77.27c.27.66.52,1.32.75,2a1.1,1.1,0,0,1-.29.58,5.53,5.53,0,0,1-3.27,1.81,1.46,1.46,0,0,1-.72,0,.87.87,0,0,1-.27-.14A19.62,19.62,0,0,0,55,79.31l-.35.21a5,5,0,0,0-2.3.31c-3.1,1.12-5.25,4.08-6.15,7.24a26,26,0,0,0-.39,9.8,7.43,7.43,0,0,0,.54,2.4,5.54,5.54,0,0,1,.92-2.21A7.18,7.18,0,0,1,50,94.74a6.91,6.91,0,0,1,7.51,1,10.17,10.17,0,0,1,2.89-5c2.21-2.54,4.46-5.18,5.51-8.38A4.53,4.53,0,0,0,66,79.48a4.07,4.07,0,0,0-1.16-1.63,8.21,8.21,0,0,0-3.22-1.8,6.55,6.55,0,0,0-1.78,1.22"/></clipPath><clipPath id="clip-path-9" transform="translate(1.86)"><path class="cls-1" d="M72.56,117.86a8.16,8.16,0,0,1-7.84-.49A13.05,13.05,0,0,1,63.15,122a6.24,6.24,0,0,1-2.27,2.09,6.91,6.91,0,0,1-6.21.36,1.2,1.2,0,0,0,.15.52,12.48,12.48,0,0,0,5,5.28,6.59,6.59,0,0,0,5.3.83c1.6-.55,2.72-1.93,3.81-3.22a.76.76,0,0,1,.3-.23c.22,0,.42.13.58.28a6.21,6.21,0,0,0,2.11,1.32,8.49,8.49,0,0,0,4.68-2.65,11.92,11.92,0,0,0,3.39-7.3,9.43,9.43,0,0,0-2.8-7.42l-.21,0a8.2,8.2,0,0,1-4.42,6"/></clipPath><clipPath id="clip-path-10" transform="translate(1.86)"><path class="cls-1" d="M95.5,13.36s0,.09,0,.24a1.11,1.11,0,0,1,0,.17,4.36,4.36,0,0,0,0,.72v.15c0,2.61.72,8.8,8.06,15.17,0,0,10.49-2.12,13.94-10.47a12,12,0,0,0,.56-1.63,6.21,6.21,0,0,0-10.58-5.49,6.24,6.24,0,0,0-4.59-3.78,5.89,5.89,0,0,0-1.18-.11,6.22,6.22,0,0,0-6.1,5"/></clipPath></defs><g class="cls-4"><g id="Layer_2" data-name="Layer 2"><g id="OBJECTS"><g class="cls-5"><rect class="cls-6" x="-0.99" y="84.72" width="197.83" height="181.66" transform="matrix(1, -0.01, 0.01, 1, 0.17, 0.95)"/></g><g class="cls-5"><rect class="cls-7" x="44.24" y="258.28" width="106.77" height="6.19"/><path class="cls-8" d="M39,282.35H32.93a3.41,3.41,0,0,1-3.4-3.39V240.21a3.41,3.41,0,0,1,3.4-3.39H39a3.4,3.4,0,0,1,3.39,3.39V279A3.4,3.4,0,0,1,39,282.35" transform="translate(1.86)"/><rect class="cls-7" x="34.3" y="236.82" width="7.04" height="45.53"/><path class="cls-8" d="M158.61,282.35h-6.07a3.41,3.41,0,0,1-3.39-3.39V240.21a3.41,3.41,0,0,1,3.39-3.39h6.07a3.41,3.41,0,0,1,3.39,3.39V279a3.41,3.41,0,0,1-3.39,3.39" transform="translate(1.86)"/><rect class="cls-7" x="153.91" y="236.82" width="7.04" height="45.53"/></g><g class="cls-9"><rect class="cls-2" x="44.75" y="148.36" width="105.74" height="116.51"/></g><rect class="cls-2" x="40.69" y="139.52" width="113.87" height="8.84"/><g class="cls-10"><rect class="cls-2" x="40.69" y="139.52" width="113.87" height="8.84"/></g><g class="cls-5"><polygon class="cls-11" points="150.49 148.37 45.42 161.59 44.76 148.37 150.49 148.37"/></g><g class="cls-12"><rect class="cls-13" x="63.06" y="36.38" width="27.59" height="25.45" transform="translate(-10.06 28.19) rotate(-19.32)"/></g><path class="cls-14" d="M136.84,97.81l-4.64,8.77-4.8,9.18-8.51,16.3A9.06,9.06,0,0,1,111,137h0a8.84,8.84,0,0,1-4.5-1.05L93.54,129.1l-12.92-6.74a8.89,8.89,0,0,1-3.4-3.08,5.45,5.45,0,0,1-.39-.66,9.07,9.07,0,0,1-.13-8.73l8.61-16.25,3.86-7.29,5.56-10.66,7-13.38,1.63-3.09a22.9,22.9,0,0,1,9.86-9.79,20.42,20.42,0,0,1,3.15-1.34l.14-.05a22.79,22.79,0,0,0,13-11.12L144.89,7.37l.22-.42a3.91,3.91,0,0,1-1.49-2,3.81,3.81,0,0,1,5-4.68,2,2,0,0,1,.33.15,3.14,3.14,0,0,1,.64.25l9,4.75,9,4.68a3.77,3.77,0,0,1,.57.38l.31.17a3.82,3.82,0,0,1-1,6.78,3.77,3.77,0,0,1-2.5-.08l-.22.42L149.06,47.21a23,23,0,0,0-2.67,10.7,22.74,22.74,0,0,0,.88,6.32l0,.14a20.33,20.33,0,0,1,.69,3.35,22.89,22.89,0,0,1-2.48,13.67l-1.63,3.09Z" transform="translate(1.86)"/><path class="cls-15" d="M163.85,17.58a10.91,10.91,0,0,1-5.06,2.2,8.36,8.36,0,0,1-5.63-1.44c-3-2-6-5.28-6-9.08a.61.61,0,0,1,.08-.27.66.66,0,0,1,1-.54,56.58,56.58,0,0,0,15.79,7.94c.72.23.49,1.36-.23,1.19" transform="translate(1.86)"/><path class="cls-15" d="M111.93,55.84c2-3.28,5.92-3.91,9.17-5.3a21,21,0,0,0,4.88-3c.33-.32.66-.66,1-1a36.11,36.11,0,0,0,4.16-5.88,29.2,29.2,0,0,1,3.94-5.8c1.1-1.11,2.67-1.69,4.07-.73s2,3.09,2.28,4.79a18,18,0,0,1-1.71,10.31,29.41,29.41,0,0,1-7.51,9.51c-1.59,1.41-3.27,2.72-5,4a31.13,31.13,0,0,1-4.59,3c-3.11,1.54-6.7,1.68-9.4-.77a7.36,7.36,0,0,1-1.3-9.18" transform="translate(1.86)"/><path class="cls-15" d="M111.7,134.27a4.25,4.25,0,0,1-1.73-.37,2.71,2.71,0,0,1-.3-.13l-1-.44a60.81,60.81,0,0,1-6.68-3.85c-2.28-1.36-4.64-2.63-7-3.77s-4.78-2.15-7.23-3a33.34,33.34,0,0,1-7-3,4.57,4.57,0,0,1-2-2,1.7,1.7,0,0,1,.82-2c1.78-1.08,4.24-.73,6.2-.48a40.91,40.91,0,0,1,24.29,12.23,31.41,31.41,0,0,1,2.23,2.54,3.62,3.62,0,0,1,.91,2.29,1.88,1.88,0,0,1-.37,1,1.31,1.31,0,0,1-1.23,1.06" transform="translate(1.86)"/><path class="cls-15" d="M139.7,24a5.68,5.68,0,0,1,3.18-4.26A3.1,3.1,0,0,1,146,20,4.1,4.1,0,0,1,147.13,23a6.63,6.63,0,0,1-2.9,6.12,4.08,4.08,0,0,1-3.26.53,2.88,2.88,0,0,1-1.91-2.15A4.76,4.76,0,0,1,139.7,24" transform="translate(1.86)"/><g class="cls-16"><rect class="cls-2" x="109.55" y="89.31" width="39.19" height="35.24"/></g><path class="cls-3" d="M84.05,111.26a7.3,7.3,0,0,0,3.49-5.49c2.29,1.51,4.25,3.86,4.34,6.59a12.78,12.78,0,0,1-4.15,8.36,4.51,4.51,0,0,1-4,.86.72.72,0,0,0-.33-.07c-.31,0-.44.4-.5.7a10.15,10.15,0,0,1-5,6.69,7.63,7.63,0,0,1-5.94.36,8.55,8.55,0,0,0,4.68-2.65,12,12,0,0,0,3.39-7.3,9.43,9.43,0,0,0-2.8-7.42l-.21,0c0-.15,0-.32,0-.48a7.27,7.27,0,0,0,7-.13" transform="translate(1.86)"/><path class="cls-7" d="M59.88,77.27c.27.66.52,1.33.75,2a1.1,1.1,0,0,1-.29.58,5.53,5.53,0,0,1-3.27,1.81,1.46,1.46,0,0,1-.72,0,.87.87,0,0,1-.27-.14A18.06,18.06,0,0,0,55,79.31a20,20,0,0,0-4.49-5.26s0,0,0,0a6.58,6.58,0,0,0,4.16,0,4.47,4.47,0,0,0,2.52-2l.17.27a35.49,35.49,0,0,1,2.52,5" transform="translate(1.86)"/><path class="cls-17" d="M59.94,106c-.37-1-.77-1.92-1.22-2.85A19.93,19.93,0,0,0,55,97.7a10.93,10.93,0,0,0-5.08-3,6.91,6.91,0,0,1,7.51,1,10.17,10.17,0,0,1,2.89-5,16.54,16.54,0,0,1,1.84-1.62c1.6-1.23,3.57-2.3,5.55-1.9a7.5,7.5,0,0,1,3.12,1.71A18,18,0,0,0,72.15,97c.14.38.29.75.44,1.12l-1.26,2.73a4.39,4.39,0,0,0-2.09-1.69,1.47,1.47,0,0,0-1.23,0,1.2,1.2,0,0,0-.51.79,9.48,9.48,0,0,0,.34,1.65l-2.25,2.34a4.46,4.46,0,0,0-.49-.78,1.94,1.94,0,0,0-2-.91,1.65,1.65,0,0,0-1,1.38,2.72,2.72,0,0,0,0,.9Z" transform="translate(1.86)"/><path class="cls-7" d="M67.84,101.56a9.48,9.48,0,0,1-.34-1.65,1.2,1.2,0,0,1,.51-.79,1.47,1.47,0,0,1,1.23,0,4.34,4.34,0,0,1,2.09,1.69,4.41,4.41,0,0,1,.7,2,1.79,1.79,0,0,1-.46,1.52,1.33,1.33,0,0,1-1.06.25,2.36,2.36,0,0,1-1-.47,4.91,4.91,0,0,1-1.67-2.51" transform="translate(1.86)"/><path class="cls-3" d="M70.86,88.86a7.5,7.5,0,0,0-3.12-1.71c-2-.4-3.95.67-5.55,1.9a16.54,16.54,0,0,0-1.84,1.62c2.21-2.54,4.46-5.18,5.51-8.38A4.53,4.53,0,0,0,66,79.48a4.07,4.07,0,0,0-1.16-1.63,8.21,8.21,0,0,0-3.22-1.8A8.27,8.27,0,0,1,65,75.28a11.76,11.76,0,0,1,5.42,1.29A16.2,16.2,0,0,1,79,87.41a5.09,5.09,0,0,0-8,1.5.15.15,0,0,0-.07,0" transform="translate(1.86)"/><path class="cls-3" d="M59.88,77.27c.27.66.52,1.32.75,2a1.1,1.1,0,0,1-.29.58,5.53,5.53,0,0,1-3.27,1.81,1.46,1.46,0,0,1-.72,0,.87.87,0,0,1-.27-.14A19.62,19.62,0,0,0,55,79.31l-.35.21a5,5,0,0,0-2.3.31c-3.1,1.12-5.25,4.08-6.15,7.24a26,26,0,0,0-.39,9.8,7.43,7.43,0,0,0,.54,2.4,5.54,5.54,0,0,1,.92-2.21A7.18,7.18,0,0,1,50,94.74a6.91,6.91,0,0,1,7.51,1,10.17,10.17,0,0,1,2.89-5c2.21-2.54,4.46-5.18,5.51-8.38A4.53,4.53,0,0,0,66,79.48a4.07,4.07,0,0,0-1.16-1.63,8.21,8.21,0,0,0-3.22-1.8,6.55,6.55,0,0,0-1.78,1.22" transform="translate(1.86)"/><g class="cls-18"><rect class="cls-19" x="47.12" y="76.05" width="21.09" height="23.22"/></g><path class="cls-17" d="M71.33,100.82l1.26-2.73a28.94,28.94,0,0,0,11.46,13.17,7.27,7.27,0,0,1-7,.13c0,.16,0,.33,0,.48a8,8,0,0,1-12.26,5.5A12.86,12.86,0,0,1,63.15,122a6.24,6.24,0,0,1-2.27,2.09c1.84-2.55,1.78-6,1.33-9.13a41.7,41.7,0,0,0-2.27-9l2.19-1.48c0,.3.13.59.2.89l.13,0a4.42,4.42,0,0,0,1.37,2.32,1.5,1.5,0,0,0,1,.47,1.13,1.13,0,0,0,.87-.54,2.45,2.45,0,0,0,.33-1,4.83,4.83,0,0,0-.47-2.67l2.25-2.34a4.91,4.91,0,0,0,1.67,2.51,2.36,2.36,0,0,0,1,.47,1.33,1.33,0,0,0,1.06-.25,1.79,1.79,0,0,0,.46-1.52,4.41,4.41,0,0,0-.7-2" transform="translate(1.86)"/><path class="cls-7" d="M62.46,105.34l-.13,0c-.07-.3-.16-.59-.2-.89a2.72,2.72,0,0,1,0-.9,1.65,1.65,0,0,1,1-1.38,1.94,1.94,0,0,1,2,.91,4.46,4.46,0,0,1,.49.78,4.83,4.83,0,0,1,.47,2.67,2.45,2.45,0,0,1-.33,1,1.13,1.13,0,0,1-.87.54,1.5,1.5,0,0,1-1-.47,4.42,4.42,0,0,1-1.37-2.32" transform="translate(1.86)"/><g class="cls-20"><rect class="cls-19" x="56.53" y="111.87" width="25.5" height="19.85"/></g><path class="cls-21" d="M57.19,72a4.47,4.47,0,0,1-2.52,2,6.58,6.58,0,0,1-4.16,0,7.83,7.83,0,0,1,5.07-2.66,1.93,1.93,0,0,1,1.19.16,1.81,1.81,0,0,1,.42.45" transform="translate(1.86)"/><g class="cls-22"><rect class="cls-23" x="97.19" y="8.33" width="23.27" height="21.48"/></g><path class="cls-24" d="M85.26,203.67a3.56,3.56,0,0,1-.15-2.53,8.87,8.87,0,0,1,1.45-2.75,1.38,1.38,0,0,1,0-.35l2.52-3.37,3.21,2.63-1.57-7.87-7.65.31,2.44,2-3.12,4.19-.12.34a6.16,6.16,0,0,0,3,7.47Z" transform="translate(1.86)"/><path class="cls-24" d="M88.19,199.81a1.48,1.48,0,0,1-1.17-.44,7.85,7.85,0,0,0-.88,1.67,2.85,2.85,0,0,0-.1,2.09,2.93,2.93,0,0,0,1,1.19,5.71,5.71,0,0,0,1.43.09l4.81-.25-.25-4.6Z" transform="translate(1.86)"/><path class="cls-24" d="M110.48,197.68a3.54,3.54,0,0,1-2,1.57,8.62,8.62,0,0,1-3.08.4,1.21,1.21,0,0,1-.29.19l-4.21-.12.31-4.14-5.54,5.8,4.65,6.08.23-3.14,5.22.15.35-.1a6.15,6.15,0,0,0,4.15-4,6.24,6.24,0,0,0,.24-2.74Z" transform="translate(1.86)"/><path class="cls-24" d="M105.64,197.5a1.52,1.52,0,0,1,.31,1.21,7.86,7.86,0,0,0,1.87-.24,2.57,2.57,0,0,0,2.19-2.59,6.16,6.16,0,0,0-.75-1.22l-3-3.79-3.62,2.84Z" transform="translate(1.86)"/><path class="cls-24" d="M92.86,180a3.52,3.52,0,0,1,2.33,1,9,9,0,0,1,1.84,2.5,1.38,1.38,0,0,1,.31.17l1.92,3.74-3.79,1.73,7.76,2,3.09-7-2.87,1.31-2.38-4.65-.26-.25a6.14,6.14,0,0,0-8-.59Z" transform="translate(1.86)"/><path class="cls-24" d="M95,184.35a1.51,1.51,0,0,1,.91-.86A8.35,8.35,0,0,0,94.83,182,2.93,2.93,0,0,0,93,181a2.84,2.84,0,0,0-1.49.34,5.9,5.9,0,0,0-.72,1.24L88.91,187l4.23,1.81Z" transform="translate(1.86)"/><path class="cls-24" d="M107,216H85.19a2,2,0,0,1,0-4H107a2,2,0,0,1,0,4Z" transform="translate(1.86)"/><path class="cls-24" d="M107,226.11H85.19a2,2,0,1,1,0-4H107a2,2,0,1,1,0,4Z" transform="translate(1.86)"/><path class="cls-7" d="M245.8,100.43c-3.84-23.29-17.55-8.09-14.66-14s2.37-16.14-4.78-20-2.08.67-2.75-7.95-14.14-13.2-14.14-13.2c-8-.59-16.4,1.1-22.76,5.95-2.33,1.77-4.8,8.11-4.8,18.52,0,0,2.19,15.34-2.74,17.53-8.25,3.67-.1,11.2,2.39,12.71l40.28-.89.21-5.29,1.84,5.25Z" transform="translate(1.86)"/><path class="cls-7" d="M216.48,54.06c-1.2-2.7-2.41-5.49-2.46-8.44s1.38-6.13,4.12-7.24,6.21.3,8.52,2.39c3,2.77,5,7,4,11s-6,6.76-9.55,4.73" transform="translate(1.86)"/><path class="cls-25" d="M187.71,75.2l2.68,9.28a5.76,5.76,0,1,1-10-2.8Z" transform="translate(1.86)"/><path class="cls-26" d="M209.6,69.28a.68.68,0,0,0,.76.61c1.6-.22,5.24-1,6.31,3.06s-2.63,7.06-5,7.51c-.69.13-2.29.49-2.69,1.06-1.25,1.78-1.48,5.33-2,9.79-1.22,9.85,6.84,13.22,6.84,13.22s-46.18,49.59-24.72,3.23c0,0-1-22.88-1.15-23-2.2-1.69-9.88-1.52-7.25-18.28C183.07,51,194.18,50.59,197,50.71,199.43,50.82,207.66,50.25,209.6,69.28Z" transform="translate(1.86)"/><path class="cls-27" d="M215,74.4s-3.2-5-5.45,2.55Z" transform="translate(1.86)"/><path class="cls-27" d="M195.73,71.13a3.78,3.78,0,1,0,4.17,3.35A3.78,3.78,0,0,0,195.73,71.13Z" transform="translate(1.86)"/><path class="cls-27" d="M180.29,74.59a3.78,3.78,0,0,0,.34-7.07S179.58,71.88,180.29,74.59Z" transform="translate(1.86)"/><path class="cls-28" d="M183.19,72.24l6.09,2.09s-2.53,2.41-4.18,1.49S183.19,72.24,183.19,72.24Z" transform="translate(1.86)"/><path class="cls-27" d="M187.64,67.58l-.37,4.2-2.1-.61a.53.53,0,0,1-.22-.89Z" transform="translate(1.86)"/><path d="M194.15,65c.59.62,0-1.76-.91-2.21a1.7,1.7,0,0,0-2.31.58A5.3,5.3,0,0,1,194.15,65Z" transform="translate(1.86)"/><path d="M182.83,62.36c-.79.34.73-1.6,1.72-1.65a1.68,1.68,0,0,1,1.88,1.45A5.34,5.34,0,0,0,182.83,62.36Z" transform="translate(1.86)"/><path d="M191.25,68.45c-.18.72-.62,1.23-1,1.14s-.48-.74-.29-1.46.62-1.23,1-1.14S191.44,67.73,191.25,68.45Z" transform="translate(1.86)"/><path d="M185.62,66.63c-.17.69-.59,1.17-.92,1.09s-.46-.71-.28-1.4.59-1.18.92-1.09S185.8,65.94,185.62,66.63Z" transform="translate(1.86)"/><path class="cls-27" d="M187.89,84.77s7.3.43,10.87-.28S190,96.45,187.89,84.77Z" transform="translate(1.86)"/><path class="cls-7" d="M185,54.4a22.22,22.22,0,0,1,10.27,4.11c5.62,4.25,3.47-5.36,6.47,1.81s1.21,10.83,10.54,8.68C212.26,69,210.59,32.49,185,54.4Z" transform="translate(1.86)"/><path class="cls-29" d="M317.25,444.93c0-2.38-33.59-4.31-75-4.31s-75,1.93-75,4.31,33.6,4.32,75,4.32S317.25,447.32,317.25,444.93Z" transform="translate(1.86)"/><path class="cls-30" d="M194.92,402.37l-4.43,33.31s2,5.9,2,9.54c-4.41,3-29,3.33-31,.92,4.65-4.65,16.33-11.37,16.33-11.37l-4.77-33Z" transform="translate(1.86)"/><path class="cls-31" d="M184.25,407.75,190,447.26s1.28,1,2.5-1.59c.73-1.55-.23-2.72-1.93-9l3.52-29.3Z" transform="translate(1.86)"/><path class="cls-30" d="M252.46,401.76,262.6,432.2s-2.39,11.54-2.7,12.3c-1.07,2.69,8.5,4.11,8.5,4.11l.27-44.93Z" transform="translate(1.86)"/><path class="cls-31" d="M262.75,401.76l5.86,36s10.44,7.18,11.25,4.91c.34-.94-6.2-8.55-7.54-11l.73-29.3Z" transform="translate(1.86)"/><path class="cls-25" d="M160.74,444.77c-.8.6-2,3.43-.89,3.44l23,.18c.55,0,11-.57,11.41-.85,0,0-.6-3.31-.6-3.31Z" transform="translate(1.86)"/><polygon class="cls-25" points="175.19 445.05 168.89 439.84 179.75 434.77 188.07 445.05 175.19 445.05"/><path class="cls-31" d="M281.45,443.3c.95,1.43.42,3.15-1.28,4.16-2.76,1.65-8.76,1.42-8.76,1.42s-6,.34-8.85-.9c-1.91-.84-3.41-2.06-3.17-3.65l.33-2.14c0-.18,7.31-1,7.31-1l1.09-12.32Z" transform="translate(1.86)"/><polygon class="cls-25" points="260.39 442.04 283.13 441.49 276.01 434.09 262.86 434.37 260.39 442.04"/><polygon class="cls-25" points="287.51 450.53 259.3 450.8 260.94 444.77 284.5 444.77 287.51 450.53"/><path class="cls-24" d="M219.09,170.56c7.12,12.6,17.61,21.22,21.71,37.24,4.75,18.57,51.88,175.82,61.56,211-2.29.55-48.76,0-48.76,0L203.87,244.91a3.89,3.89,0,0,0-7.64,1.09l.94,173.3s-33.92,1.24-35.06,1.09c-3.86-41.61-12.89-200.4,18-251.46C194.24,167,204.76,170.13,219.09,170.56Z" transform="translate(1.86)"/><path class="cls-28" d="M168.46,419.85c0-1.25-3.43-126-3.43-169.49s17.25-78.46,17.42-78.81l.4.2c-.17.35-17.38,35.22-17.38,78.61s3.4,168.22,3.43,169.48Z" transform="translate(1.86)"/><rect class="cls-28" x="255.65" y="165.11" width="0.45" height="258.55" transform="translate(-72 86.02) rotate(-16.71)"/><polygon class="cls-28" points="233.62 214.49 210.97 170.07 211.36 169.87 234.02 214.29 233.62 214.49"/><path class="cls-32" d="M178.2,170.13,240,211.3c4.88.58-6.86-19.39-20.95-40.74Z" transform="translate(1.86)"/><polygon class="cls-28" points="170.47 218.04 170.06 217.86 189.24 174.03 189.64 174.21 170.47 218.04"/><path class="cls-26" d="M90.68,165c13-.4,21.7-.39,22.92-.29l42-.92-.13-.11s2.12,0,3.61-.12a1.66,1.66,0,0,0,1.49-1.27c4-17,12.17-61.73,26.77-58.08.21,0,5.13.77,4.61,1.44-4.79,6-13.5,35.61-13.5,35.61-.1.45-.09,2.43-.08,5.29,5.14,29.46-1,31.74-1,31.74a14.51,14.51,0,0,1-3.09,1.36l-.07.09-.06-.05c-18.73,5.82-72.93-6.83-72.93-6.83C96.74,171.65,86.91,165.1,90.68,165Z" transform="translate(1.86)"/><path class="cls-27" d="M185.51,113.64c1-5,1.87-9.43,1.78-9.45-2.67-.66-5.11.29-7.36,2.38a101,101,0,0,1-1.59,18.7C180.8,121.43,183.11,117.48,185.51,113.64Z" transform="translate(1.86)"/><path class="cls-30" d="M168.77,176.6a24.07,24.07,0,0,0-.08,4.16,31.36,31.36,0,0,0,5.4-1.09l.06.05.07-.09a14.51,14.51,0,0,0,3.09-1.36s3.31-1.25,3-13.57C174.48,165.22,169.41,171.1,168.77,176.6Z" transform="translate(1.86)"/><path class="cls-26" d="M109.41,164.61s-9.84-6.23-10.25-4.72c-.81,3,7.37,6.09,6.34,7C105.5,166.9,107.87,165.43,109.41,164.61Z" transform="translate(1.86)"/><path class="cls-33" d="M188.68,103.1c-.21-1.23-1.23.2-3.29.82-4.25,9-13.17,33-12.82,40,.5,9.86,4.85,22.44,4.33,23.92,0,0,8.77,3.83,42.19,2.19.6-10.3,19.29-42.73,2.63-60.6-1.83-2.85-10.06-8.92-14.23-10.6C207.49,98.81,185.8,131,188.68,103.1Z" transform="translate(1.86)"/><path class="cls-25" d="M209.5,76.87l5.7,7.8a5.76,5.76,0,1,1-10.33.78Z" transform="translate(1.86)"/><path class="cls-3" d="M169.14,170.82s18.64-63.62,41.66-64.24c18.89-.51,36.09,6.12,53.67,49.56l-15.16,1.62S234,111,214.57,107.88s-28.46,58.41-28.46,58.41Z" transform="translate(1.86)"/><path class="cls-19" d="M263,245.32l-69.94,9.35a16.41,16.41,0,0,1-18.44-14.09l-9.89-74,102.48-13.69,9.88,74A16.4,16.4,0,0,1,263,245.32Z" transform="translate(1.86)"/><path class="cls-33" d="M206.06,232.49a7.2,7.2,0,0,1-1.34-5,18.22,18.22,0,0,1,1.71-6.06,3.51,3.51,0,0,1-.12-.7L209.9,213l7.49,3.89-6.4-15-15.06,3.81,5.67,2.95-4.45,9.62-.09.72a12.52,12.52,0,0,0,9.1,13.59A1.47,1.47,0,0,0,206.06,232.49Z" transform="translate(1.86)"/><path class="cls-33" d="M210.27,223.61a3.08,3.08,0,0,1-2.51-.39,17,17,0,0,0-1,3.68,5.88,5.88,0,0,0,.69,4.19,5.65,5.65,0,0,0,2.39,2,12.28,12.28,0,0,0,2.88-.41l9.45-2.52-2.41-9Z" transform="translate(1.86)"/><path class="cls-33" d="M253.64,210.06a7.19,7.19,0,0,1-3.29,3.95,18,18,0,0,1-5.94,2.08,3.46,3.46,0,0,1-.51.5l-8.41,1.52-1.11-8.37-8.58,13.84,11.77,10.14-.84-6.34,10.42-1.88.65-.35a12.48,12.48,0,0,0,5.89-15.25S253.66,210,253.64,210.06Z" transform="translate(1.86)"/><path class="cls-33" d="M244,211.72a3.1,3.1,0,0,1,1.12,2.27,17,17,0,0,0,3.62-1.25,5.89,5.89,0,0,0,3-3,5.8,5.8,0,0,0,.23-3.09,12.45,12.45,0,0,0-2-2.12l-7.49-6.28-6,7.15Z" transform="translate(1.86)"/><path class="cls-33" d="M211.27,182.35a7.24,7.24,0,0,1,5,1,18,18,0,0,1,4.68,4.21,2.57,2.57,0,0,1,.69.2l5.38,6.63-6.79,5,16.26.84,3.21-15.2-5.15,3.8-6.68-8.23-.61-.4a12.46,12.46,0,0,0-16.2,2.2Z" transform="translate(1.86)"/><path class="cls-33" d="M217.39,190a3.1,3.1,0,0,1,1.45-2.08,16.46,16.46,0,0,0-2.84-2.57,5.85,5.85,0,0,0-4.06-1.22,5.73,5.73,0,0,0-2.82,1.28,12.62,12.62,0,0,0-.89,2.77l-1.9,9.59,9.17,1.81Z" transform="translate(1.86)"/></g></g></g></svg>