<svg xmlns="http://www.w3.org/2000/svg" xmlns:xlink="http://www.w3.org/1999/xlink" viewBox="0 0 465.99 409.99"><defs><style>.cls-1,.cls-10,.cls-12,.cls-13,.cls-14,.cls-17,.cls-19,.cls-20,.cls-6{fill:none;}.cls-2{isolation:isolate;}.cls-3,.cls-5{fill:#42301f;}.cls-3{mix-blend-mode:multiply;opacity:0.22;}.cls-4{fill:#c6cc1e;}.cls-6{stroke:#42301f;}.cls-10,.cls-12,.cls-14,.cls-17,.cls-19,.cls-20,.cls-21,.cls-6{stroke-miterlimit:10;}.cls-10,.cls-13,.cls-14,.cls-17,.cls-19,.cls-21,.cls-6{stroke-width:0.5px;}.cls-7{fill:#c47c39;}.cls-8{fill:#5a733b;}.cls-9{fill:#191919;}.cls-10{stroke:#121212;}.cls-11{fill:#5e5e5e;}.cls-12{stroke:#5e5e5e;stroke-width:4px;}.cls-12,.cls-13,.cls-14,.cls-19,.cls-21{stroke-linecap:round;}.cls-13,.cls-14,.cls-21{stroke:#191919;}.cls-13{stroke-linejoin:round;}.cls-15,.cls-21{fill:#ffc2a8;}.cls-16{fill:#fff;}.cls-17{stroke:#c47c39;}.cls-18{clip-path:url(#clip-path);}.cls-19{stroke:#c6cc1e;}.cls-20{stroke:#383838;}.cls-22{fill:#e2ae73;}.cls-23{fill:#63482f;}</style><clipPath id="clip-path"><path class="cls-1" d="M149.1,126.21c12.72-40.29,22.32-48,22.32-48,40.5-27.59,70.87-5.57,70.87-5.57v0a5.38,5.38,0,0,1,1.06.62,12.34,12.34,0,0,1,2.77,2.77c3.62,4.91,12.44,17.91,15.26,49.5,0,0-6.37,12.08-21.81,10l-.23,0c-3.5,9.73-7.39,18-7.39,18-24.74,17.18-45-3.33-45-3.33a73.94,73.94,0,0,1-8.73-19.55C159.14,129.56,149.1,126.21,149.1,126.21Z"/></clipPath></defs><g class="cls-2"><g id="Layer_2" data-name="Layer 2"><g id="OBJECTS"><path class="cls-3" d="M51,385.48c0,2.11,8.28,3.81,18.48,3.81S88,387.59,88,385.48s-8.27-3.8-18.47-3.8S51,383.38,51,385.48Z"/><path class="cls-4" d="M77.35,167.66S62,162.46,63,141.94s5.13-20,11.37-37.47,45-15.19,45-15.19-11.49.88-14.46,9.47-1.88,36.4-8.06,42.52S83.77,161.91,77.35,167.66Z"/><path class="cls-5" d="M99.28,136.92,86.53,132.8s-23,3.34-22.3,20.08a22.81,22.81,0,0,0,13.12,14.78c6.42-5.75,13.33-20.28,19.51-26.39A11.61,11.61,0,0,0,99.28,136.92Z"/><path class="cls-4" d="M61.18,258s.66-4.28-2.59-11.2a18.88,18.88,0,0,0-10.77-9.93c-1.75-.59-18.19,1.16-18.19,1.16s5.59,4.76,14.52,12.19S61.18,258,61.18,258Z"/><path class="cls-5" d="M109.6,163.32s7.34-14.65,0-23L83,155S109.84,145.29,109.6,163.32Z"/><path class="cls-4" d="M82.76,248.27s-10-12.75,2.08-29.38,15.25-13.9,30-25.11,46,12,46,12-10.1-5.56-17.29,0-21.52,29.41-30,31.14S91.28,247,82.76,248.27Z"/><path class="cls-6" d="M66.62,299.16c3.34-24.53,16-72.37,63.54-101.78"/><path class="cls-6" d="M66.62,299.16c16.4-94.58-1.18-149.38,22.49-200"/><path class="cls-4" d="M55,197.38s-5.38,4.08-16.26-10.06S26,165.13,18,159.14s-.67-22.69-18-22.4c0,0,22.9-.87,40.06,5.44s20,22.09,22.7,29S55,197.38,55,197.38Z"/><path class="cls-6" d="M32.92,149s42.4,64,33.78,149.6"/><path class="cls-4" d="M72.17,177.62s-3.69-29.7,6.06-40.27,29.38-1.89,32.61,4.83C110.84,142.18,100,138.8,72.17,177.62Z"/><path class="cls-6" d="M62.38,224.52s6.06-58.9,28.89-85.72"/><path class="cls-6" d="M67.83,272.09s-1.34-11-17.44-28.13"/><path class="cls-7" d="M85.81,385.59l-.14,0a64,64,0,0,1-32.48,0h0l-15.38-106h63.38Z"/><path class="cls-5" d="M101.11,279.6c0,1.64-14.19,3-31.69,3s-31.69-1.32-31.69-3,14.19-3,31.69-3S101.11,278,101.11,279.6Z"/><path class="cls-8" d="M179.39,337.48a2.81,2.81,0,0,1-.71-.08,2.91,2.91,0,0,1-2.16-2l-29-98.37,5.65-1.66,27.51,93.36,92.39-100.88,4.34,4L181.51,336.52A2.9,2.9,0,0,1,179.39,337.48Z"/><rect class="cls-9" x="143.74" y="201.99" width="3.36" height="34.89" transform="translate(-56.1 50.06) rotate(-16.42)"/><path class="cls-7" d="M113.57,199.26s-1.94-6.54,1.72-6.45,10.74,2.11,20.19.74,34.94-3,32,2.68-19.32,4.59-21.6,5.39-11.27,4-15.23,3C124.93,203.2,112.84,201.25,113.57,199.26Z"/><polyline class="cls-10" points="76.84 261.94 90.89 307.58 95.22 306.13 88.2 259.26"/><polyline class="cls-10" points="102.15 259.52 91.12 305.98 95.59 306.92 113.31 262.97"/><polyline class="cls-10" points="39.9 287.91 82.1 310.24 84.14 306.16 46.04 277.98"/><polyline class="cls-10" points="56.08 268.29 81.13 308.94 84.96 306.45 66.41 262.84"/><polyline class="cls-10" points="32.14 332.39 77.77 318.34 76.32 314.01 29.45 321.02"/><polyline class="cls-10" points="29.71 307.07 76.17 318.1 77.11 313.63 33.16 295.92"/><polyline class="cls-10" points="58.1 369.33 80.43 327.13 76.35 325.09 48.16 363.19"/><polyline class="cls-10" points="38.48 353.14 79.13 328.09 76.64 324.26 33.03 342.81"/><polyline class="cls-10" points="102.58 377.09 88.53 331.45 84.2 332.9 91.21 379.77"/><polyline class="cls-10" points="77.26 379.52 88.29 333.06 83.82 332.11 66.11 376.06"/><polyline class="cls-10" points="139.52 351.13 97.32 328.79 95.28 332.88 133.38 361.06"/><polyline class="cls-10" points="123.33 370.74 98.28 330.1 94.45 332.58 113 376.19"/><polyline class="cls-10" points="147.28 306.65 101.64 320.69 103.09 325.02 149.96 318.01"/><polyline class="cls-10" points="149.71 331.96 103.25 320.93 102.3 325.4 146.25 343.12"/><polyline class="cls-10" points="121.32 269.71 98.98 311.91 103.07 313.95 131.25 275.85"/><polyline class="cls-10" points="140.93 285.89 100.28 310.94 102.77 314.77 146.38 296.22"/><polyline class="cls-10" points="300.86 258.24 314.91 303.87 319.24 302.43 312.22 255.56"/><polyline class="cls-10" points="326.17 255.81 315.14 302.27 319.61 303.22 337.33 259.26"/><polyline class="cls-10" points="263.92 284.2 306.12 306.54 308.16 302.45 270.06 274.27"/><polyline class="cls-10" points="280.1 264.59 305.15 305.23 308.98 302.75 290.43 259.14"/><polyline class="cls-10" points="256.16 328.68 301.79 314.63 300.34 310.3 253.47 317.31"/><polyline class="cls-10" points="253.73 303.37 300.19 314.39 301.13 309.93 257.18 292.21"/><polyline class="cls-10" points="282.12 365.62 304.45 323.42 300.37 321.38 272.19 359.48"/><polyline class="cls-10" points="262.5 349.44 303.15 324.38 300.66 320.56 257.06 339.11"/><polyline class="cls-10" points="326.6 373.38 312.55 327.75 308.22 329.2 315.23 376.06"/><polyline class="cls-10" points="301.28 375.81 312.31 329.35 307.85 328.4 290.13 372.36"/><polyline class="cls-10" points="363.54 347.42 321.34 325.08 319.3 329.17 357.4 357.35"/><polyline class="cls-10" points="347.36 367.04 322.3 326.39 318.47 328.88 337.02 372.49"/><polyline class="cls-10" points="371.3 302.94 325.67 316.99 327.11 321.32 373.98 314.31"/><polyline class="cls-10" points="373.73 328.25 327.27 317.23 326.32 321.69 370.28 339.41"/><polyline class="cls-10" points="345.34 266 323 308.2 327.09 310.24 355.27 272.14"/><polyline class="cls-10" points="364.95 282.19 324.31 307.24 326.79 311.07 370.4 292.51"/><path class="cls-9" d="M90.37,390a68.16,68.16,0,1,1,67-69.28A68.24,68.24,0,0,1,90.37,390Zm-2-123.27a55.12,55.12,0,1,0,56,54.21A55.2,55.2,0,0,0,88.33,266.7Z"/><path class="cls-9" d="M314.39,386.26a68.16,68.16,0,1,1,67-69.27A68.23,68.23,0,0,1,314.39,386.26Zm-2-123.26a55.12,55.12,0,1,0,56,54.2A55.19,55.19,0,0,0,312.35,263Z"/><path class="cls-9" d="M179,320.33a12.32,12.32,0,1,0,12.52,12.12A12.32,12.32,0,0,0,179,320.33Zm.06,3.56a8.19,8.19,0,0,1,1,0c.07,2,.1,7.64-1.65,7.39s-3.87-4.07-4.64-5.53A8.69,8.69,0,0,1,179.1,323.89Zm-6.61,14.33a8.76,8.76,0,0,1-2-5.43c0-.12,0-.24,0-.37,2.4,0,6.81.12,6.59,1.67S174.23,337.24,172.49,338.22Zm6.9,3.19a9.44,9.44,0,0,1-1.2-.07c0-2.47.25-6.09,1.66-5.89S183,338.28,184,340A8.75,8.75,0,0,1,179.39,341.41Zm8.45-7.07c-2.4,0-6.85-.1-6.63-1.66s4-3.84,5.49-4.62a8.64,8.64,0,0,1,1.3,4.44A9.27,9.27,0,0,1,187.84,334.34Z"/><rect class="cls-11" x="184.32" y="342.75" width="21.03" height="8.72" rx="2.37" transform="translate(389.66 694.22) rotate(180)"/><line class="cls-12" x1="195.41" y1="345.33" x2="179.58" y2="333.47"/><path class="cls-9" d="M89.6,304.81a15,15,0,1,0,15.24,14.74A15,15,0,0,0,89.6,304.81Zm-2,3.86c.71,3.11,1.51,8-.37,8.12-1.72.14-4.37-2.32-6.13-4.2A11.37,11.37,0,0,1,87.57,308.67ZM78.48,320a11.85,11.85,0,0,1,.08-1.47c3.17.28,8,1,7.62,2.86s-3.57,3.45-5.9,4.54A11.34,11.34,0,0,1,78.48,320ZM90,331.17a11.31,11.31,0,0,1-4.9-1c1.25-2.92,3.48-7.35,5.09-6.37s2.17,4.47,2.49,7A11.32,11.32,0,0,1,90,331.17Zm1.84-14.83c-.67-1.59.86-4.87,2.1-7.12a11.36,11.36,0,0,1,5.75,5C97,315.81,92.6,318.09,91.88,316.34Zm6.36,11.12c-2.4-2.09-5.92-5.57-4.49-6.81s4.91-.68,7.44-.19A11.28,11.28,0,0,1,98.24,327.46Z"/><path class="cls-11" d="M89.83,318.94a1.28,1.28,0,0,0,0,2.55,1.28,1.28,0,0,0,0-2.55Z"/><path class="cls-9" d="M312.6,300.85a15,15,0,1,0,15.23,14.74A15,15,0,0,0,312.6,300.85Zm-2,3.86c.7,3.11,1.5,8-.38,8.12-1.72.14-4.37-2.32-6.13-4.2A11.39,11.39,0,0,1,310.57,304.71ZM301.47,316a12.12,12.12,0,0,1,.09-1.48c3.17.29,8.05,1,7.61,2.87-.4,1.68-3.57,3.45-5.9,4.54A11.34,11.34,0,0,1,301.47,316ZM313,327.21a11.34,11.34,0,0,1-4.9-1c1.26-2.92,3.48-7.36,5.09-6.37s2.18,4.47,2.49,7A10.77,10.77,0,0,1,313,327.21Zm1.84-14.83c-.67-1.59.86-4.87,2.11-7.13a11.44,11.44,0,0,1,5.74,5C320,311.85,315.6,314.12,314.87,312.38Zm6.36,11.12c-2.39-2.1-5.92-5.58-4.49-6.81s4.92-.69,7.44-.2A11.31,11.31,0,0,1,321.23,323.5Z"/><path class="cls-11" d="M312.82,315a1.27,1.27,0,1,0,1.3,1.25A1.27,1.27,0,0,0,312.82,315Z"/><path class="cls-8" d="M179.62,331.6l-77.53-10.94L94.8,306.11l61.33-52.6,113.93-34.13-1.69-5.64L153.24,248.22,88.88,302.67a3.28,3.28,0,0,0-.83,3.95l8.56,17.59h0a3,3,0,0,0,2.36,2l80,11.28.46,0a3,3,0,0,0,2.9-2.87A3,3,0,0,0,179.62,331.6Z"/><path class="cls-8" d="M313.17,319.22a2.93,2.93,0,0,1-2.72-1.7L274.5,239.84l0-.12-11-30.53a2.94,2.94,0,1,1,5.54-2l11,30.41L315.79,315a3,3,0,0,1-1.43,3.91A2.82,2.82,0,0,1,313.17,319.22Z"/><path class="cls-9" d="M263.58,213.34l-6.46-15.86a4.2,4.2,0,0,1,2.26-5.46L273,186.3l3.27,7.75-9.76,4.11,4.9,12Z"/><path class="cls-9" d="M280,189.43a6.14,6.14,0,1,1-6.24-6A6.14,6.14,0,0,1,280,189.43Z"/><path class="cls-3" d="M54.86,389.49c0,1.92,65.87,2,147,.25s146.93-4.77,146.89-6.69-65.87-2-147-.24S54.81,387.58,54.86,389.49Z"/><path class="cls-3" d="M320.69,402.16c0,1.91,19.08,3.47,42.61,3.47s42.61-1.56,42.61-3.47-19.08-3.47-42.61-3.47S320.69,400.24,320.69,402.16Z"/><path class="cls-8" d="M369.08,208s-9.14,23.17-16.29,31.44-16.68,46,16.29,41.48c0,0,12.31,10.18,23.43,1.69,0,0,20.26-1.37,19.46-11.87s-12.31-37.25-23.43-50.06l-11.12-12.81Z"/><path class="cls-8" d="M369.33,208.74s-3-16.89,0-19.55,1.19,3.05,6.26,3.77,6.57-2.26,9,1.32-8.27,15.6-8.27,15.6Z"/><path class="cls-13" d="M371.33,211.67s-5.54,30.7,1.5,32.75.51-34.54.51-34.54,2.55,6.32,4.3,5.07-3.32-6.21-3.32-6.21a13.62,13.62,0,0,0,2.13-5.15"/><path class="cls-4" d="M327.08,394.09H403.2a3.9,3.9,0,0,0,3.89-3.65L415.84,254a3.9,3.9,0,0,0-3.9-4.15H318.33a3.9,3.9,0,0,0-3.89,4.15l8.75,136.42A3.9,3.9,0,0,0,327.08,394.09Z"/><rect class="cls-4" x="309.33" y="245.95" width="111.61" height="12.58" rx="3.06" transform="translate(730.28 504.48) rotate(180)"/><line class="cls-14" x1="417.89" y1="258.53" x2="312.39" y2="258.53"/><polygon class="cls-8" points="362.26 316.22 347.65 307.91 352.83 315.57 362.26 316.22"/><polygon class="cls-8" points="358.17 295.64 371.52 295.21 359.83 314.87 350 309.39 358.17 295.64"/><polygon class="cls-4" points="366.16 304.33 366.85 302.96 363.25 295.12 366.16 304.33"/><path class="cls-8" d="M375.86,295.07a1.3,1.3,0,0,1,.36.45l7.5,16.34a1.54,1.54,0,0,1-.75,2l-7.84,3.91a1.42,1.42,0,0,1-1.95-.64l-9.88-21.63Z"/><polygon class="cls-8" points="359.16 333.37 358.29 350.56 362.72 341.95 359.16 333.37"/><polygon class="cls-8" points="342.92 347.9 336.68 336.46 359.04 336.2 358.55 347.72 342.92 347.9"/><path class="cls-8" d="M334.65,332.74a1.68,1.68,0,0,1,.24-.55l11-15.26a1.52,1.52,0,0,1,2.07-.4l6.86,4.77a1.43,1.43,0,0,1,.3,2l-14.63,20.17Z"/><polygon class="cls-4" points="345.71 336.36 347.01 334.56 336.68 336.46 345.71 336.36"/><polygon class="cls-8" points="373.99 327.13 388.41 316.98 379.01 318.82 373.99 327.13"/><polygon class="cls-8" points="394.62 331.09 388.74 343.36 376.36 325.43 385.97 318.56 394.62 331.09"/><path class="cls-8" d="M386.82,347.35a1.42,1.42,0,0,1-.58.15l-18.38.71a1.38,1.38,0,0,1-1.45-1.41l.13-8.57a1.58,1.58,0,0,1,1.5-1.53l24.32-.9Z"/><polygon class="cls-4" points="383.74 336.12 381.56 336.2 388.74 343.36 383.74 336.12"/><rect class="cls-5" x="331.06" y="385.13" width="9.95" height="17.92" rx="3.77"/><rect class="cls-5" x="390.41" y="385.13" width="9.95" height="17.92" rx="3.77"/><rect class="cls-4" x="382.42" y="198.49" width="111.61" height="12.58" rx="3.06" transform="translate(70.96 519.56) rotate(-65.65)"/><ellipse class="cls-3" cx="234.08" cy="401.84" rx="73.41" ry="8.15"/><path class="cls-15" d="M208.37,186.44s.21,109.83-13,115.45c0,0-8.35,50.55-2.7,88.53,0,0-6.29,4.28-15.93-1.84,0,0-23.94-64.27-7.06-99.7,0,0-14-88.51-2.14-109.32S208.37,186.44,208.37,186.44Z"/><path class="cls-16" d="M166.33,348.93s17.44,2.84,24.59,0c0,0-.18,36.25,1.76,41.49l-15.9-1.83S168.5,365.51,166.33,348.93Z"/><path class="cls-14" d="M168.24,358a43.63,43.63,0,0,0,22.43,0"/><line class="cls-14" x1="169.69" y1="349.39" x2="170.97" y2="358.76"/><line class="cls-14" x1="176.56" y1="350.03" x2="177.15" y2="359.29"/><line class="cls-14" x1="183.98" y1="350.13" x2="183.57" y2="359.29"/><line class="cls-14" x1="189.91" y1="349.27" x2="189.56" y2="358.03"/><path class="cls-15" d="M257.07,279.13c-5.44-17.7-5.33-63-24.85-106.78l-51.86,5.87s11.24,41.22,50.11,108.94c0,0,.75,18.91,5.8,31.23,16.29,39.78,19.77,47.75,27.49,66.43,3.19.65,4.57,5,13.26,2.57C277.13,358.57,269.18,318.56,257.07,279.13Z"/><path class="cls-16" d="M248.35,347.76s16.69-.66,24.07-6.16c0,0,5.22,27.46,4.6,47.52L264.78,387S252.16,357,248.35,347.76Z"/><path class="cls-14" d="M252,356.53s14.19,1.18,22-4.63"/><line class="cls-14" x1="252.62" y1="347.6" x2="256.47" y2="356.62"/><line class="cls-14" x1="259.54" y1="346.6" x2="262.19" y2="356.02"/><line class="cls-14" x1="266.12" y1="344.78" x2="268.18" y2="354.79"/><line class="cls-14" x1="271.63" y1="342.41" x2="272.91" y2="352.63"/><path class="cls-7" d="M263.36,384.3s-4.93,11.74-3.44,16.55l44.44,1s2.38-10.41-23.66-17.23Z"/><path class="cls-7" d="M272.28,385.48l-3.36-4.9s6.57-3.74,11.55-1.36l.51,5.54Z"/><path class="cls-14" d="M277.64,387.09c3.15-2.6,7.29-1.28,7.29-1.28"/><path class="cls-14" d="M288.13,387.36s-4.26-1.1-7.15,1.15"/><path class="cls-14" d="M261,391.23s8.83,1.06,8.83,6.95"/><line class="cls-14" x1="303.96" y1="398.74" x2="259.64" y2="398.18"/><path class="cls-5" d="M184.19,146.33S166.57,174,164.85,187.14L240,192.87s-.34-15.12-8.08-39.3C232,153.57,208.43,160.6,184.19,146.33Z"/><path class="cls-15" d="M177.52,74.74h0c-2.65,1-5.36,2.39-6.85,4.81-9.77,16-25.11,66.85-25.11,66.85L174.35,141l3.89-32.29S202.25,87.05,177.52,74.74Z"/><path class="cls-15" d="M242.85,73.61a42.15,42.15,0,0,1,9.82,25.13c.57,15.16,7.83,41.06,7.83,41.06l33.9,22.52s-10,4-12.6,13.32l-39.27-19.22A4.64,4.64,0,0,1,240,152.8l-6.32-53.9Z"/><path class="cls-8" d="M261.38,125.59s-6.37,12.08-21.81,10,0-63.09,0-63.09h2.19a4.08,4.08,0,0,1,1.59.78,12.34,12.34,0,0,1,2.77,2.77C249.74,81,258.56,94,261.38,125.59Z"/><path class="cls-8" d="M242.29,72.66s-30.37-22-70.87,5.57L176.36,121s.85,13.82,10.6,29.22c0,0,20.25,20.51,45,3.33,0,0,14.25-30.28,12.75-43.22Z"/><path class="cls-5" d="M160.89,284.25c.3-33.6-12.93-60.17,11-116l65.06,3.61S259.5,270,261.38,292.34c0,0-23.52,10.62-32,7-6.17-2.61-21.22-53.88-21.22-53.88s-4.49,39.48-6.51,50.87S160.71,304.82,160.89,284.25Z"/><polyline class="cls-17" points="208.17 245.49 217.58 217.35 228.43 205.96"/><path class="cls-7" d="M196.33,388.93l-19.55-.34s-2.71,3.47-4.7,19l38,.65s1.19-9.15-8.72-12.84Z"/><path class="cls-7" d="M186.06,390.75l-2.33-5.5s4.76-3.84,13.66-1.12l-.12,6.62Z"/><polyline class="cls-14" points="209.77 404.44 183.82 404.44 172.61 403.83"/><path class="cls-14" d="M174,396.69s7.5-.43,8.39,7.45"/><path class="cls-14" d="M200.47,394.24s-6.43-1.89-9.28,1.35"/><path class="cls-14" d="M198.07,391.17s-6.3-1.62-8.94,1.52"/><path class="cls-8" d="M171.42,78.23s-9.6,7.69-22.32,48c0,0,10.06,3.36,29.19,4.48l-1.36-12,3.36-12.72c1.16-9.61,1.76-24.35-7.47-27.25Z"/><g class="cls-18"><path class="cls-19" d="M244.23,66s-27.17,7.89-68.09-3.29"/><path class="cls-19" d="M255.79,74S220.88,85.8,167,73.54"/><path class="cls-19" d="M260.45,86.34s-39.6,12-100.53,0"/><path class="cls-19" d="M266.26,101.7S221.51,112,154.11,97.42"/><path class="cls-19" d="M262.34,116S218.39,135.51,150,113.51"/><path class="cls-19" d="M268.15,132.9s-43.95,19.49-112.36-2.51"/></g><path class="cls-14" d="M248.35,97.77,245,108s9.69,20.35-5,23.09l-.46,4.55"/><polyline class="cls-14" points="183.06 104.2 179.59 118.74 178.23 130.69"/><path class="cls-20" d="M260.5,139.8a12.3,12.3,0,0,0-10.31,6"/><path class="cls-5" d="M224.45,46.5S230.6,52,239.08,71.76c9.84,22.89,5.49,26.14,5.49,26.14S237.45,91,229.62,76.58,224.45,46.5,224.45,46.5Z"/><path class="cls-15" d="M222.71,58.27l-1.38,9.84s7.32,9.27,3.95,11.24-10.77.28-22.58-11.93l1.64-28.1Z"/><path class="cls-15" d="M209.38,3.79c27.4-7.08,30.35,24.93,30.49,25.72,2.51,14.67-4.65,32.78-11.36,33.22-20.33,1.33-24.24-18.67-24.24-18.67-.49-1.18-9-12.82-9.35-14.1C191.17,15,193.36,7.94,209.38,3.79Z"/><path class="cls-5" d="M230.23,12.13s-1.89,23-26.19,25.06h0l-.55,16.88c.53,6.52-7.59,4.38-13.89-4.2-12.18-16.58-5.26-40.5,13.72-48.4,15-6.25,36,9.07,39.8,15.15,6.37,10.19-4,10.65-3.25,12.89C239.87,29.51,237.42,16,230.23,12.13Z"/><path class="cls-15" d="M196.6,45.48c1,3.5,4.45,5.58,7.62,4.64s4.89-4.55,3.84-8-4.45-5.58-7.61-4.64S195.56,42,196.6,45.48Z"/><path class="cls-6" d="M230.23,12.13S231.5,22.91,224.4,29"/><path class="cls-6" d="M185.63,28.8s-5.9,30.88,16.8,28.06"/><path class="cls-5" d="M234.68,31.68a.82.82,0,0,1-.62-1.25,2.84,2.84,0,0,1,2.5-1.47c2.48,0,3.15,1.49,2.76,2.26C239,31.78,236.25,31.74,234.68,31.68Z"/><path class="cls-5" d="M216.72,34.08a.8.8,0,0,1-1-1,2.85,2.85,0,0,1,1.89-2.22c2.35-.87,3.47.32,3.35,1.19C220.89,32.7,218.24,33.61,216.72,34.08Z"/><path class="cls-14" d="M219.5,47.48s2.73,2.91,7.9,1.59"/><path class="cls-9" d="M220.77,37.8c.09.9-.33,1.67-.92,1.72s-1.13-.62-1.21-1.52.33-1.66.92-1.72S220.69,36.91,220.77,37.8Z"/><path class="cls-9" d="M237,36.93c.07.79-.3,1.48-.82,1.53s-1-.56-1.08-1.35.3-1.48.82-1.53S236.91,36.14,237,36.93Z"/><path class="cls-21" d="M231.87,37.23s-.23,1.8,2,2.17c1.28.22-.55,4.71-2.71,4"/><path class="cls-14" d="M218.05,37a4.11,4.11,0,0,1,4-.47"/><path class="cls-14" d="M234.9,36.12a2.75,2.75,0,0,1,3.18-.38"/><path class="cls-13" d="M201.25,41.87a6.66,6.66,0,0,1,3.19,2.76,4.87,4.87,0,0,0-3,1.06"/><path class="cls-14" d="M223.78,62.42s-10-.45-15.47-9.18"/><path class="cls-5" d="M201.35,54.51s5.93,6.76,7.7,28.16c2.37,28.53-1.37,26.68-1.37,26.68s-5.12-8.47-9-24.44S201.35,54.51,201.35,54.51Z"/><path class="cls-8" d="M220.39,158.52a9,9,0,0,1-4,1.3l.79,1.72a11.59,11.59,0,0,1-7.47,1.23l.33.64s-1.5,2.61-2.54,2.87l-1.08-16.69Z"/><path class="cls-8" d="M288.38,179.72l-.15,2.34s-5.58-.87-7.6-4.77Z"/><polygon class="cls-22" points="267.13 197.2 202.5 194.37 202.5 131.08 267.13 131.86 267.13 197.2"/><polygon class="cls-7" points="289.2 194.01 266.26 197.2 266.26 131.86 289.2 128.68 289.2 194.01"/><polygon class="cls-23" points="202.5 131.08 267.13 131.86 289.2 128.68 219.26 128.68 202.5 131.08"/><path class="cls-15" d="M297.74,155.43s-4.5-5.33-3.56-7.85c2.29-6.18-.73-5.54-2.72-3.34-1.27,1.4-1,1.74-2,4.32a18.55,18.55,0,0,1-3.76,5.28Z"/><path class="cls-15" d="M288.77,153.78c.66,0,6.37-1.26,7-.87,6.58,4.42,4.31,22.68-3.55,23.33a20.47,20.47,0,0,1-9.14-1.49c-5.44-2.46-2-5.2-2-5.2s-2.94-1.13-2.61-3.59c.42-3.06,3.59-.93,3.59-.93s-5-.76-6-3.29c-.9-2.16,2.79-2.44,3.28-2.61,0,0-2.9-1.55.35-3.91S286.51,153.8,288.77,153.78Z"/><polyline class="cls-14" points="279.21 159.13 287.29 160.13 293.27 158.74"/><polyline class="cls-14" points="279.41 164.43 287.49 165.43 293.47 164.04"/><polyline class="cls-14" points="280.87 169.56 288.37 170.54 294.35 169.15"/><polygon class="cls-7" points="302.5 151.74 279.56 154.93 266.26 131.86 289.2 128.68 302.5 151.74"/><polygon class="cls-7" points="202.5 153.47 202.5 157.68 258 159.23 268.89 131.86 202.5 153.47"/><path class="cls-15" d="M162.89,131.66s22,9.78,34.63,11.7l-8.11,14.06s-.93.11-10.66,2c-17.17,3.37-30.82,2.1-33.59-7C141.82,141.41,162.89,131.66,162.89,131.66Z"/><path class="cls-15" d="M197.31,162.32c-.66-.11-7.5-3.81-7.9-4.9-.53-1.44-4.24-15.1,12-14.29,4.91.24,13.5,5.22,14.47,5.83,4.86,3.07,1.13,4.65,1.13,4.65s5.13,2,4.23,4.08c-1.11,2.54-7.17-.17-7.17-.17s4.6,2,3.09,4c-1.25,1.7-6.66-.36-7.18-.31,0,0,1.83,2.62-2.28,3C204.44,164.57,199.57,162.71,197.31,162.32Z"/><path class="cls-15" d="M195.38,143.83a18.06,18.06,0,0,0,7.61-5.94c3.81-5.63,5.72-6,5.9-3.74a7.05,7.05,0,0,1-1.35,5c-2.41,2.81.68,6.33.68,6.33S196.52,145.57,195.38,143.83Z"/><path class="cls-14" d="M178.29,137.83s-10.85-5-23.92,3.21"/><line class="cls-14" x1="216.99" y1="153.61" x2="205.96" y2="148.9"/><line class="cls-14" x1="214.91" y1="157.79" x2="203.74" y2="152.87"/><line class="cls-14" x1="210.18" y1="161.15" x2="202.14" y2="157.5"/><polygon class="cls-22" points="253.19 155.56 188.55 153.97 202.5 131.08 267.13 131.86 253.19 155.56"/></g></g></g></svg>