<svg xmlns="http://www.w3.org/2000/svg" viewBox="0 0 156.65 253.3"><defs><style>.cls-1{isolation:isolate;}.cls-2,.cls-7{fill:#42301f;}.cls-2{mix-blend-mode:multiply;opacity:0.22;}.cls-3{fill:#5a733b;}.cls-4,.cls-6{fill:none;stroke:#191919;stroke-linecap:round;stroke-width:0.5px;}.cls-4{stroke-linejoin:round;}.cls-5{fill:#c6cc1e;}.cls-6{stroke-miterlimit:10;}</style></defs><g class="cls-1"><g id="Layer_2" data-name="Layer 2"><g id="OBJECTS"><path class="cls-2" d="M11.35,249.83c0,1.91,19.08,3.47,42.62,3.47s42.61-1.56,42.61-3.47S77.5,246.36,54,246.36,11.35,247.91,11.35,249.83Z"/><path class="cls-3" d="M59.75,55.63S50.61,78.8,43.46,87.07s-16.68,46,16.29,41.47c0,0,12.31,10.19,23.43,1.69,0,0,20.26-1.36,19.46-11.86S90.33,81.12,79.21,68.31L68.09,55.5Z"/><path class="cls-3" d="M60,56.41s-3-16.89,0-19.55,1.2,3,6.27,3.77,6.56-2.26,8.95,1.32-8.27,15.6-8.27,15.6Z"/><path class="cls-4" d="M62,59.34S56.46,90,63.5,92.08,64,57.55,64,57.55s2.55,6.32,4.29,5.06S65,56.41,65,56.41a13.51,13.51,0,0,0,2.12-5.16"/><path class="cls-5" d="M17.75,241.76H93.87a3.9,3.9,0,0,0,3.89-3.65l8.74-136.43a3.9,3.9,0,0,0-3.89-4.15H9a3.91,3.91,0,0,0-3.89,4.15l8.74,136.43A3.91,3.91,0,0,0,17.75,241.76Z"/><rect class="cls-5" y="93.62" width="111.61" height="12.58" rx="3.06" transform="translate(111.61 199.82) rotate(180)"/><line class="cls-6" x1="108.56" y1="106.2" x2="3.06" y2="106.2"/><polygon class="cls-3" points="52.92 163.88 38.32 155.58 43.5 163.24 52.92 163.88"/><polygon class="cls-3" points="48.84 143.31 62.19 142.88 50.5 162.54 40.66 157.06 48.84 143.31"/><polygon class="cls-5" points="56.82 152 57.52 150.63 53.92 142.79 56.82 152"/><path class="cls-3" d="M66.53,142.74a1.22,1.22,0,0,1,.36.45l7.49,16.34a1.53,1.53,0,0,1-.74,2l-7.84,3.91a1.41,1.41,0,0,1-1.95-.64L54,143.15Z"/><polygon class="cls-3" points="49.82 181.04 48.95 198.23 53.39 189.62 49.82 181.04"/><polygon class="cls-3" points="33.59 195.57 27.35 184.13 49.71 183.87 49.22 195.39 33.59 195.57"/><path class="cls-3" d="M25.32,180.41a1.34,1.34,0,0,1,.24-.55l11-15.26a1.51,1.51,0,0,1,2.06-.4L45.52,169a1.45,1.45,0,0,1,.3,2L31.19,191.18Z"/><polygon class="cls-5" points="36.37 184.03 37.68 182.23 27.35 184.13 36.37 184.03"/><polygon class="cls-3" points="64.66 174.8 79.08 164.65 69.68 166.49 64.66 174.8"/><polygon class="cls-3" points="85.29 178.76 79.4 191.03 67.02 173.1 76.63 166.22 85.29 178.76"/><path class="cls-3" d="M77.49,195a1.6,1.6,0,0,1-.58.15l-18.38.71a1.38,1.38,0,0,1-1.45-1.41l.13-8.57a1.57,1.57,0,0,1,1.49-1.53l24.33-.9Z"/><polygon class="cls-5" points="74.41 183.79 72.23 183.87 79.4 191.03 74.41 183.79"/><rect class="cls-7" x="21.73" y="232.8" width="9.95" height="17.92" rx="3.77"/><rect class="cls-7" x="81.08" y="232.8" width="9.95" height="17.92" rx="3.77"/><rect class="cls-5" x="73.09" y="46.16" width="111.61" height="12.58" rx="3.06" transform="translate(27.96 148.25) rotate(-65.65)"/></g></g></g></svg>