<svg xmlns="http://www.w3.org/2000/svg" viewBox="0 0 227.42 412.83"><defs><style>.cls-1{isolation:isolate;}.cls-2{fill:#070b0c;}.cls-3{fill:#fad082;}.cls-4{fill:#f7a096;}.cls-5{fill:#e75b5d;opacity:0.5;}.cls-6{fill:#fff;}.cls-7{fill:#e3d0bd;}.cls-11,.cls-7{mix-blend-mode:multiply;}.cls-8{fill:#d44f18;}.cls-9{fill:#f2682d;}.cls-10{fill:#02595d;}.cls-11{opacity:0.21;}.cls-12{fill:#f6e7da;}.cls-13{fill:#d39142;}.cls-14{fill:#faaf4c;}</style></defs><g class="cls-1"><g id="Layer_2" data-name="Layer 2"><g id="OBJECTS"><path class="cls-2" d="M156,62.46c-3.83-23.29-17.54-8.09-14.65-14s2.37-16.13-4.79-20-2.07.67-2.75-7.94S119.64,7.34,119.64,7.34c-8-.59-16.41,1.1-22.77,5.95-2.32,1.77-4.79,8.11-4.79,18.52,0,0,2.19,15.34-2.74,17.53-8.26,3.67-.11,11.2,2.38,12.71L132,61.16l.22-5.29,1.84,5.25Z"/><path class="cls-2" d="M126.64,16.09c-1.19-2.7-2.41-5.49-2.45-8.44s1.38-6.13,4.11-7.24c2.89-1.16,6.22.3,8.52,2.4,3,2.76,5,7,4,11s-6,6.76-9.56,4.73"/><path class="cls-3" d="M97.87,37.23l2.69,9.29a5.76,5.76,0,1,1-10-2.81Z"/><path class="cls-4" d="M119.76,31.31a.68.68,0,0,0,.77.61c1.59-.22,5.23-1.05,6.3,3.06s-2.62,7.06-5,7.51c-.7.13-2.29.49-2.7,1.07-1.24,1.77-1.47,5.32-2,9.78-1.22,9.86,6.84,13.22,6.84,13.22S77.75,116.15,99.2,69.79c0,0-1-22.88-1.14-23-2.21-1.69-9.88-1.53-7.26-18.29,2.44-15.52,13.54-15.9,16.39-15.78C109.6,12.85,117.83,12.29,119.76,31.31Z"/><path class="cls-5" d="M125.18,36.43s-3.21-5-5.46,2.55Z"/><path class="cls-5" d="M105.89,33.16a3.78,3.78,0,1,0,4.17,3.35A3.79,3.79,0,0,0,105.89,33.16Z"/><path class="cls-5" d="M90.46,36.62a3.78,3.78,0,0,0,.34-7.07S89.74,33.91,90.46,36.62Z"/><path class="cls-6" d="M93.36,34.27l6.09,2.1s-2.53,2.4-4.19,1.49S93.36,34.27,93.36,34.27Z"/><path class="cls-5" d="M97.8,29.62l-.36,4.2-2.1-.62a.54.54,0,0,1-.23-.89Z"/><path d="M104.32,27.05c.58.63,0-1.76-.91-2.2a1.7,1.7,0,0,0-2.31.57A5.3,5.3,0,0,1,104.32,27.05Z"/><path d="M93,24.39c-.79.34.72-1.6,1.71-1.65A1.7,1.7,0,0,1,96.6,24.2,5.3,5.3,0,0,0,93,24.39Z"/><path d="M101.42,30.48c-.19.72-.62,1.23-1,1.14s-.48-.74-.3-1.46.62-1.23,1-1.14S101.6,29.76,101.42,30.48Z"/><path d="M95.79,28.66c-.18.69-.59,1.18-.92,1.09s-.46-.71-.29-1.4.59-1.17.93-1.09S96,28,95.79,28.66Z"/><path class="cls-5" d="M98.06,46.81s7.3.42,10.87-.29S100.17,58.48,98.06,46.81Z"/><path class="cls-2" d="M95.15,16.44a22.13,22.13,0,0,1,10.27,4.11c5.61,4.24,3.46-5.36,6.47,1.8s1.2,10.84,10.54,8.69C122.43,31,120.76-5.48,95.15,16.44Z"/><path class="cls-7" d="M227.42,407c0-2.39-33.59-4.32-75-4.32s-75,1.93-75,4.32,33.59,4.31,75,4.31S227.42,409.35,227.42,407Z"/><path class="cls-8" d="M105.09,364.4l-4.43,33.31s2,5.91,2,9.54c-4.4,3-29,3.33-31,.93,4.66-4.66,16.34-11.38,16.34-11.38l-4.77-33Z"/><path class="cls-9" d="M94.42,369.78l5.79,39.51s1.27,1,2.49-1.59c.74-1.55-.22-2.72-1.93-9l3.52-29.29Z"/><path class="cls-8" d="M162.62,363.8l10.14,30.43s-2.39,11.55-2.69,12.3c-1.07,2.69,8.49,4.11,8.49,4.11l.28-44.93Z"/><path class="cls-9" d="M172.92,363.8l5.86,36s10.43,7.18,11.24,4.91c.34-.94-6.19-8.55-7.54-11l.73-29.3Z"/><path class="cls-3" d="M70.9,406.81c-.79.59-2,3.42-.88,3.43l22.94.19c.56,0,11-.58,11.42-.85,0,0-.61-3.32-.61-3.32Z"/><polygon class="cls-3" points="83.5 407.08 77.2 401.88 88.06 396.8 96.38 407.08 83.5 407.08"/><path class="cls-9" d="M191.62,405.33c.94,1.44.42,3.15-1.29,4.17-2.76,1.64-8.76,1.42-8.76,1.42s-6,.33-8.85-.91c-1.91-.83-3.4-2.05-3.16-3.65l.33-2.14c0-.18,7.3-1,7.3-1l1.1-12.33Z"/><polygon class="cls-3" points="168.7 404.07 191.44 403.52 184.31 396.12 171.16 396.4 168.7 404.07"/><polygon class="cls-3" points="195.82 412.56 167.6 412.83 169.25 406.81 192.81 406.81 195.82 412.56"/><path class="cls-10" d="M129.25,132.59c7.13,12.6,17.62,21.22,21.71,37.24,4.75,18.58,51.88,175.83,61.57,210.95-2.3.56-48.76,0-48.76,0L114,206.94a3.9,3.9,0,0,0-7.64,1.09l1,173.3s-33.92,1.24-35.07,1.1C68.42,340.81,59.38,182,90.28,131,104.41,129,114.93,132.16,129.25,132.59Z"/><path class="cls-6" d="M78.62,381.88c0-1.25-3.43-126-3.43-169.48s17.25-78.47,17.43-78.81l.4.19c-.18.35-17.38,35.22-17.38,78.62S79,380.62,79.07,381.87Z"/><rect class="cls-6" x="165.81" y="127.15" width="0.45" height="258.55" transform="translate(-66.73 58.58) rotate(-16.71)"/><polygon class="cls-6" points="141.93 176.52 119.27 132.1 119.67 131.9 142.33 176.32 141.93 176.52"/><path class="cls-11" d="M88.37,132.16l61.84,41.17c4.88.58-6.87-19.38-21-40.74Z"/><polygon class="cls-6" points="78.78 180.07 78.37 179.89 97.54 136.06 97.95 136.24 78.78 180.07"/><path class="cls-4" d="M.84,127c13-.4,21.71-.38,22.92-.29l41.95-.92-.12-.11s2.11,0,3.6-.12a1.64,1.64,0,0,0,1.49-1.26c4-17,12.17-61.74,26.77-58.09.21.06,5.14.78,4.61,1.44-4.78,6-13.5,35.61-13.5,35.61-.1.45-.08,2.43-.07,5.29,5.14,29.46-1,31.74-1,31.74a13.9,13.9,0,0,1-3.1,1.36.7.7,0,0,1-.06.09l-.06-.05c-18.74,5.83-72.94-6.83-72.94-6.83C6.91,133.68-2.93,127.13.84,127Z"/><path class="cls-5" d="M95.67,75.67c1-5,1.87-9.43,1.78-9.45-2.66-.66-5.1.29-7.35,2.38a101.09,101.09,0,0,1-1.59,18.71C91,83.47,93.27,79.51,95.67,75.67Z"/><path class="cls-8" d="M78.93,138.63a24.07,24.07,0,0,0-.08,4.16,30.56,30.56,0,0,0,5.41-1.09l.06.05a.7.7,0,0,0,.06-.09,13.9,13.9,0,0,0,3.1-1.36s3.31-1.25,3-13.57C84.64,127.25,79.58,133.14,78.93,138.63Z"/><path class="cls-4" d="M19.58,126.64s-9.85-6.23-10.26-4.72c-.81,3,7.37,6.09,6.34,7C15.66,128.94,18,127.46,19.58,126.64Z"/><path class="cls-12" d="M98.84,65.13c-.2-1.23-1.23.21-3.28.82-4.25,9-13.17,33-12.82,40,.49,9.86,4.85,22.44,4.32,23.92,0,0,8.77,3.83,42.19,2.19.61-10.29,19.29-42.73,2.64-60.6-1.83-2.85-10.06-8.92-14.23-10.6C117.66,60.84,96,93.07,98.84,65.13Z"/><path class="cls-3" d="M119.66,38.9l5.71,7.8a5.76,5.76,0,1,1-10.34.79Z"/><path class="cls-13" d="M79.31,132.85S98,69.23,121,68.61c18.88-.51,36.09,6.12,53.66,49.56l-15.15,1.62S144.14,73,124.73,69.92s-28.46,58.4-28.46,58.4Z"/><path class="cls-14" d="M173.2,207.36l-69.95,9.34a16.4,16.4,0,0,1-18.43-14.09l-9.89-74L177.4,114.91l9.89,74A16.41,16.41,0,0,1,173.2,207.36Z"/><path class="cls-12" d="M116.23,194.52a7.13,7.13,0,0,1-1.34-5,17.85,17.85,0,0,1,1.71-6.06,3.1,3.1,0,0,1-.12-.71l3.59-7.75,7.48,3.89-6.4-15-15.06,3.81,5.68,3-4.45,9.61-.09.73a12.49,12.49,0,0,0,9.1,13.58A1.47,1.47,0,0,1,116.23,194.52Z"/><path class="cls-12" d="M120.43,185.64a3.07,3.07,0,0,1-2.5-.39,16.58,16.58,0,0,0-1.05,3.68,5.21,5.21,0,0,0,3.08,6.16,12.93,12.93,0,0,0,2.88-.42l9.44-2.52-2.4-9Z"/><path class="cls-12" d="M163.81,172.09a7.22,7.22,0,0,1-3.3,3.95,18,18,0,0,1-5.94,2.08,3,3,0,0,1-.51.5l-8.4,1.52-1.12-8.37L136,185.62l11.77,10.13-.85-6.34,10.43-1.88.65-.34a12.5,12.5,0,0,0,5.88-15.26A.94.94,0,0,1,163.81,172.09Z"/><path class="cls-12" d="M154.12,173.75a3,3,0,0,1,1.12,2.27,16.66,16.66,0,0,0,3.62-1.25,5.91,5.91,0,0,0,3-3,5.8,5.8,0,0,0,.23-3.09,12.9,12.9,0,0,0-2-2.12l-7.48-6.28-6,7.15Z"/><path class="cls-12" d="M121.43,144.38a7.22,7.22,0,0,1,5,1,18.06,18.06,0,0,1,4.69,4.21,3.31,3.31,0,0,1,.69.2l5.38,6.63-6.79,5,16.26.84,3.2-15.2-5.15,3.8-6.67-8.23-.61-.4a12.52,12.52,0,0,0-16.21,2.2Z"/><path class="cls-12" d="M127.56,152.07A3,3,0,0,1,129,150a16.84,16.84,0,0,0-2.84-2.57,5.94,5.94,0,0,0-4.07-1.22,5.63,5.63,0,0,0-2.81,1.29,12.39,12.39,0,0,0-.9,2.76l-1.89,9.59,9.16,1.81Z"/></g></g></g></svg>