<svg xmlns="http://www.w3.org/2000/svg" viewBox="0 0 656.72 330.71"><defs><style>.cls-1{fill:#97d19d;}.cls-2{fill:#5ea466;}.cls-3{fill:#96d89f;}.cls-4{fill:#5ebd75;}</style></defs><g id="Layer_2" data-name="Layer 2"><g id="OBJECTS"><path class="cls-1" d="M343.37,303.93c-.12.26-.22.52-.33.77a1,1,0,0,1-.52,1.34c-.49,1.26-1,2.52-1.41,3.8q8-.15,16,.11a62.54,62.54,0,0,0,1.73-8.19A76.06,76.06,0,0,0,343.37,303.93Z"/><path class="cls-1" d="M354.26,284.13a103.52,103.52,0,0,0-10,17.75A77.64,77.64,0,0,1,359.11,300a23.48,23.48,0,0,0-.63-9.95A11.79,11.79,0,0,0,354.26,284.13Z"/><path class="cls-1" d="M341,305a102.91,102.91,0,0,1-7.47-10.7,49.82,49.82,0,0,0-5.3,10.85c-2.52,7.11-5.48,15.36-6.69,22.8h13.3A104.43,104.43,0,0,1,341,305Z"/><path class="cls-1" d="M334.85,293A99.2,99.2,0,0,0,341.77,303a104.49,104.49,0,0,1,10.92-19.8,9.12,9.12,0,0,0-1.45-.48c-3.83-.86-7.74,1.14-10.77,3.65a34.94,34.94,0,0,0-5.86,6.29A1.05,1.05,0,0,1,334.85,293Z"/><path class="cls-1" d="M340.52,311.65a103.15,103.15,0,0,0-3.87,16.26h13.07a88.43,88.43,0,0,0,6.91-16.17C351.26,311.57,345.89,311.53,340.52,311.65Z"/><path class="cls-2" d="M300.71,291.34a.94.94,0,0,1-.18.25q5.1,7.11,10.08,14.3a.88.88,0,0,1,.52-.18q7.56-.21,15.07-1-2-3.61-4-7.19a3.58,3.58,0,0,0-1.41-1.63,3.31,3.31,0,0,0-2.43.1c-2.62.87-5.14,2.37-7.9,2.3s-5.68-2.79-4.56-5.31a6.1,6.1,0,0,1,2.47-2.38l6.14-3.94c.94-.6,2-1.37,2-2.49a3.58,3.58,0,0,0-.85-2.07c-1.87-2.7-3.74-5.39-5.65-8.05A177.94,177.94,0,0,0,300.71,291.34Z"/><path class="cls-2" d="M327.12,306.41c-5.14.57-10.26.92-15.4,1.08q5.43,7.88,10.73,15.83c.65,1-.91,1.87-1.55.91q-24.48-36.81-51.82-71.61a15.54,15.54,0,0,0-2.11,5.21c-2.38,9.7-1.25,20,1.34,29.62a100.66,100.66,0,0,0,22.55,41.26l47.91.18Q333.16,317.53,327.12,306.41Z"/><path class="cls-2" d="M299.37,290a180.26,180.26,0,0,1,9.55-17.48,136.3,136.3,0,0,0-8.93-11.1c-5-5.52-11-10.65-18.24-12.33-3.95-.92-8.56-.55-11.48,2.18Q285.24,270.29,299.37,290Z"/><path class="cls-3" d="M589.65,301.62a67.4,67.4,0,0,1-8.38,10.59c1.84,4.39,3.62,8.79,5.29,13.24h10.05C595.34,317.68,592.3,309.09,589.65,301.62Z"/><path class="cls-3" d="M577,307.09a.79.79,0,0,1-.7-1.08l.09-.24a293.38,293.38,0,0,0-13.77-26.22.9.9,0,0,1,1.56-.9q7.14,12.06,13.09,24.75,2.44-6.54,4.88-13.09c.41-1.08,2.14-.61,1.74.48q-2.77,7.45-5.56,14.9,1.1,2.37,2.14,4.76a64.43,64.43,0,0,0,8.41-11c-2.69-6.95-6.68-13.49-12.41-18.23-3.22-2.67-7.38-4.8-11.46-3.88-3.71.84-6.51,4.11-7.71,7.71s-1,7.52-.59,11.3c1.18,10,5.08,20.21,9.92,29.06h18Q581.12,316.14,577,307.09Z"/><path class="cls-2" d="M547.3,303.93c.09-3.13.17-6.25.26-9.38a.87.87,0,0,1,.25-.6,7.91,7.91,0,0,0-5.59-1.11,7.17,7.17,0,0,0-4.53,3.67C541.39,297.84,544.56,300.73,547.3,303.93Z"/><path class="cls-2" d="M549.05,305.72a.88.88,0,0,1,0,.29c1.28,1.64,2.47,3.3,3.56,4.81a51.25,51.25,0,0,1,7.55,14.63h3.56c-.87-5.38-3-11.34-4.83-16.47A30.59,30.59,0,0,0,550,295.47l-.65-.51Z"/><path class="cls-2" d="M538.6,314.31q7,.17,14.06-.18c-.35-.54-.71-1.07-1.08-1.6-3.52-5-8.44-12.16-14.61-14.36a17.83,17.83,0,0,0-.38,7.56,46.66,46.66,0,0,0,1.91,8.58Z"/><path class="cls-2" d="M553.76,315.88q-7.32.39-14.65.23a65.78,65.78,0,0,0,4.21,9.34h14.92A46.34,46.34,0,0,0,553.76,315.88Z"/><path class="cls-2" d="M636.4,265.73q4.61-12.48,8.26-25.29a17.29,17.29,0,0,0-6.33.32A31,31,0,0,0,626.12,247Q631,256.51,636.4,265.73Z"/><path class="cls-2" d="M631.69,282.53a112.42,112.42,0,0,1,14.57.15,49.48,49.48,0,0,1,5.82.86c.19-.64.38-1.27.55-1.91,2.77-10.27,4-21.21,1.44-31.53a14.73,14.73,0,0,0-3-6.44,9.82,9.82,0,0,0-4.69-2.84A357.14,357.14,0,0,1,631.69,282.53Z"/><path class="cls-2" d="M608.34,324.7a356,356,0,0,0,24-48.33q-6.39-11.43-13.37-22.5c-6.22,6.86-11.5,14.47-16.76,22.06a3.79,3.79,0,0,0-.91,2.21c.06,1.18,1.16,2,2.16,2.64L610,285a6.34,6.34,0,0,1,2.63,2.52c1.19,2.69-1.91,5.59-4.85,5.66s-5.62-1.52-8.41-2.45a3.5,3.5,0,0,0-2.58-.11,3.87,3.87,0,0,0-1.51,1.73q-9.22,16.47-17.61,33.4l30.75-.11A.82.82,0,0,1,608.34,324.7Z"/><path class="cls-2" d="M646.81,284.54c-1.66-.18-3.32-.28-5-.33-3.64-.11-7.28,0-10.91.15a359.32,359.32,0,0,1-21,41.25l18.73-.06a107,107,0,0,0,23-40.44C649.73,284.81,647,284.55,646.81,284.54Z"/><path class="cls-2" d="M633.16,274.23q1.25-3.14,2.43-6.3-5.7-9.74-10.88-19.75c-1.58,1.36-3.08,2.82-4.51,4.32Q627,263.21,633.16,274.23Z"/><path class="cls-3" d="M643.92,315.35a1,1,0,0,1-.3,0q-1.53,4.81-2.71,9.76a1,1,0,0,1-.17.37h9a64.33,64.33,0,0,0,4.64-10.58Z"/><path class="cls-3" d="M652.45,293.7a138.4,138.4,0,0,0-5.67,12.63,59.22,59.22,0,0,1,9.76-1,17.25,17.25,0,0,0-.44-7.3,8.29,8.29,0,0,0-3.57-4.57A1,1,0,0,1,652.45,293.7Z"/><path class="cls-3" d="M646.56,308.19a1,1,0,0,1-.48,0c-.67,1.78-1.31,3.57-1.9,5.38l10.8-.49a47.21,47.21,0,0,0,1.32-5.87A55.87,55.87,0,0,0,646.56,308.19Z"/><path class="cls-3" d="M639.18,324.61a141.07,141.07,0,0,1,11.69-31.77c-2.77-.63-5.59.82-7.78,2.63A30.59,30.59,0,0,0,634.25,309c-1.82,5.13-4,11.09-4.83,16.47h10A.85.85,0,0,1,639.18,324.61Z"/><path class="cls-4" d="M251.36,328.73a147.69,147.69,0,0,0-22.64-41.91,128.2,128.2,0,0,0-16.27-17.4c-6.2-5.47-13-10.72-20.6-14.07a35.72,35.72,0,0,0-12-3.17,29.79,29.79,0,0,0-12,2c-3.87,1.4-7.59,3.21-11.58,4.23a16.92,16.92,0,0,1-11.72-.93c-3.81-1.81-7.1-4.54-10.45-7.07-3.56-2.68-7.16-5.3-10.84-7.8a131.26,131.26,0,0,0-23-12.76c-15.26-6.37-33.14-8.73-48.91-2.7a51.85,51.85,0,0,0-5.68,2.59c-1.71.9-.19,3.49,1.51,2.59,14.63-7.76,32.29-6.82,47.53-1.42a112.7,112.7,0,0,1,22.93,11.59c3.63,2.32,7.16,4.78,10.64,7.32s6.7,5.17,10.18,7.56A24.22,24.22,0,0,0,149.7,262c3.88.38,7.74-.67,11.35-2s7.38-3.1,11.25-4.09a24.82,24.82,0,0,1,12.11,0c8.08,2,15.23,6.87,21.62,12a123.61,123.61,0,0,1,16.64,16.19,140.6,140.6,0,0,1,23.77,39.94c.71,1.81,1.38,3.63,2,5.47s3.53,1,2.89-.8Z"/><path class="cls-4" d="M150.12,271.18a208.16,208.16,0,0,0-44.58,55.2,1,1,0,0,1-1.28.49c.29.65.59,1.29.88,1.94l145.93,1.9a196,196,0,0,0-14.23-17.24,1,1,0,0,1-.38.58c-9.54,7.55-22.2,4.36-30.52-3.4-7.73-7.22-14.8-19.9-8.36-30,.78-1.24,2.76-.09,2,1.15-5.65,8.91.62,20,7.17,26.47,7.33,7.3,19.2,11.28,28.12,4.21a1.2,1.2,0,0,1,.8-.26c-14.25-15.34-31.84-30.71-46.46-40.84-3.73-2.59-7.77-5.14-12.31-5.4-6-.35-11.4,3.33-17.24,4.65a24.48,24.48,0,0,1-9.25.27A1.11,1.11,0,0,1,150.12,271.18Zm26.75-1.58a1.15,1.15,0,0,1,2.21.61,86.46,86.46,0,0,0-3.4,28.52c.45,8.88,1.56,20.81,8,27.56,1,1.07-.6,2.68-1.62,1.62-6.41-6.73-7.75-17.53-8.48-26.41A88.64,88.64,0,0,1,176.87,269.6Z"/><path class="cls-4" d="M84.26,289.89a321.4,321.4,0,0,1,19.27,35.42.2.2,0,0,1,0-.08,210,210,0,0,1,44.13-54.94c-9.47-2.4-18.39-9.31-26.65-15.22-1.92-1.37-3.88-2.69-5.85-4A154.3,154.3,0,0,0,84.26,289.89Z"/><path class="cls-4" d="M90.65,305.15a1,1,0,0,1-.71,0A197.09,197.09,0,0,0,1,291.17a1,1,0,0,1-1-.52c.16,12.47,2.9,25,7,36.88l95.66,1.25Q97.13,316.71,90.65,305.15Z"/><path class="cls-4" d="M77.22,279.15c.45.29.92.56,1.37.84a1.13,1.13,0,0,1,.31,1.64q2,3,4,6.08a156.17,156.17,0,0,1,30.34-37.92,178.81,178.81,0,0,0-30.4-15.54c-13-5.16-27.32-8.79-41-5.8a44,44,0,0,0-5.8,1.72A324,324,0,0,1,77.22,279.15Z"/><path class="cls-4" d="M1,288.88a198.75,198.75,0,0,1,88.08,13.46q-6.32-11-13.48-21.53a412.19,412.19,0,0,0-60.7-31.05c-1.34-.55-.75-2.76.61-2.2a414.29,414.29,0,0,1,56.86,28.61A320.89,320.89,0,0,0,33.69,231.1c-15.3,6.66-26.69,21.69-31.1,38A77.56,77.56,0,0,0,0,289.57,1.13,1.13,0,0,1,1,288.88Z"/><path class="cls-2" d="M223.75,200.79s-1.39-19.5-14.63-17.41C209.12,183.38,204.94,199.4,223.75,200.79Z"/><path class="cls-2" d="M378.66,0S359.5,3.93,363.31,16.78C363.31,16.78,379.74,18.83,378.66,0Z"/><path class="cls-2" d="M147.43,248.41S158,239,151,232.35C151,232.35,139.93,237,147.43,248.41Z"/><path class="cls-1" d="M243.3,257.91s-7.54-8.2-12.7-2.58C230.6,255.33,234.42,264,243.3,257.91Z"/><path class="cls-1" d="M326.16,42.68s-.58-11.12-8.14-10.07C318,32.61,315.47,41.69,326.16,42.68Z"/><path class="cls-2" d="M628.35,184.62s-3.6-10.2,8.12-13.2C636.47,171.42,640.89,184.35,628.35,184.62Z"/><path class="cls-1" d="M600.79,26.54s-3.61-10.2,8.11-13.2C608.9,13.34,613.33,26.27,600.79,26.54Z"/><path class="cls-2" d="M635.13,195.55s4.2-14.45,19.89-8.34C655,187.21,649.53,205.43,635.13,195.55Z"/><path class="cls-1" d="M256.84,309.55s5.38-18.48,25.44-10.66C282.28,298.89,275.26,322.17,256.84,309.55Z"/></g></g></svg>